{
.appVersion = "926";
classes = (
{
automatic = 1;

glyphs = (
{
color = 5;
glyphname = A;
layers = (
{
anchors = (
{
name = above;
position = "{288, 726}";
},
{
name = below;
position = "{288, 0}";
},
{
name = ogonek;
position = "{503, 0}";
}
);
layerId = UUID0;
paths = (
{
closed = 1;
nodes = (
"81 0 LINE",
"150 191 LINE",
"426 191 LINE",
"496 0 LINE",
"576 0 LINE",
"328 680 LINE",
"329 682 LINE",
"248 682 LINE",
"248 680 LINE",
"1 0 LINE"
);
},
{
closed = 1;
nodes = (
"288 570 LINE",
"404 253 LINE",
"173 253 LINE"
);
}
);
width = 575;
},
{
anchors = (
{
name = bottom;
position = "{293, 0}";
},
{
name = ogonek;
position = "{526, 10}";
},
{
name = top;
position = "{293, 682}";
}
);
background = {
components = (
{
name = V;
transform = "{1, 0, 0, -1, 12, 682}";
}
);
};
layerId = "63224BA1-30A4-42F4-A6D1-9160F56B91B0";
paths = (
{
closed = 1;
nodes = (
"87 0 LINE",
"155 206 LINE",
"168 238 LINE",
"303 626 LINE",
"273 626 LINE",
"503 0 LINE",
"573 0 LINE",
"324 682 LINE",
"254 682 LINE",
"12 0 LINE"
);
},
{
closed = 1;
nodes = (
"442 191 LINE",
"420 253 LINE",
"157 253 LINE",
"134 191 LINE"
);
}
);
width = 585;
}
);
unicode = 0041;
},
{
color = 6;
glyphname = "Alpha-latin";
layers = (
{
layerId = UUID0;
paths = (
{
closed = 1;
nodes = (
"390 -16 OFFCURVE",
"435 0 OFFCURVE",
"471 33 CURVE SMOOTH",
"508 66 OFFCURVE",
"535 103 OFFCURVE",
"554 146 CURVE",
"554 0 LINE",
"628 0 LINE",
"629 682 LINE",
"554 682 LINE",
"554 538 LINE",
"544 559 OFFCURVE",
"533 579 OFFCURVE",
"520 598 CURVE SMOOTH",
"473 664 OFFCURVE",
"411 697 OFFCURVE",
"335 697 CURVE SMOOTH",
"282 697 OFFCURVE",
"232 679 OFFCURVE",
"186 644 CURVE SMOOTH",
"140 609 OFFCURVE",
"104 564 OFFCURVE",
"79 509 CURVE SMOOTH",
"30 400 OFFCURVE",
"30 280 OFFCURVE",
"79 171 CURVE SMOOTH",
"104 117 OFFCURVE",
"140 72 OFFCURVE",
"186 37 CURVE SMOOTH",
"232 2 OFFCURVE",
"282 -16 OFFCURVE",
"336 -16 CURVE SMOOTH"
);
},
{
closed = 1;
nodes = (
"293 53 OFFCURVE",
"255 68 OFFCURVE",
"222 97 CURVE SMOOTH",
"189 126 OFFCURVE",
"164 163 OFFCURVE",
"147 206 CURVE SMOOTH",
"112 293 OFFCURVE",
"112 387 OFFCURVE",
"147 474 CURVE SMOOTH",
"182 562 OFFCURVE",
"251 629 OFFCURVE",
"335 629 CURVE SMOOTH",
"394 629 OFFCURVE",
"445 600 OFFCURVE",
"488 541 CURVE",
"532 483 OFFCURVE",
"554 416 OFFCURVE",
"554 340 CURVE SMOOTH",
"554 255 OFFCURVE",
"516 160 OFFCURVE",
"447 99 CURVE SMOOTH",
"413 68 OFFCURVE",
"375 53 OFFCURVE",
"334 53 CURVE SMOOTH"
);
}
);
width = 706;
},
{
background = {
anchors = (
{
name = bottom;
position = "{348, 0}";
},
{
name = center;
position = "{348, 341}";
},
{
name = ogonek;
position = "{626, 10}";
},
{
name = top;
position = "{348, 682}";
},
{
name = topleft;
position = "{20, 682}";
},
{
name = topright;
position = "{676, 682}";
}
);
paths = (
{
closed = 1;
nodes = (
"489 -16 OFFCURVE",
"588 131 OFFCURVE",
"588 339 CURVE SMOOTH",
"588 549 OFFCURVE",
"489 697 OFFCURVE",
"348 697 CURVE SMOOTH",
"176 697 OFFCURVE",
"55 549 OFFCURVE",
"55 340 CURVE SMOOTH",
"55 131 OFFCURVE",
"176 -16 OFFCURVE",
"348 -16 CURVE SMOOTH"
);
},
{
closed = 1;
nodes = (
"223 53 OFFCURVE",
"134 172 OFFCURVE",
"134 340 CURVE SMOOTH",
"134 509 OFFCURVE",
"223 629 OFFCURVE",
"348 629 CURVE SMOOTH",
"465 629 OFFCURVE",
"549 509 OFFCURVE",
"549 340 CURVE SMOOTH",
"549 172 OFFCURVE",
"465 53 OFFCURVE",
"348 53 CURVE SMOOTH"
);
},
{
closed = 1;
nodes = (
"628 0 LINE",
"628 682 LINE",
"553 682 LINE",
"553 0 LINE"
);
}
);
};
layerId = "63224BA1-30A4-42F4-A6D1-9160F56B91B0";
paths = (
{
closed = 1;
nodes = (
"495 -16 OFFCURVE",
"596 131 OFFCURVE",
"596 339 CURVE SMOOTH",
"596 549 OFFCURVE",
"495 697 OFFCURVE",
"348 697 CURVE SMOOTH",
"176 697 OFFCURVE",
"55 549 OFFCURVE",
"55 340 CURVE SMOOTH",
"55 131 OFFCURVE",
"176 -16 OFFCURVE",
"348 -16 CURVE SMOOTH"
);
},
{
closed = 1;
nodes = (
"223 53 OFFCURVE",
"134 172 OFFCURVE",
"134 340 CURVE SMOOTH",
"134 509 OFFCURVE",
"223 629 OFFCURVE",
"348 629 CURVE SMOOTH",
"465 629 OFFCURVE",
"549 539 OFFCURVE",
"549 340 CURVE SMOOTH",
"549 152 OFFCURVE",
"465 53 OFFCURVE",
"348 53 CURVE SMOOTH"
);
},
{
closed = 1;
nodes = (
"628 0 LINE",
"628 682 LINE",
"553 682 LINE",
"553 0 LINE"
);
}
);
width = 708;
}
);
leftMetricsKey = O;
rightMetricsKey = H;
unicode = 2C6D;
},
{
color = 5;
glyphname = Aogonek;
layers = (
{
anchors = (
{
name = above;
position = "{288, 726}";
}
);
layerId = UUID0;
paths = (
{
closed = 1;
nodes = (
"537 -186 OFFCURVE",
"571 -181 OFFCURVE",
"610 -170 CURVE",
"604 -144 LINE",
"585 -148 OFFCURVE",
"567 -150 OFFCURVE",
"550 -150 CURVE SMOOTH",
"481 -150 OFFCURVE",
"446 -127 OFFCURVE",
"446 -82 CURVE SMOOTH",
"446 -58 OFFCURVE",
"450 -40 OFFCURVE",
"459 -29 CURVE SMOOTH",
"468 -18 OFFCURVE",
"486 -9 OFFCURVE",
"513 0 CURVE",
"576 0 LINE",
"328 680 LINE",
"329 682 LINE",
"248 682 LINE",
"248 680 LINE",
"1 0 LINE",
"81 0 LINE",
"150 191 LINE",
"426 191 LINE",
"489 20 LINE",
"417 5 OFFCURVE",
"381 -32 OFFCURVE",
"381 -91 CURVE SMOOTH",
"381 -154 OFFCURVE",
"423 -186 OFFCURVE",
"507 -186 CURVE SMOOTH"
);
},
{
closed = 1;
nodes = (
"288 570 LINE",
"404 253 LINE",
"173 253 LINE"
);
}
);
width = 575;
},
{
components = (
{
name = A;
},
{
name = ogonekcomb;
transform = "{1, 0, 0, 1, 344, 10}";
}
);
layerId = "63224BA1-30A4-42F4-A6D1-9160F56B91B0";
width = 585;
}
);
unicode = 0104;
},
{
color = 5;
glyphname = AE;
layers = (
{
anchors = (
{
name = above;
position = "{403, 726}";
}
);
layerId = UUID0;
paths = (
{
closed = 1;
nodes = (
"60 0 LINE",
"163 191 LINE",
"348 191 LINE",
"348 0 LINE",
"733 0 LINE",
"733 62 LINE",
"422 62 LINE",
"422 340 LINE",
"662 340 LINE",
"662 401 LINE",
"422 401 LINE",
"422 619 LINE",
"730 619 LINE",
"730 682 LINE",
"348 682 LINE",
"348 680 LINE",
"-20 0 LINE"
);
},
{
closed = 1;
nodes = (
"348 532 LINE",
"348 253 LINE",
"197 253 LINE"
);
}
);
width = 771;
},
{
anchors = (
{
name = bottom;
position = "{575, 0}";
},
{
name = top;
position = "{557, 682}";
}
);
background = {
components = (
{
name = A;
transform = "{1, 0, 0, 1, 42, 0}";
}
);
};
layerId = "63224BA1-30A4-42F4-A6D1-9160F56B91B0";
paths = (
{
closed = 1;
nodes = (
"70 0 LINE",
"398 562 LINE",
"398 253 LINE",
"191 253 LINE",
"157 198 LINE",
"398 198 LINE",
"398 0 LINE",
"783 0 LINE",
"783 62 LINE",
"472 62 LINE",
"472 340 LINE",
"712 340 LINE",
"712 401 LINE",
"472 401 LINE",
"472 619 LINE",
"780 619 LINE",
"780 682 LINE",
"398 682 LINE",
"398 680 LINE",
"0 0 LINE"
);
}
);
width = 822;
}
);
rightMetricsKey = E;
unicode = 00C6;
},
{
color = 5;
glyphname = B;
layers = (
{
anchors = (
{
name = above;
position = "{259, 726}";
},
{
name = below;
position = "{278, 0}";
}
);
layerId = UUID0;
paths = (
{
closed = 1;
nodes = (
"300 0 LINE SMOOTH",
"389 0 OFFCURVE",
"456 29 OFFCURVE",
"500 88 CURVE SMOOTH",
"524 119 OFFCURVE",
"536 158 OFFCURVE",
"536 203 CURVE SMOOTH",
"536 260 OFFCURVE",
"514 307 OFFCURVE",
"469 343 CURVE",
"451 356 OFFCURVE",
"431 367 OFFCURVE",
"410 376 CURVE",
"463 409 OFFCURVE",
"490 454 OFFCURVE",
"490 513 CURVE SMOOTH",
"490 559 OFFCURVE",
"471 599 OFFCURVE",
"432 632 CURVE SMOOTH",
"394 665 OFFCURVE",
"341 682 OFFCURVE",
"274 682 CURVE SMOOTH",
"79 682 LINE",
"79 0 LINE"
);
},
{
closed = 1;
nodes = (
"154 338 LINE",
"300 338 LINE",
"392 338 OFFCURVE",
"454 286 OFFCURVE",
"454 199 CURVE SMOOTH",
"454 114 OFFCURVE",
"388 62 OFFCURVE",
"295 62 CURVE SMOOTH",
"154 62 LINE"
);
},
{
closed = 1;
nodes = (
"154 619 LINE",
"275 619 LINE",
"362 619 OFFCURVE",
"408 572 OFFCURVE",
"408 508 CURVE SMOOTH",
"408 445 OFFCURVE",
"354 401 OFFCURVE",
"277 401 CURVE SMOOTH",
"154 401 LINE"
);
}
);
width = 574;
},
{
anchors = (
{
name = bottom;
position = "{287, 0}";
},
{
name = top;
position = "{287, 682}";
}
);
background = {
paths = (
{
closed = 1;
nodes = (
"79 0 LINE",
"327 0 LINE SMOOTH",
"456 0 OFFCURVE",
"533 75 OFFCURVE",
"533 201 CURVE SMOOTH",
"533 327 OFFCURVE",
"454 401 OFFCURVE",
"319 401 CURVE SMOOTH",
"154 401 LINE",
"154 682 LINE",
"79 682 LINE"
);
},
{
closed = 1;
nodes = (
"154 339 LINE",
"317 339 LINE SMOOTH",
"403 339 OFFCURVE",
"454 288 OFFCURVE",
"454 201 CURVE SMOOTH",
"454 114 OFFCURVE",
"403 62 OFFCURVE",
"317 62 CURVE",
"154 62 LINE"
);
},
{
closed = 1;
nodes = (
"90 359 LINE",
"321 359 LINE SMOOTH",
"437 359 OFFCURVE",
"509 416 OFFCURVE",
"509 511 CURVE SMOOTH",
"509 618 OFFCURVE",
"436 682 OFFCURVE",
"314 682 CURVE SMOOTH",
"90 682 LINE"
);
},
{
closed = 1;
nodes = (
"154 619 LINE",
"313 619 LINE SMOOTH",
"386 619 OFFCURVE",
"430 579 OFFCURVE",
"430 511 CURVE SMOOTH",
"430 443 OFFCURVE",
"386 401 OFFCURVE",
"313 401 CURVE",
"154 401 LINE"
);
}
);
};
layerId = "63224BA1-30A4-42F4-A6D1-9160F56B91B0";
paths = (
{
closed = 1;
nodes = (
"327 0 LINE SMOOTH",
"456 0 OFFCURVE",
"533 75 OFFCURVE",
"533 196 CURVE SMOOTH",
"533 299 OFFCURVE",
"478 357 OFFCURVE",
"389 371 CURVE",
"390 360 LINE",
"459 380 OFFCURVE",
"499 431 OFFCURVE",
"499 508 CURVE SMOOTH",
"499 612 OFFCURVE",
"426 682 OFFCURVE",
"304 682 CURVE SMOOTH",
"79 682 LINE",
"79 0 LINE"
);
},
{
closed = 1;
nodes = (
"154 329 LINE",
"317 329 LINE SMOOTH",
"403 329 OFFCURVE",
"454 278 OFFCURVE",
"454 196 CURVE SMOOTH",
"454 114 OFFCURVE",
"403 62 OFFCURVE",
"317 62 CURVE SMOOTH",
"154 62 LINE"
);
},
{
closed = 1;
nodes = (
"154 619 LINE",
"303 619 LINE SMOOTH",
"376 619 OFFCURVE",
"420 579 OFFCURVE",
"420 508 CURVE SMOOTH",
"420 433 OFFCURVE",
"386 391 OFFCURVE",
"313 391 CURVE SMOOTH",
"154 391 LINE"
);
}
);
width = 574;
}
);
unicode = 0042;
},
{
color = 6;
glyphname = Bhook;
layers = (
{
layerId = UUID0;
paths = (
{
closed = 1;
nodes = (
"423 0 LINE SMOOTH",
"512 0 OFFCURVE",
"579 29 OFFCURVE",
"623 88 CURVE SMOOTH",
"647 119 OFFCURVE",
"659 158 OFFCURVE",
"659 203 CURVE SMOOTH",
"659 260 OFFCURVE",
"637 307 OFFCURVE",
"592 343 CURVE",
"574 356 OFFCURVE",
"554 367 OFFCURVE",
"533 376 CURVE",
"586 409 OFFCURVE",
"613 454 OFFCURVE",
"613 513 CURVE SMOOTH",
"613 559 OFFCURVE",
"594 599 OFFCURVE",
"556 632 CURVE SMOOTH",
"517 665 OFFCURVE",
"464 682 OFFCURVE",
"397 682 CURVE SMOOTH",
"256 682 LINE",
"202 682 LINE",
"176 682 LINE SMOOTH",
"134 682 OFFCURVE",
"99 668 OFFCURVE",
"70 639 CURVE SMOOTH",
"41 610 OFFCURVE",
"27 575 OFFCURVE",
"27 534 CURVE SMOOTH",
"27 426 LINE",
"90 426 LINE",
"90 534 LINE SMOOTH",
"90 557 OFFCURVE",
"98 576 OFFCURVE",
"115 591 CURVE SMOOTH",
"132 606 OFFCURVE",
"152 614 OFFCURVE",
"176 614 CURVE SMOOTH",
"202 614 LINE",
"202 0 LINE"
);
},
{
closed = 1;
nodes = (
"277 338 LINE",
"423 338 LINE",
"469 338 OFFCURVE",
"506 326 OFFCURVE",
"535 301 CURVE SMOOTH",
"563 276 OFFCURVE",
"577 242 OFFCURVE",
"577 199 CURVE SMOOTH",
"577 156 OFFCURVE",
"562 123 OFFCURVE",
"533 98 CURVE",
"503 74 OFFCURVE",
"465 62 OFFCURVE",
"418 62 CURVE SMOOTH",
"277 62 LINE"
);
},
{
closed = 1;
nodes = (
"277 619 LINE",
"398 619 LINE",
"441 619 OFFCURVE",
"474 608 OFFCURVE",
"497 587 CURVE SMOOTH",
"520 566 OFFCURVE",
"531 540 OFFCURVE",
"531 508 CURVE SMOOTH",
"531 477 OFFCURVE",
"519 451 OFFCURVE",
"495 431 CURVE SMOOTH",
"470 411 OFFCURVE",
"439 401 OFFCURVE",
"400 401 CURVE SMOOTH",
"277 401 LINE"
);
}
);
width = 697;
},
{
background = {
components = (
{
name = B;
transform = "{1, 0, 0, 1, 123, 0}";
}
);
};
components = (
{
name = B;
transform = "{1, 0, 0, 1, 123, 0}";
}
);
layerId = "63224BA1-30A4-42F4-A6D1-9160F56B91B0";
paths = (
{
closed = 1;
nodes = (
"218 682 LINE",
"176 682 LINE SMOOTH",
"91 682 OFFCURVE",
"27 616 OFFCURVE",
"27 534 CURVE SMOOTH",
"27 426 LINE",
"90 426 LINE",
"90 534 LINE SMOOTH",
"90 582 OFFCURVE",
"129 614 OFFCURVE",
"176 614 CURVE SMOOTH",
"218 614 LINE"
);
}
);
width = 697;
}
);
rightMetricsKey = B;
unicode = 0181;
},
{
color = 6;
glyphname = Bstroke;
layers = (
{
layerId = UUID0;
paths = (
{
closed = 1;
nodes = (
"299 0 LINE SMOOTH",
"363 0 OFFCURVE",
"418 17 OFFCURVE",
"465 52 CURVE SMOOTH",
"512 87 OFFCURVE",
"536 136 OFFCURVE",
"536 200 CURVE SMOOTH",
"536 287 OFFCURVE",
"488 346 OFFCURVE",
"415 377 CURVE",
"465 410 OFFCURVE",
"490 455 OFFCURVE",
"490 511 CURVE SMOOTH",
"490 561 OFFCURVE",
"470 602 OFFCURVE",
"429 634 CURVE SMOOTH",
"389 666 OFFCURVE",
"340 682 OFFCURVE",
"281 682 CURVE SMOOTH",
"79 682 LINE",
"79 232 LINE",
"43 232 LINE",
"43 184 LINE",
"79 184 LINE",
"79 0 LINE"
);
},
{
closed = 1;
nodes = (
"154 184 LINE",
"315 184 LINE",
"315 232 LINE",
"154 232 LINE",
"154 338 LINE",
"297 338 LINE SMOOTH",
"388 338 OFFCURVE",
"454 289 OFFCURVE",
"454 200 CURVE SMOOTH",
"454 112 OFFCURVE",
"386 62 OFFCURVE",
"297 62 CURVE SMOOTH",
"154 62 LINE"
);
},
{
closed = 1;
nodes = (
"154 619 LINE",
"281 619 LINE",
"362 619 OFFCURVE",
"408 568 OFFCURVE",
"408 511 CURVE SMOOTH",
"408 452 OFFCURVE",
"362 401 OFFCURVE",
"281 401 CURVE SMOOTH",
"154 401 LINE"
);
}
);
width = 574;
},
{
layerId = "63224BA1-30A4-42F4-A6D1-9160F56B91B0";
paths = (
{
closed = 1;
nodes = (
"299 0 LINE SMOOTH",
"363 0 OFFCURVE",
"418 17 OFFCURVE",
"465 52 CURVE SMOOTH",
"512 87 OFFCURVE",
"536 136 OFFCURVE",
"536 200 CURVE SMOOTH",
"536 287 OFFCURVE",
"488 346 OFFCURVE",
"415 377 CURVE",
"465 410 OFFCURVE",
"490 455 OFFCURVE",
"490 511 CURVE SMOOTH",
"490 561 OFFCURVE",
"470 602 OFFCURVE",
"429 634 CURVE SMOOTH",
"389 666 OFFCURVE",
"340 682 OFFCURVE",
"281 682 CURVE SMOOTH",
"79 682 LINE",
"79 232 LINE",
"43 232 LINE",
"43 184 LINE",
"79 184 LINE",
"79 0 LINE"
);
},
{
closed = 1;
nodes = (
"154 184 LINE",
"315 184 LINE",
"315 232 LINE",
"154 232 LINE",
"154 338 LINE",
"297 338 LINE SMOOTH",
"388 338 OFFCURVE",
"454 289 OFFCURVE",
"454 200 CURVE SMOOTH",
"454 112 OFFCURVE",
"386 62 OFFCURVE",
"297 62 CURVE SMOOTH",
"154 62 LINE"
);
},
{
closed = 1;
nodes = (
"154 619 LINE",
"281 619 LINE",
"362 619 OFFCURVE",
"408 568 OFFCURVE",
"408 511 CURVE SMOOTH",
"408 452 OFFCURVE",
"362 401 OFFCURVE",
"281 401 CURVE SMOOTH",
"154 401 LINE"
);
}
);
width = 574;
}
);
unicode = 0243;
},
{
color = 5;
glyphname = C;
layers = (
{
anchors = (
{
name = above;
position = "{320, 726}";
},
{
name = below;
position = "{317, 0}";
}
);
layerId = UUID0;
paths = (
{
closed = 1;
nodes = (
"407 -16 OFFCURVE",
"483 37 OFFCURVE",
"544 144 CURVE",
"479 179 LINE",
"434 95 OFFCURVE",
"380 53 OFFCURVE",
"317 53 CURVE SMOOTH",
"258 53 OFFCURVE",
"210 81 OFFCURVE",
"173 138 CURVE SMOOTH",
"136 195 OFFCURVE",
"118 262 OFFCURVE",
"118 340 CURVE SMOOTH",
"118 418 OFFCURVE",
"137 486 OFFCURVE",
"174 543 CURVE SMOOTH",
"211 600 OFFCURVE",
"259 629 OFFCURVE",
"317 629 CURVE SMOOTH",
"374 629 OFFCURVE",
"426 591 OFFCURVE",
"473 515 CURVE",
"532 557 LINE",
"471 650 OFFCURVE",
"400 697 OFFCURVE",
"317 697 CURVE SMOOTH",
"241 697 OFFCURVE",
"176 662 OFFCURVE",
"122 591 CURVE SMOOTH",
"69 520 OFFCURVE",
"42 436 OFFCURVE",
"42 339 CURVE SMOOTH",
"42 242 OFFCURVE",
"69 159 OFFCURVE",
"122 89 CURVE SMOOTH",
"176 19 OFFCURVE",
"241 -16 OFFCURVE",
"317 -16 CURVE SMOOTH"
);
}
);
width = 570;
},
{
anchors = (
{
name = bottom;
position = "{333, 0}";
},
{
name = top;
position = "{327, 682}";
}
);
background = {
components = (
{
name = O;
transform = "{1, 0, 0, 1, -1, 0}";
}
);
};
layerId = "63224BA1-30A4-42F4-A6D1-9160F56B91B0";
paths = (
{
closed = 1;
nodes = (
"445 -16 OFFCURVE",
"523 43 OFFCURVE",
"570 144 CURVE",
"507 182 LINE",
"467 103 OFFCURVE",
"425 52 OFFCURVE",
"323 52 CURVE SMOOTH",
"208 52 OFFCURVE",
"134 160 OFFCURVE",
"134 340 CURVE SMOOTH",
"134 522 OFFCURVE",
"205 629 OFFCURVE",
"324 629 CURVE SMOOTH",
"405 629 OFFCURVE",
"460 599 OFFCURVE",
"504 519 CURVE",
"564 554 LINE",
"520 643 OFFCURVE",
"439 697 OFFCURVE",
"324 697 CURVE SMOOTH",
"157 697 OFFCURVE",
"55 564 OFFCURVE",
"55 339 CURVE SMOOTH",
"55 116 OFFCURVE",
"160 -16 OFFCURVE",
"333 -16 CURVE SMOOTH"
);
}
);
width = 605;
}
);
leftMetricsKey = O;
unicode = 0043;
},
{
color = 5;
glyphname = Ccedilla;
layers = (
{
layerId = UUID0;
paths = (
{
closed = 1;
nodes = (
"359 -200 OFFCURVE",
"427 -175 OFFCURVE",
"427 -125 CURVE SMOOTH",
"427 -111 OFFCURVE",
"418 -98 OFFCURVE",
"400 -86 CURVE SMOOTH",
"382 -74 OFFCURVE",
"355 -68 OFFCURVE",
"319 -68 CURVE",
"346 -14 LINE",
"424 -5 OFFCURVE",
"491 48 OFFCURVE",
"546 144 CURVE",
"481 179 LINE",
"436 95 OFFCURVE",
"382 53 OFFCURVE",
"319 53 CURVE SMOOTH",
"260 53 OFFCURVE",
"213 81 OFFCURVE",
"176 138 CURVE SMOOTH",
"139 195 OFFCURVE",
"120 262 OFFCURVE",
"120 340 CURVE SMOOTH",
"120 418 OFFCURVE",
"139 486 OFFCURVE",
"176 543 CURVE SMOOTH",
"213 600 OFFCURVE",
"261 629 OFFCURVE",
"319 629 CURVE SMOOTH",
"376 629 OFFCURVE",
"428 591 OFFCURVE",
"475 515 CURVE",
"534 557 LINE",
"473 650 OFFCURVE",
"402 697 OFFCURVE",
"319 697 CURVE SMOOTH",
"243 697 OFFCURVE",
"178 662 OFFCURVE",
"125 591 CURVE SMOOTH",
"71 520 OFFCURVE",
"44 437 OFFCURVE",
"44 340 CURVE SMOOTH",
"44 243 OFFCURVE",
"71 159 OFFCURVE",
"125 89 CURVE SMOOTH",
"172 27 OFFCURVE",
"229 -7 OFFCURVE",
"295 -14 CURVE",
"254 -103 LINE",
"285 -103 OFFCURVE",
"308 -104 OFFCURVE",
"324 -106 CURVE SMOOTH",
"340 -108 OFFCURVE",
"350 -111 OFFCURVE",
"354 -115 CURVE SMOOTH",
"359 -119 OFFCURVE",
"361 -124 OFFCURVE",
"361 -131 CURVE SMOOTH",
"361 -144 OFFCURVE",
"346 -154 OFFCURVE",
"316 -162 CURVE SMOOTH",
"286 -169 OFFCURVE",
"255 -173 OFFCURVE",
"222 -173 CURVE",
"222 -200 LINE"
);
}
);
width = 572;
},
{
components = (
{
name = C;
},
{
name = cedillacomb;
transform = "{1, 0, 0, 1, 180, 0}";
}
);
layerId = "63224BA1-30A4-42F4-A6D1-9160F56B91B0";
width = 605;
}
);
unicode = 00C7;
},
{
color = 6;
glyphname = Chook;
layers = (
{
layerId = UUID0;
paths = (
{
closed = 1;
nodes = (
"409 -16 OFFCURVE",
"485 37 OFFCURVE",
"546 144 CURVE",
"481 179 LINE",
"436 95 OFFCURVE",
"382 53 OFFCURVE",
"319 53 CURVE SMOOTH",
"260 53 OFFCURVE",
"213 81 OFFCURVE",
"176 138 CURVE SMOOTH",
"139 195 OFFCURVE",
"120 262 OFFCURVE",
"120 340 CURVE SMOOTH",
"120 418 OFFCURVE",
"139 486 OFFCURVE",
"176 543 CURVE SMOOTH",
"213 600 OFFCURVE",
"261 629 OFFCURVE",
"319 629 CURVE SMOOTH",
"376 629 OFFCURVE",
"428 591 OFFCURVE",
"475 515 CURVE",
"534 557 LINE",
"534 612 LINE SMOOTH",
"534 634 OFFCURVE",
"543 653 OFFCURVE",
"560 669 CURVE SMOOTH",
"576 684 OFFCURVE",
"596 692 OFFCURVE",
"620 692 CURVE",
"620 760 LINE",
"579 760 OFFCURVE",
"544 746 OFFCURVE",
"515 717 CURVE SMOOTH",
"491 693 OFFCURVE",
"477 665 OFFCURVE",
"473 632 CURVE",
"427 675 OFFCURVE",
"376 697 OFFCURVE",
"319 697 CURVE SMOOTH",
"243 697 OFFCURVE",
"178 662 OFFCURVE",
"125 591 CURVE SMOOTH",
"71 520 OFFCURVE",
"44 437 OFFCURVE",
"44 340 CURVE SMOOTH",
"44 243 OFFCURVE",
"71 159 OFFCURVE",
"125 89 CURVE SMOOTH",
"178 19 OFFCURVE",
"243 -16 OFFCURVE",
"319 -16 CURVE SMOOTH"
);
}
);
width = 572;
},
{
background = {
components = (
{
name = C;
}
);
};
components = (
{
name = C;
}
);
layerId = "63224BA1-30A4-42F4-A6D1-9160F56B91B0";
paths = (
{
closed = 1;
nodes = (
"564 554 LINE",
"564 612 LINE SMOOTH",
"564 654 OFFCURVE",
"600 692 OFFCURVE",
"650 692 CURVE",
"650 760 LINE",
"568 760 OFFCURVE",
"504 698 OFFCURVE",
"502 615 CURVE"
);
}
);
width = 685;
}
);
leftMetricsKey = O;
rightMetricsKey = C;
unicode = 0187;
},
{
color = 6;
glyphname = Cstroke;
layers = (
{
layerId = UUID0;
paths = (
{
closed = 1;
nodes = (
"187 27 LINE",
"226 -2 OFFCURVE",
"270 -16 OFFCURVE",
"319 -16 CURVE SMOOTH",
"409 -16 OFFCURVE",
"485 37 OFFCURVE",
"546 144 CURVE",
"481 179 LINE",
"436 95 OFFCURVE",
"382 53 OFFCURVE",
"319 53 CURVE SMOOTH",
"280 53 OFFCURVE",
"246 65 OFFCURVE",
"217 90 CURVE",
"438 565 LINE",
"451 551 OFFCURVE",
"463 534 OFFCURVE",
"475 515 CURVE",
"534 557 LINE",
"514 588 OFFCURVE",
"493 613 OFFCURVE",
"470 634 CURVE",
"505 709 LINE",
"459 730 LINE",
"429 666 LINE",
"395 687 OFFCURVE",
"358 697 OFFCURVE",
"319 697 CURVE SMOOTH",
"243 697 OFFCURVE",
"178 662 OFFCURVE",
"125 591 CURVE SMOOTH",
"71 520 OFFCURVE",
"44 437 OFFCURVE",
"44 340 CURVE SMOOTH",
"44 243 OFFCURVE",
"71 159 OFFCURVE",
"125 89 CURVE SMOOTH",
"132 80 OFFCURVE",
"140 71 OFFCURVE",
"148 62 CURVE",
"108 -23 LINE",
"154 -45 LINE"
);
},
{
closed = 1;
nodes = (
"179 133 OFFCURVE",
"177 135 OFFCURVE",
"176 138 CURVE",
"139 195 OFFCURVE",
"120 262 OFFCURVE",
"120 340 CURVE SMOOTH",
"120 418 OFFCURVE",
"139 486 OFFCURVE",
"176 543 CURVE SMOOTH",
"213 600 OFFCURVE",
"261 629 OFFCURVE",
"319 629 CURVE SMOOTH",
"347 629 OFFCURVE",
"374 620 OFFCURVE",
"399 602 CURVE",
"180 131 LINE"
);
}
);
width = 572;
},
{
background = {
paths = (
{
closed = 1;
nodes = (
"154 -45 LINE",
"505 709 LINE",
"459 730 LINE",
"108 -23 LINE"
);
}
);
};
components = (
{
name = C;
}
);
layerId = "63224BA1-30A4-42F4-A6D1-9160F56B91B0";
paths = (
{
closed = 1;
nodes = (
"154 -45 LINE",
"505 709 LINE",
"459 730 LINE",
"108 -23 LINE"
);
}
);
width = 605;
}
);
unicode = 023B;
},
{
color = 5;
glyphname = D;
layers = (
{
anchors = (
{
name = above;
position = "{273, 726}";
},
{
name = below;
position = "{210, 0}";
}
);
layerId = UUID0;
paths = (
{
closed = 1;
nodes = (
"228 0 LINE",
"316 0 OFFCURVE",
"396 27 OFFCURVE",
"460 80 CURVE SMOOTH",
"525 133 OFFCURVE",
"565 225 OFFCURVE",
"565 340 CURVE SMOOTH",
"565 455 OFFCURVE",
"525 548 OFFCURVE",
"460 601 CURVE SMOOTH",
"396 654 OFFCURVE",
"316 682 OFFCURVE",
"228 682 CURVE SMOOTH",
"79 682 LINE",
"79 0 LINE"
);
},
{
closed = 1;
nodes = (
"154 613 LINE",
"206 613 LINE",
"385 613 OFFCURVE",
"486 525 OFFCURVE",
"486 340 CURVE SMOOTH",
"486 156 OFFCURVE",
"385 68 OFFCURVE",
"206 68 CURVE SMOOTH",
"154 68 LINE"
);
}
);
width = 607;
},
{
anchors = (
{
name = bottom;
position = "{301, 0}";
},
{
name = center;
position = "{141, 341}";
},
{
name = top;
position = "{241, 682}";
}
);
layerId = "63224BA1-30A4-42F4-A6D1-9160F56B91B0";
paths = (
{
closed = 1;
nodes = (
"249 0 LINE",
"461 0 OFFCURVE",
"586 126 OFFCURVE",
"586 340 CURVE SMOOTH",
"586 555 OFFCURVE",
"461 682 OFFCURVE",
"249 682 CURVE SMOOTH",
"80 682 LINE",
"80 0 LINE"
);
},
{
closed = 1;
nodes = (
"155 613 LINE",
"247 613 LINE SMOOTH",
"403 613 OFFCURVE",
"507 532 OFFCURVE",
"507 340 CURVE SMOOTH",
"507 149 OFFCURVE",
"403 68 OFFCURVE",
"247 68 CURVE SMOOTH",
"155 68 LINE"
);
}
);
width = 641;
}
);
leftMetricsKey = H;
rightMetricsKey = O;
unicode = 0044;
},
{
color = 5;
glyphname = Eth;
layers = (
{
layerId = UUID0;
paths = (
{
closed = 1;
nodes = (
"229 0 LINE SMOOTH",
"274 0 OFFCURVE",
"316 7 OFFCURVE",
"355 20 CURVE SMOOTH",
"394 33 OFFCURVE",
"430 53 OFFCURVE",
"462 80 CURVE SMOOTH",
"495 107 OFFCURVE",
"520 142 OFFCURVE",
"539 187 CURVE SMOOTH",
"558 232 OFFCURVE",
"567 283 OFFCURVE",
"567 340 CURVE SMOOTH",
"567 397 OFFCURVE",
"558 448 OFFCURVE",
"539 493 CURVE SMOOTH",
"520 538 OFFCURVE",
"495 574 OFFCURVE",
"462 601 CURVE SMOOTH",
"430 628 OFFCURVE",
"394 648 OFFCURVE",
"355 661 CURVE SMOOTH",
"316 675 OFFCURVE",
"274 682 OFFCURVE",
"229 682 CURVE SMOOTH",
"81 682 LINE",
"81 371 LINE",
"21 371 LINE",
"21 309 LINE",
"81 309 LINE",
"81 0 LINE"
);
},
{
closed = 1;
nodes = (
"156 309 LINE",
"283 309 LINE",
"283 371 LINE",
"156 371 LINE",
"156 613 LINE",
"208 613 LINE SMOOTH",
"297 613 OFFCURVE",
"366 591 OFFCURVE",
"415 546 CURVE SMOOTH",
"464 501 OFFCURVE",
"488 433 OFFCURVE",
"488 340 CURVE SMOOTH",
"488 248 OFFCURVE",
"464 180 OFFCURVE",
"415 135 CURVE SMOOTH",
"366 90 OFFCURVE",
"297 68 OFFCURVE",
"208 68 CURVE SMOOTH",
"156 68 LINE"
);
}
);
width = 611;
},
{
components = (
{
name = D;
},
{
name = strokeshortcomb;
transform = "{1, 0, 0, 1, -40, 72}";
}
);
layerId = "63224BA1-30A4-42F4-A6D1-9160F56B91B0";
width = 641;
}
);
unicode = 00D0;
},
{
color = 6;
glyphname = Dcedilla;
layers = (
{
layerId = UUID0;
paths = (
{
closed = 1;
nodes = (
"233 -200 OFFCURVE",
"301 -175 OFFCURVE",
"301 -125 CURVE SMOOTH",
"301 -97 OFFCURVE",
"266 -68 OFFCURVE",
"194 -68 CURVE",
"227 0 LINE",
"228 0 LINE",
"316 0 OFFCURVE",
"396 27 OFFCURVE",
"460 80 CURVE SMOOTH",
"525 133 OFFCURVE",
"565 225 OFFCURVE",
"565 340 CURVE SMOOTH",
"565 455 OFFCURVE",
"525 548 OFFCURVE",
"460 601 CURVE SMOOTH",
"396 654 OFFCURVE",
"316 682 OFFCURVE",
"228 682 CURVE SMOOTH",
"79 682 LINE",
"79 0 LINE",
"176 0 LINE",
"128 -103 LINE",
"222 -103 OFFCURVE",
"236 -111 OFFCURVE",
"236 -131 CURVE SMOOTH",
"236 -144 OFFCURVE",
"221 -154 OFFCURVE",
"191 -161 CURVE SMOOTH",
"161 -169 OFFCURVE",
"129 -173 OFFCURVE",
"96 -173 CURVE",
"96 -200 LINE"
);
},
{
closed = 1;
nodes = (
"154 613 LINE",
"206 613 LINE",
"385 613 OFFCURVE",
"486 525 OFFCURVE",
"486 340 CURVE SMOOTH",
"486 156 OFFCURVE",
"385 68 OFFCURVE",
"206 68 CURVE SMOOTH",
"154 68 LINE"
);
}
);
width = 609;
},
{
components = (
{
name = D;
},
{
alignment = -1;
name = cedillacomb;
transform = "{1, 0, 0, 1, 48, 0}";
}
);
layerId = "63224BA1-30A4-42F4-A6D1-9160F56B91B0";
width = 641;
}
);
unicode = 1E10;
},
{
color = 6;
glyphname = Dhook;
layers = (
{
layerId = UUID0;
paths = (
{
closed = 1;
nodes = (
"351 0 LINE SMOOTH",
"395 0 OFFCURVE",
"437 7 OFFCURVE",
"476 20 CURVE SMOOTH",
"515 33 OFFCURVE",
"551 53 OFFCURVE",
"583 80 CURVE SMOOTH",
"616 107 OFFCURVE",
"641 142 OFFCURVE",
"660 187 CURVE SMOOTH",
"679 232 OFFCURVE",
"688 283 OFFCURVE",
"688 340 CURVE SMOOTH",
"688 397 OFFCURVE",
"679 448 OFFCURVE",
"660 493 CURVE SMOOTH",
"641 538 OFFCURVE",
"616 574 OFFCURVE",
"583 601 CURVE SMOOTH",
"551 628 OFFCURVE",
"515 648 OFFCURVE",
"476 661 CURVE SMOOTH",
"437 675 OFFCURVE",
"395 682 OFFCURVE",
"351 682 CURVE SMOOTH",
"256 682 LINE",
"202 682 LINE",
"176 682 LINE SMOOTH",
"134 682 OFFCURVE",
"99 668 OFFCURVE",
"70 639 CURVE SMOOTH",
"41 610 OFFCURVE",
"27 575 OFFCURVE",
"27 534 CURVE SMOOTH",
"27 426 LINE",
"90 426 LINE",
"90 534 LINE SMOOTH",
"90 557 OFFCURVE",
"98 576 OFFCURVE",
"115 591 CURVE SMOOTH",
"132 606 OFFCURVE",
"152 614 OFFCURVE",
"176 614 CURVE SMOOTH",
"202 614 LINE",
"202 0 LINE"
);
},
{
closed = 1;
nodes = (
"277 613 LINE",
"329 613 LINE",
"418 613 OFFCURVE",
"487 591 OFFCURVE",
"536 546 CURVE SMOOTH",
"585 501 OFFCURVE",
"609 433 OFFCURVE",
"609 340 CURVE SMOOTH",
"609 248 OFFCURVE",
"585 180 OFFCURVE",
"536 135 CURVE SMOOTH",
"487 90 OFFCURVE",
"418 68 OFFCURVE",
"329 68 CURVE SMOOTH",
"277 68 LINE"
);
}
);
width = 732;
},
{
background = {
components = (
{
name = Bhook;
}
);
};
components = (
{
name = D;
transform = "{1, 0, 0, 1, 122, 0}";
}
);
layerId = "63224BA1-30A4-42F4-A6D1-9160F56B91B0";
paths = (
{
closed = 1;
nodes = (
"218 682 LINE",
"176 682 LINE SMOOTH",
"91 682 OFFCURVE",
"27 616 OFFCURVE",
"27 534 CURVE SMOOTH",
"27 426 LINE",
"90 426 LINE",
"90 534 LINE SMOOTH",
"90 582 OFFCURVE",
"129 614 OFFCURVE",
"176 614 CURVE SMOOTH",
"218 614 LINE"
);
}
);
width = 763;
}
);
rightMetricsKey = D;
unicode = 018A;
},
{
color = 5;
glyphname = E;
layers = (
{
anchors = (
{
name = above;
position = "{285, 726}";
},
{
name = below;
position = "{285, 0}";
},
{
name = ogonek;
position = "{417, 0}";
}
);
layerId = UUID0;
paths = (
{
closed = 1;
nodes = (
"464 0 LINE",
"464 62 LINE",
"154 62 LINE",
"154 340 LINE",
"394 340 LINE",
"394 401 LINE",
"154 401 LINE",
"154 619 LINE",
"461 619 LINE",
"461 682 LINE",
"79 682 LINE",
"79 0 LINE"
);
}
);
width = 503;
},
{
anchors = (
{
name = bottom;
position = "{272, 0}";
},
{
name = ogonek;
position = "{434, 0}";
},
{
name = top;
position = "{282, 682}";
},
{
name = topleft;
position = "{20, 682}";
}
);
layerId = "63224BA1-30A4-42F4-A6D1-9160F56B91B0";
paths = (
{
closed = 1;
nodes = (
"464 0 LINE",
"464 62 LINE",
"154 62 LINE",
"154 320 LINE",
"394 320 LINE",
"394 381 LINE",
"154 381 LINE",
"154 619 LINE",
"461 619 LINE",
"461 682 LINE",
"79 682 LINE",
"79 0 LINE"
);
}
);
width = 503;
}
);
unicode = 0045;
},
{
color = 6;
glyphname = Ecedilla;
layers = (
{
layerId = UUID0;
paths = (
{
closed = 1;
nodes = (
"303 -200 OFFCURVE",
"371 -175 OFFCURVE",
"371 -125 CURVE SMOOTH",
"371 -97 OFFCURVE",
"335 -68 OFFCURVE",
"264 -68 CURVE",
"297 0 LINE",
"464 0 LINE",
"464 62 LINE",
"154 62 LINE",
"154 340 LINE",
"394 340 LINE",
"394 401 LINE",
"154 401 LINE",
"154 619 LINE",
"461 619 LINE",
"461 682 LINE",
"79 682 LINE",
"79 0 LINE",
"246 0 LINE",
"198 -103 LINE",
"292 -103 OFFCURVE",
"306 -111 OFFCURVE",
"306 -131 CURVE SMOOTH",
"306 -144 OFFCURVE",
"291 -154 OFFCURVE",
"261 -161 CURVE SMOOTH",
"231 -169 OFFCURVE",
"199 -173 OFFCURVE",
"166 -173 CURVE",
"166 -200 LINE"
);
}
);
width = 503;
},
{
components = (
{
name = E;
},
{
name = cedillacomb;
transform = "{1, 0, 0, 1, 119, 0}";
}
);
layerId = "63224BA1-30A4-42F4-A6D1-9160F56B91B0";
width = 503;
}
);
unicode = 0228;
},
{
color = 5;
glyphname = Eogonek;
layers = (
{
anchors = (
{
name = above;
position = "{285, 726}";
}
);
layerId = UUID0;
paths = (
{
closed = 1;
nodes = (
"427 -186 OFFCURVE",
"462 -181 OFFCURVE",
"501 -170 CURVE",
"494 -144 LINE",
"476 -148 OFFCURVE",
"458 -150 OFFCURVE",
"440 -150 CURVE SMOOTH",
"371 -150 OFFCURVE",
"337 -127 OFFCURVE",
"337 -82 CURVE SMOOTH",
"337 -58 OFFCURVE",
"341 -40 OFFCURVE",
"350 -29 CURVE SMOOTH",
"358 -18 OFFCURVE",
"376 -9 OFFCURVE",
"403 0 CURVE",
"464 0 LINE",
"464 62 LINE",
"154 62 LINE",
"154 340 LINE",
"394 340 LINE",
"394 401 LINE",
"154 401 LINE",
"154 619 LINE",
"461 619 LINE",
"461 682 LINE",
"79 682 LINE",
"79 0 LINE",
"324 0 LINE",
"289 -20 OFFCURVE",
"271 -50 OFFCURVE",
"271 -91 CURVE SMOOTH",
"271 -154 OFFCURVE",
"313 -186 OFFCURVE",
"397 -186 CURVE SMOOTH"
);
}
);
width = 503;
},
{
components = (
{
name = E;
},
{
name = ogonekcomb;
transform = "{1, 0, 0, 1, 252, 0}";
}
);
layerId = "63224BA1-30A4-42F4-A6D1-9160F56B91B0";
width = 503;
}
);
unicode = 0118;
},
{
color = 6;
glyphname = Eopen;
layers = (
{
anchors = (
{
name = above;
position = "{266, 726}";
}
);
layerId = UUID0;
paths = (
{
closed = 1;
nodes = (
"395 -16 OFFCURVE",
"457 16 OFFCURVE",
"506 79 CURVE",
"453 121 LINE",
"420 75 OFFCURVE",
"363 52 OFFCURVE",
"282 52 CURVE SMOOTH",
"237 52 OFFCURVE",
"198 65 OFFCURVE",
"167 91 CURVE SMOOTH",
"136 118 OFFCURVE",
"121 149 OFFCURVE",
"121 186 CURVE SMOOTH",
"121 269 OFFCURVE",
"189 327 OFFCURVE",
"304 327 CURVE",
"304 394 LINE",
"192 394 OFFCURVE",
"144 443 OFFCURVE",
"144 511 CURVE SMOOTH",
"144 575 OFFCURVE",
"194 630 OFFCURVE",
"267 630 CURVE SMOOTH",
"322 630 OFFCURVE",
"385 614 OFFCURVE",
"416 578 CURVE",
"466 625 LINE",
"443 649 OFFCURVE",
"413 667 OFFCURVE",
"375 679 CURVE SMOOTH",
"337 691 OFFCURVE",
"301 697 OFFCURVE",
"267 697 CURVE SMOOTH",
"210 697 OFFCURVE",
"162 681 OFFCURVE",
"125 650 CURVE SMOOTH",
"88 619 OFFCURVE",
"69 573 OFFCURVE",
"69 511 CURVE SMOOTH",
"69 447 OFFCURVE",
"95 398 OFFCURVE",
"147 365 CURVE",
"80 334 OFFCURVE",
"46 279 OFFCURVE",
"46 202 CURVE SMOOTH",
"46 133 OFFCURVE",
"68 80 OFFCURVE",
"111 41 CURVE",
"155 3 OFFCURVE",
"212 -16 OFFCURVE",
"282 -16 CURVE SMOOTH"
);
}
);
width = 516;
},
{
layerId = "63224BA1-30A4-42F4-A6D1-9160F56B91B0";
paths = (
{
closed = 1;
nodes = (
"395 -16 OFFCURVE",
"457 16 OFFCURVE",
"506 79 CURVE",
"453 121 LINE",
"420 75 OFFCURVE",
"363 52 OFFCURVE",
"282 52 CURVE SMOOTH",
"196 52 OFFCURVE",
"121 106 OFFCURVE",
"121 186 CURVE SMOOTH",
"121 269 OFFCURVE",
"185 327 OFFCURVE",
"294 327 CURVE",
"294 394 LINE",
"189 394 OFFCURVE",
"144 443 OFFCURVE",
"144 511 CURVE SMOOTH",
"144 575 OFFCURVE",
"198 630 OFFCURVE",
"277 630 CURVE SMOOTH",
"348 630 OFFCURVE",
"387 614 OFFCURVE",
"416 578 CURVE",
"466 625 LINE",
"420 673 OFFCURVE",
"356 697 OFFCURVE",
"277 697 CURVE SMOOTH",
"161 697 OFFCURVE",
"69 633 OFFCURVE",
"69 511 CURVE SMOOTH",
"69 447 OFFCURVE",
"105 398 OFFCURVE",
"177 365 CURVE",
"90 334 OFFCURVE",
"46 279 OFFCURVE",
"46 202 CURVE SMOOTH",
"46 63 OFFCURVE",
"141 -16 OFFCURVE",
"282 -16 CURVE SMOOTH"
);
}
);
width = 516;
}
);
unicode = 0190;
},
{
color = 6;
glyphname = Ereversed;
layers = (
{
anchors = (
{
name = above;
position = "{218, 726}";
}
);
layerId = UUID0;
paths = (
{
closed = 1;
nodes = (
"424 0 LINE",
"424 682 LINE",
"42 682 LINE",
"42 619 LINE",
"350 619 LINE",
"350 401 LINE",
"110 401 LINE",
"110 340 LINE",
"350 340 LINE",
"350 62 LINE",
"39 62 LINE",
"39 0 LINE"
);
}
);
width = 503;
},
{
layerId = "63224BA1-30A4-42F4-A6D1-9160F56B91B0";
paths = (
{
closed = 1;
nodes = (
"424 0 LINE",
"424 682 LINE",
"42 682 LINE",
"42 619 LINE",
"350 619 LINE",
"350 401 LINE",
"110 401 LINE",
"110 340 LINE",
"350 340 LINE",
"350 62 LINE",
"39 62 LINE",
"39 0 LINE"
);
}
);
width = 503;
}
);
unicode = 018E;
},
{
color = 6;
glyphname = Esh;
layers = (
{
layerId = UUID0;
paths = (
{
closed = 1;
nodes = (
"469 0 LINE",
"469 62 LINE",
"128 62 LINE",
"299 336 LINE",
"122 620 LINE",
"469 620 LINE",
"469 682 LINE",
"43 682 LINE",
"43 607 LINE",
"213 336 LINE",
"43 63 LINE",
"43 0 LINE"
);
}
);
width = 498;
},
{
layerId = "63224BA1-30A4-42F4-A6D1-9160F56B91B0";
paths = (
{
closed = 1;
nodes = (
"469 0 LINE",
"469 62 LINE",
"123 62 LINE",
"294 336 LINE",
"117 620 LINE",
"469 620 LINE",
"469 682 LINE",
"43 682 LINE",
"43 607 LINE",
"213 336 LINE",
"43 63 LINE",
"43 0 LINE"
);
}
);
width = 498;
}
);
unicode = 01A9;
},
{
color = 6;
glyphname = Ezh;
layers = (
{
components = (
{
name = "Dzeabkhasian-cy";
}
);
layerId = UUID0;
width = 530;
},
{
background = {
anchors = (
{
name = bottom;
position = "{247, 0}";
},
{
name = top;
position = "{247, 682}";
}
);
paths = (
{
closed = 1;
nodes = (
"300 355 LINE",
"489 607 LINE",
"489 682 LINE",
"83 682 LINE",
"83 620 LINE",
"429 620 LINE",
"228 355 LINE"
);
}
);
};
layerId = "63224BA1-30A4-42F4-A6D1-9160F56B91B0";
paths = (
{
closed = 1;
nodes = (
"474 620 LINE",
"474 682 LINE",
"83 682 LINE",
"83 620 LINE",
"444 620 LINE",
"428 653 LINE",
"219 399 LINE",
"219 359 LINE",
"267 359 LINE SMOOTH",
"365 359 OFFCURVE",
"429 296 OFFCURVE",
"429 198 CURVE SMOOTH",
"429 97 OFFCURVE",
"361 48 OFFCURVE",
"278 49 CURVE SMOOTH",
"193 50 OFFCURVE",
"142 101 OFFCURVE",
"105 179 CURVE",
"45 144 LINE",
"91 37 OFFCURVE",
"171 -16 OFFCURVE",
"276 -16 CURVE SMOOTH",
"404 -16 OFFCURVE",
"503 61 OFFCURVE",
"503 193 CURVE SMOOTH",
"503 309 OFFCURVE",
"427 415 OFFCURVE",
"249 397 CURVE",
"264 366 LINE"
);
}
);
width = 548;
}
);
rightMetricsKey = "Ze-cy";
unicode = 01B7;
},
{
color = 5;
glyphname = F;
layers = (
{
anchors = (
{
name = above;
position = "{282, 726}";
},
{
name = below;
position = "{217, 0}";
}
);
layerId = UUID0;
paths = (
{
closed = 1;
nodes = (
"154 0 LINE",
"154 340 LINE",
"394 340 LINE",
"394 401 LINE",
"154 401 LINE",
"154 619 LINE",
"461 619 LINE",
"461 682 LINE",
"79 682 LINE",
"79 0 LINE"
);
}
);
width = 479;
},
{
anchors = (
{
name = bottom;
position = "{120, 0}";
},
{
name = top;
position = "{276, 682}";
}
);
background = {
paths = (
{
closed = 1;
nodes = (
"464 0 LINE",
"464 62 LINE",
"154 62 LINE",
"154 320 LINE",
"394 320 LINE",
"394 381 LINE",
"154 381 LINE",
"154 619 LINE",
"461 619 LINE",
"461 682 LINE",
"79 682 LINE",
"79 0 LINE"
);
}
);
};
layerId = "63224BA1-30A4-42F4-A6D1-9160F56B91B0";
paths = (
{
closed = 1;
nodes = (
"154 0 LINE",
"154 320 LINE",
"374 320 LINE",
"374 381 LINE",
"154 381 LINE",
"154 619 LINE",
"451 619 LINE",
"451 682 LINE",
"79 682 LINE",
"79 0 LINE"
);
}
);
width = 451;
}
);
unicode = 0046;
},
{
color = 6;
glyphname = Fhook;
layers = (
{
layerId = UUID0;
paths = (
{
closed = 1;
nodes = (
"-7 -200 LINE SMOOTH",
"35 -200 OFFCURVE",
"72 -185 OFFCURVE",
"105 -156 CURVE SMOOTH",
"138 -127 OFFCURVE",
"154 -92 OFFCURVE",
"154 -52 CURVE SMOOTH",
"154 340 LINE",
"394 340 LINE",
"394 401 LINE",
"154 401 LINE",
"154 619 LINE",
"461 619 LINE",
"461 682 LINE",
"79 682 LINE",
"79 -52 LINE SMOOTH",
"79 -97 OFFCURVE",
"40 -132 OFFCURVE",
"-7 -132 CURVE SMOOTH",
"-34 -132 LINE",
"-34 -200 LINE"
);
}
);
width = 479;
},
{
layerId = "63224BA1-30A4-42F4-A6D1-9160F56B91B0";
paths = (
{
closed = 1;
nodes = (
"-7 -200 LINE SMOOTH",
"72 -200 OFFCURVE",
"154 -137 OFFCURVE",
"154 -52 CURVE SMOOTH",
"154 340 LINE",
"394 340 LINE",
"394 401 LINE",
"154 401 LINE",
"154 619 LINE",
"461 619 LINE",
"461 682 LINE",
"79 682 LINE",
"79 -52 LINE SMOOTH",
"79 -97 OFFCURVE",
"40 -132 OFFCURVE",
"-7 -132 CURVE SMOOTH",
"-34 -132 LINE",
"-34 -200 LINE"
);
}
);
width = 479;
}
);
unicode = 0191;
},
{
color = 5;
glyphname = G;
layers = (
{
anchors = (
{
name = above;
position = "{323, 726}";
},
{
name = below;
position = "{305, 0}";
}
);
layerId = UUID0;
paths = (
{
closed = 1;
nodes = (
"473 -16 OFFCURVE",
"564 76 OFFCURVE",
"564 291 CURVE SMOOTH",
"564 353 LINE",
"329 353 LINE",
"329 291 LINE",
"490 291 LINE",
"490 190 OFFCURVE",
"473 125 OFFCURVE",
"436 93 CURVE SMOOTH",
"400 61 OFFCURVE",
"365 53 OFFCURVE",
"305 53 CURVE SMOOTH",
"248 53 OFFCURVE",
"202 81 OFFCURVE",
"169 137 CURVE SMOOTH",
"136 193 OFFCURVE",
"120 261 OFFCURVE",
"120 340 CURVE SMOOTH",
"120 419 OFFCURVE",
"139 486 OFFCURVE",
"176 543 CURVE SMOOTH",
"213 600 OFFCURVE",
"263 629 OFFCURVE",
"324 629 CURVE SMOOTH",
"399 629 OFFCURVE",
"439 590 OFFCURVE",
"484 515 CURVE",
"544 557 LINE",
"513 604 OFFCURVE",
"482 639 OFFCURVE",
"449 662 CURVE SMOOTH",
"417 685 OFFCURVE",
"375 697 OFFCURVE",
"324 697 CURVE SMOOTH",
"243 697 OFFCURVE",
"176 662 OFFCURVE",
"123 592 CURVE SMOOTH",
"70 522 OFFCURVE",
"44 438 OFFCURVE",
"44 339 CURVE SMOOTH",
"44 241 OFFCURVE",
"68 157 OFFCURVE",
"117 88 CURVE SMOOTH",
"166 19 OFFCURVE",
"229 -16 OFFCURVE",
"305 -16 CURVE SMOOTH"
);
}
);
width = 606;
},
{
anchors = (
{
name = bottom;
position = "{303, 0}";
},
{
name = top;
position = "{303, 682}";
}
);
background = {
components = (
{
name = C;
transform = "{1, 0, 0, 1, -26, 0}";
}
);
paths = (
{
closed = 1;
nodes = (
"473 -16 OFFCURVE",
"564 76 OFFCURVE",
"564 291 CURVE SMOOTH",
"564 353 LINE",
"329 353 LINE",
"329 291 LINE",
"490 291 LINE",
"490 190 OFFCURVE",
"473 125 OFFCURVE",
"436 93 CURVE SMOOTH",
"400 61 OFFCURVE",
"365 52 OFFCURVE",
"305 52 CURVE",
"305 -16 LINE"
);
}
);
};
layerId = "63224BA1-30A4-42F4-A6D1-9160F56B91B0";
paths = (
{
closed = 1;
nodes = (
"453 -16 OFFCURVE",
"564 80 OFFCURVE",
"564 271 CURVE SMOOTH",
"564 333 LINE",
"329 333 LINE",
"329 271 LINE",
"490 271 LINE",
"490 125 OFFCURVE",
"408 52 OFFCURVE",
"307 52 CURVE SMOOTH",
"183 52 OFFCURVE",
"108 160 OFFCURVE",
"108 340 CURVE SMOOTH",
"108 522 OFFCURVE",
"182 629 OFFCURVE",
"307 629 CURVE SMOOTH",
"378 629 OFFCURVE",
"439 595 OFFCURVE",
"483 515 CURVE",
"542 557 LINE",
"489 645 OFFCURVE",
"416 697 OFFCURVE",
"307 697 CURVE SMOOTH",
"134 697 OFFCURVE",
"29 564 OFFCURVE",
"29 339 CURVE SMOOTH",
"29 116 OFFCURVE",
"134 -16 OFFCURVE",
"307 -16 CURVE SMOOTH"
);
}
);
width = 606;
}
);
unicode = 0047;
},
{
color = 6;
glyphname = Gammaafrican;
layers = (
{
layerId = UUID0;
paths = (
{
closed = 1;
nodes = (
"321 -200 OFFCURVE",
"350 -160 OFFCURVE",
"350 -96 CURVE SMOOTH",
"350 -74 OFFCURVE",
"335 -20 OFFCURVE",
"304 65 CURVE",
"528 682 LINE",
"449 682 LINE",
"264 174 LINE",
"79 682 LINE",
"0 682 LINE",
"224 65 LINE",
"193 -20 OFFCURVE",
"178 -74 OFFCURVE",
"178 -96 CURVE SMOOTH",
"178 -160 OFFCURVE",
"207 -200 OFFCURVE",
"264 -200 CURVE SMOOTH"
);
},
{
closed = 1;
nodes = (
"253 -138 OFFCURVE",
"248 -127 OFFCURVE",
"248 -106 CURVE SMOOTH",
"248 -95 OFFCURVE",
"253 -75 OFFCURVE",
"264 -45 CURVE",
"275 -77 OFFCURVE",
"280 -97 OFFCURVE",
"280 -106 CURVE SMOOTH",
"280 -127 OFFCURVE",
"275 -138 OFFCURVE",
"264 -138 CURVE SMOOTH"
);
}
);
width = 527;
},
{
layerId = "63224BA1-30A4-42F4-A6D1-9160F56B91B0";
paths = (
{
closed = 1;
nodes = (
"328 -200 OFFCURVE",
"360 -160 OFFCURVE",
"360 -106 CURVE SMOOTH",
"360 -54 OFFCURVE",
"342 -10 OFFCURVE",
"304 65 CURVE",
"528 682 LINE",
"449 682 LINE",
"266 152 LINE",
"79 682 LINE",
"0 682 LINE",
"224 65 LINE",
"186 -10 OFFCURVE",
"168 -54 OFFCURVE",
"168 -106 CURVE SMOOTH",
"168 -160 OFFCURVE",
"200 -200 OFFCURVE",
"264 -200 CURVE SMOOTH"
);
},
{
closed = 1;
nodes = (
"246 -142 OFFCURVE",
"238 -127 OFFCURVE",
"238 -106 CURVE SMOOTH",
"238 -80 OFFCURVE",
"246 -45 OFFCURVE",
"264 -15 CURVE",
"282 -47 OFFCURVE",
"290 -80 OFFCURVE",
"290 -106 CURVE SMOOTH",
"290 -127 OFFCURVE",
"282 -142 OFFCURVE",
"264 -142 CURVE SMOOTH"
);
}
);
width = 527;
}
);
unicode = 0194;
},
{
color = 6;
glyphname = Ghook;
layers = (
{
layerId = UUID0;
paths = (
{
closed = 1;
nodes = (
"389 -16 OFFCURVE",
"453 8 OFFCURVE",
"498 57 CURVE SMOOTH",
"542 106 OFFCURVE",
"564 184 OFFCURVE",
"564 291 CURVE SMOOTH",
"564 353 LINE",
"329 353 LINE",
"329 291 LINE",
"490 291 LINE",
"490 240 OFFCURVE",
"486 199 OFFCURVE",
"477 166 CURVE SMOOTH",
"468 133 OFFCURVE",
"455 109 OFFCURVE",
"437 93 CURVE SMOOTH",
"418 77 OFFCURVE",
"399 66 OFFCURVE",
"379 61 CURVE SMOOTH",
"360 56 OFFCURVE",
"335 53 OFFCURVE",
"305 53 CURVE SMOOTH",
"248 53 OFFCURVE",
"202 81 OFFCURVE",
"169 137 CURVE SMOOTH",
"136 193 OFFCURVE",
"120 261 OFFCURVE",
"120 340 CURVE SMOOTH",
"120 419 OFFCURVE",
"139 486 OFFCURVE",
"176 543 CURVE SMOOTH",
"213 600 OFFCURVE",
"263 629 OFFCURVE",
"324 629 CURVE SMOOTH",
"361 629 OFFCURVE",
"392 619 OFFCURVE",
"415 600 CURVE SMOOTH",
"438 581 OFFCURVE",
"461 552 OFFCURVE",
"484 515 CURVE",
"544 557 LINE",
"544 612 LINE SMOOTH",
"544 634 OFFCURVE",
"552 653 OFFCURVE",
"569 669 CURVE SMOOTH",
"586 684 OFFCURVE",
"606 692 OFFCURVE",
"630 692 CURVE",
"630 760 LINE",
"588 760 OFFCURVE",
"553 746 OFFCURVE",
"524 717 CURVE SMOOTH",
"501 694 OFFCURVE",
"487 666 OFFCURVE",
"483 634 CURVE",
"472 645 OFFCURVE",
"461 655 OFFCURVE",
"450 663 CURVE SMOOTH",
"417 686 OFFCURVE",
"375 697 OFFCURVE",
"324 697 CURVE SMOOTH",
"243 697 OFFCURVE",
"176 662 OFFCURVE",
"123 592 CURVE SMOOTH",
"70 522 OFFCURVE",
"44 438 OFFCURVE",
"44 340 CURVE SMOOTH",
"44 241 OFFCURVE",
"69 157 OFFCURVE",
"118 88 CURVE SMOOTH",
"167 19 OFFCURVE",
"229 -16 OFFCURVE",
"305 -16 CURVE SMOOTH"
);
}
);
width = 606;
},
{
background = {
anchors = (
{
name = bottom;
position = "{359, 0}";
},
{
name = top;
position = "{353, 682}";
}
);
components = (
{
name = G;
transform = "{1, 0, 0, 1, 26, 0}";
}
);
paths = (
{
closed = 1;
nodes = (
"568 557 LINE",
"568 612 LINE SMOOTH",
"568 654 OFFCURVE",
"604 692 OFFCURVE",
"654 692 CURVE",
"654 760 LINE",
"572 760 OFFCURVE",
"508 698 OFFCURVE",
"506 615 CURVE"
);
}
);
};
components = (
{
name = G;
transform = "{1, 0, 0, 1, 26, 0}";
}
);
layerId = "63224BA1-30A4-42F4-A6D1-9160F56B91B0";
paths = (
{
closed = 1;
nodes = (
"568 557 LINE",
"568 612 LINE SMOOTH",
"568 654 OFFCURVE",
"604 692 OFFCURVE",
"654 692 CURVE",
"654 760 LINE",
"572 760 OFFCURVE",
"508 698 OFFCURVE",
"506 615 CURVE"
);
}
);
width = 654;
}
);
leftMetricsKey = O;
unicode = 0193;
},
{
color = 6;
glyphname = Glottalstop;
layers = (
{
layerId = UUID0;
paths = (
{
closed = 1;
nodes = (
"244 0 LINE",
"244 166 LINE SMOOTH",
"244 219 OFFCURVE",
"265 263 OFFCURVE",
"290 287 CURVE SMOOTH",
"333 326 LINE SMOOTH",
"364 355 OFFCURVE",
"392 376 OFFCURVE",
"409 423 CURVE SMOOTH",
"418 446 OFFCURVE",
"422 473 OFFCURVE",
"422 504 CURVE SMOOTH",
"422 559 OFFCURVE",
"402 604 OFFCURVE",
"363 641 CURVE SMOOTH",
"324 678 OFFCURVE",
"276 697 OFFCURVE",
"219 697 CURVE SMOOTH",
"136 697 OFFCURVE",
"60 642 OFFCURVE",
"29 559 CURVE",
"92 539 LINE",
"111 600 OFFCURVE",
"159 635 OFFCURVE",
"219 635 CURVE SMOOTH",
"302 635 OFFCURVE",
"354 580 OFFCURVE",
"354 504 CURVE SMOOTH",
"354 451 OFFCURVE",
"334 407 OFFCURVE",
"307 383 CURVE SMOOTH",
"264 343 LINE",
"220 305 OFFCURVE",
"176 264 OFFCURVE",
"176 166 CURVE SMOOTH",
"176 0 LINE"
);
}
);
width = 460;
},
{
layerId = "63224BA1-30A4-42F4-A6D1-9160F56B91B0";
paths = (
{
closed = 1;
nodes = (
"244 0 LINE",
"244 166 LINE SMOOTH",
"244 237 OFFCURVE",
"261 259 OFFCURVE",
"333 326 CURVE SMOOTH",
"394 383 OFFCURVE",
"422 415 OFFCURVE",
"422 504 CURVE SMOOTH",
"422 614 OFFCURVE",
"332 697 OFFCURVE",
"219 697 CURVE SMOOTH",
"136 697 OFFCURVE",
"60 642 OFFCURVE",
"29 559 CURVE",
"92 539 LINE",
"111 600 OFFCURVE",
"159 635 OFFCURVE",
"219 635 CURVE SMOOTH",
"302 635 OFFCURVE",
"354 580 OFFCURVE",
"354 504 CURVE SMOOTH",
"354 451 OFFCURVE",
"334 407 OFFCURVE",
"290 368 CURVE SMOOTH",
"199 286 OFFCURVE",
"176 257 OFFCURVE",
"176 166 CURVE SMOOTH",
"176 0 LINE"
);
}
);
width = 460;
}
);
unicode = 0241;
},
{
color = 6;
glyphname = Yogh;
layers = (
{
layerId = UUID0;
paths = (
{
closed = 1;
nodes = (
"48 -38 OFFCURVE",
"106 -26 OFFCURVE",
"185 7 CURVE SMOOTH",
"225 24 OFFCURVE",
"263 43 OFFCURVE",
"299 65 CURVE SMOOTH",
"372 110 OFFCURVE",
"430 185 OFFCURVE",
"430 268 CURVE SMOOTH",
"430 332 OFFCURVE",
"384 393 OFFCURVE",
"308 428 CURVE",
"363 479 OFFCURVE",
"391 522 OFFCURVE",
"391 558 CURVE SMOOTH",
"391 639 OFFCURVE",
"333 696 OFFCURVE",
"241 696 CURVE SMOOTH",
"181 696 OFFCURVE",
"125 678 OFFCURVE",
"96 659 CURVE SMOOTH",
"81 650 OFFCURVE",
"68 640 OFFCURVE",
"56 627 CURVE SMOOTH",
"33 602 OFFCURVE",
"31 595 OFFCURVE",
"28 590 CURVE",
"82 545 LINE",
"86 555 LINE SMOOTH",
"89 561 OFFCURVE",
"94 568 OFFCURVE",
"102 576 CURVE",
"122 600 OFFCURVE",
"167 633 OFFCURVE",
"241 633 CURVE SMOOTH",
"257 633 OFFCURVE",
"274 626 OFFCURVE",
"291 613 CURVE SMOOTH",
"308 600 OFFCURVE",
"317 583 OFFCURVE",
"317 561 CURVE SMOOTH",
"317 539 OFFCURVE",
"303 514 OFFCURVE",
"274 485 CURVE SMOOTH",
"245 457 OFFCURVE",
"217 434 OFFCURVE",
"189 416 CURVE SMOOTH",
"162 399 OFFCURVE",
"139 386 OFFCURVE",
"120 377 CURVE",
"120 300 LINE",
"120 300 LINE",
"154 313 OFFCURVE",
"200 342 OFFCURVE",
"259 387 CURVE",
"284 373 OFFCURVE",
"306 355 OFFCURVE",
"326 333 CURVE SMOOTH",
"346 312 OFFCURVE",
"356 291 OFFCURVE",
"356 271 CURVE SMOOTH",
"356 207 OFFCURVE",
"306 148 OFFCURVE",
"246 113 CURVE SMOOTH",
"217 96 OFFCURVE",
"185 82 OFFCURVE",
"152 70 CURVE SMOOTH",
"85 46 OFFCURVE",
"41 38 OFFCURVE",
"28 37 CURVE",
"28 -38 LINE"
);
}
);
width = 465;
},
{
layerId = "63224BA1-30A4-42F4-A6D1-9160F56B91B0";
paths = (
{
closed = 1;
nodes = (
"247 393 LINE",
"321 374 OFFCURVE",
"356 329 OFFCURVE",
"356 261 CURVE SMOOTH",
"356 119 OFFCURVE",
"175 37 OFFCURVE",
"48 37 CURVE",
"48 -38 LINE",
"216 -38 OFFCURVE",
"430 95 OFFCURVE",
"430 258 CURVE SMOOTH",
"430 347 OFFCURVE",
"379 404 OFFCURVE",
"286 431 CURVE"
);
},
{
closed = 1;
nodes = (
"383 443 OFFCURVE",
"383 575 CURVE SMOOTH",
"383 644 OFFCURVE",
"333 696 OFFCURVE",
"238 696 CURVE SMOOTH",
"152 696 OFFCURVE",
"85 655 OFFCURVE",
"32 587 CURVE",
"76 550 LINE",
"108 603 OFFCURVE",
"171 633 OFFCURVE",
"231 633 CURVE SMOOTH",
"289 633 OFFCURVE",
"317 608 OFFCURVE",
"317 571 CURVE SMOOTH",
"317 494 OFFCURVE",
"251 435 OFFCURVE",
"120 367 CURVE",
"120 307 LINE",
"224 346 OFFCURVE"
);
}
);
width = 465;
}
);
unicode = 021C;
},
{
color = 5;
glyphname = H;
layers = (
{
anchors = (
{
name = above;
position = "{308, 726}";
},
{
name = below;
position = "{307, 0}";
}
);
layerId = UUID0;
paths = (
{
closed = 1;
nodes = (
"154 0 LINE",
"154 325 LINE",
"454 325 LINE",
"454 0 LINE",
"529 0 LINE",
"529 682 LINE",
"454 682 LINE",
"454 387 LINE",
"154 387 LINE",
"154 682 LINE",
"79 682 LINE",
"79 0 LINE"
);
}
);
width = 607;
},
{
anchors = (
{
name = bottom;
position = "{335, 0}";
},
{
name = center;
position = "{335, 341}";
},
{
name = top;
position = "{335, 682}";
},
{
name = topleft;
position = "{20, 682}";
}
);
background = {
paths = (
{
closed = 1;
nodes = (
"102 509 OFFCURVE",
"191 629 OFFCURVE",
"316 629 CURVE SMOOTH",
"441 629 OFFCURVE",
"530 509 OFFCURVE",
"530 340 CURVE SMOOTH",
"530 172 OFFCURVE",
"441 53 OFFCURVE",
"316 53 CURVE SMOOTH",
"191 53 OFFCURVE",
"102 172 OFFCURVE",
"102 340 CURVE SMOOTH"
);
},
{
closed = 1;
nodes = (
"23 131 OFFCURVE",
"144 -16 OFFCURVE",
"316 -16 CURVE SMOOTH",
"488 -16 OFFCURVE",
"609 131 OFFCURVE",
"609 339 CURVE SMOOTH",
"609 549 OFFCURVE",
"488 697 OFFCURVE",
"316 697 CURVE SMOOTH",
"144 697 OFFCURVE",
"23 549 OFFCURVE",
"23 340 CURVE SMOOTH"
);
}
);
};
layerId = "63224BA1-30A4-42F4-A6D1-9160F56B91B0";
paths = (
{
closed = 1;
nodes = (
"155 0 LINE",
"155 325 LINE",
"515 325 LINE",
"515 0 LINE",
"590 0 LINE",
"590 682 LINE",
"515 682 LINE",
"515 387 LINE",
"155 387 LINE",
"155 682 LINE",
"80 682 LINE",
"80 0 LINE"
);
}
);
width = 670;
}
);
unicode = 0048;
},
{
color = 5;
glyphname = Hbar;
layers = (
{
layerId = UUID0;
paths = (
{
closed = 1;
nodes = (
"154 0 LINE",
"154 325 LINE",
"454 325 LINE",
"454 0 LINE",
"529 0 LINE",
"529 529 LINE",
"574 529 LINE",
"574 567 LINE",
"529 567 LINE",
"529 682 LINE",
"454 682 LINE",
"454 567 LINE",
"154 567 LINE",
"154 682 LINE",
"79 682 LINE",
"79 567 LINE",
"36 567 LINE",
"36 529 LINE",
"79 529 LINE",
"79 0 LINE"
);
},
{
closed = 1;
nodes = (
"154 529 LINE",
"454 529 LINE",
"454 387 LINE",
"154 387 LINE"
);
}
);
width = 607;
},
{
background = {
components = (
{
name = H;
transform = "{1, 0, 0, 1, 40, 0}";
}
);
paths = (
{
closed = 1;
nodes = (
"80 524 LINE",
"670 524 LINE",
"670 572 LINE",
"80 572 LINE"
);
}
);
};
components = (
{
name = H;
transform = "{1, 0, 0, 1, 40, 0}";
}
);
layerId = "63224BA1-30A4-42F4-A6D1-9160F56B91B0";
paths = (
{
closed = 1;
nodes = (
"670 524 LINE",
"670 572 LINE",
"80 572 LINE",
"80 524 LINE"
);
}
);
width = 750;
}
);
leftMetricsKey = H;
rightMetricsKey = H;
unicode = 0126;
},
{
color = 6;
glyphname = Hturned;
layers = (
{
anchors = (
{
name = above;
position = "{308, 726}";
}
);
layerId = UUID0;
paths = (
{
closed = 1;
nodes = (
"529 0 LINE",
"529 682 LINE",
"454 682 LINE",
"454 387 LINE",
"154 387 LINE",
"154 682 LINE",
"79 682 LINE",
"79 325 LINE",
"454 325 LINE",
"454 0 LINE"
);
}
);
width = 607;
},
{
layerId = "63224BA1-30A4-42F4-A6D1-9160F56B91B0";
paths = (
{
closed = 1;
nodes = (
"529 0 LINE",
"529 682 LINE",
"454 682 LINE",
"454 387 LINE",
"154 387 LINE",
"154 682 LINE",
"79 682 LINE",
"79 325 LINE",
"454 325 LINE",
"454 0 LINE"
);
}
);
width = 607;
}
);
unicode = A78D;
},
{
color = 5;
glyphname = I;
layers = (
{
anchors = (
{
name = above;
position = "{127, 726}";
},
{
name = below;
position = "{127, 0}";
},
{
name = ogonek;
position = "{171, 0}";
}
);
layerId = UUID0;
paths = (
{
closed = 1;
nodes = (
"200 0 LINE",
"200 66 LINE",
"164 66 LINE",
"164 616 LINE",
"200 616 LINE",
"200 682 LINE",
"53 682 LINE",
"53 616 LINE",
"89 616 LINE",
"89 66 LINE",
"53 66 LINE",
"53 0 LINE"
);
}
);
width = 253;
},
{
anchors = (
{
name = bottom;
position = "{159, 0}";
},
{
name = ogonek;
position = "{232, 24}";
},
{
name = top;
position = "{159, 682}";
},
{
name = topleft;
position = "{55, 682}";
}
);
layerId = "63224BA1-30A4-42F4-A6D1-9160F56B91B0";
paths = (
{
closed = 1;
nodes = (
"262 0 LINE",
"262 66 LINE",
"196 66 LINE",
"196 616 LINE",
"262 616 LINE",
"262 682 LINE",
"55 682 LINE",
"55 616 LINE",
"121 616 LINE",
"121 66 LINE",
"55 66 LINE",
"55 0 LINE"
);
}
);
width = 317;
}
);
unicode = 0049;
},
{
color = 5;
glyphname = Iogonek;
layers = (
{
anchors = (
{
name = above;
position = "{127, 726}";
}
);
layerId = UUID0;
paths = (
{
closed = 1;
nodes = (
"224 -186 OFFCURVE",
"259 -181 OFFCURVE",
"298 -170 CURVE",
"291 -144 LINE",
"273 -148 OFFCURVE",
"255 -150 OFFCURVE",
"237 -150 CURVE SMOOTH",
"168 -150 OFFCURVE",
"134 -127 OFFCURVE",
"134 -82 CURVE SMOOTH",
"134 -58 OFFCURVE",
"138 -40 OFFCURVE",
"146 -29 CURVE SMOOTH",
"155 -18 OFFCURVE",
"173 -9 OFFCURVE",
"200 0 CURVE",
"200 24 LINE",
"200 66 LINE",
"164 66 LINE",
"164 616 LINE",
"200 616 LINE",
"200 682 LINE",
"53 682 LINE",
"53 616 LINE",
"89 616 LINE",
"89 66 LINE",
"53 66 LINE",
"53 0 LINE",
"121 0 LINE",
"86 -20 OFFCURVE",
"68 -50 OFFCURVE",
"68 -91 CURVE SMOOTH",
"68 -154 OFFCURVE",
"110 -186 OFFCURVE",
"194 -186 CURVE SMOOTH"
);
}
);
width = 253;
},
{
components = (
{
name = I;
},
{
name = ogonekcomb;
transform = "{1, 0, 0, 1, 50, 24}";
}
);
layerId = "63224BA1-30A4-42F4-A6D1-9160F56B91B0";
width = 317;
}
);
unicode = 012E;
},
{
color = 6;
glyphname = Iotaafrican;
layers = (
{
anchors = (
{
name = above;
position = "{113, 726}";
}
);
layerId = UUID0;
paths = (
{
closed = 1;
nodes = (
"236 68 LINE",
"179 68 OFFCURVE",
"150 95 OFFCURVE",
"150 148 CURVE SMOOTH",
"150 682 LINE",
"75 682 LINE",
"75 148 LINE SMOOTH",
"75 100 OFFCURVE",
"91 63 OFFCURVE",
"122 38 CURVE SMOOTH",
"154 13 OFFCURVE",
"192 0 OFFCURVE",
"236 0 CURVE"
);
}
);
width = 264;
},
{
layerId = "63224BA1-30A4-42F4-A6D1-9160F56B91B0";
paths = (
{
closed = 1;
nodes = (
"236 68 LINE",
"179 68 OFFCURVE",
"150 95 OFFCURVE",
"150 148 CURVE SMOOTH",
"150 682 LINE",
"75 682 LINE",
"75 148 LINE SMOOTH",
"75 100 OFFCURVE",
"91 63 OFFCURVE",
"122 38 CURVE SMOOTH",
"154 13 OFFCURVE",
"192 0 OFFCURVE",
"236 0 CURVE"
);
}
);
width = 264;
}
);
unicode = 0196;
},
{
color = 6;
glyphname = Istroke;
layers = (
{
anchors = (
{
name = above;
position = "{149, 726}";
}
);
layerId = UUID0;
paths = (
{
closed = 1;
nodes = (
"222 0 LINE",
"222 66 LINE",
"186 66 LINE",
"186 328 LINE",
"275 328 LINE",
"275 370 LINE",
"186 370 LINE",
"186 616 LINE",
"222 616 LINE",
"222 682 LINE",
"75 682 LINE",
"75 616 LINE",
"111 616 LINE",
"111 370 LINE",
"21 370 LINE",
"21 328 LINE",
"111 328 LINE",
"111 66 LINE",
"75 66 LINE",
"75 0 LINE"
);
}
);
width = 297;
},
{
background = {
components = (
{
name = I;
transform = "{1, 0, 0, 1, 4, 0}";
}
);
paths = (
{
closed = 1;
nodes = (
"289 328 LINE",
"289 370 LINE",
"35 370 LINE",
"35 328 LINE"
);
}
);
};
components = (
{
name = I;
transform = "{1, 0, 0, 1, 4, 0}";
}
);
layerId = "63224BA1-30A4-42F4-A6D1-9160F56B91B0";
paths = (
{
closed = 1;
nodes = (
"289 328 LINE",
"289 370 LINE",
"35 370 LINE",
"35 328 LINE"
);
}
);
width = 324;
}
);
unicode = 0197;
},
{
color = 5;
glyphname = J;
layers = (
{
anchors = (
{
name = above;
position = "{380, 726}";
},
{
name = below;
position = "{205, 0}";
}
);
layerId = UUID0;
paths = (
{
closed = 1;
nodes = (
"265 -16 OFFCURVE",
"315 4 OFFCURVE",
"355 44 CURVE SMOOTH",
"396 84 OFFCURVE",
"416 138 OFFCURVE",
"416 205 CURVE SMOOTH",
"416 682 LINE",
"341 682 LINE",
"341 205 LINE SMOOTH",
"341 104 OFFCURVE",
"292 54 OFFCURVE",
"203 54 CURVE SMOOTH",
"142 54 OFFCURVE",
"95 93 OFFCURVE",
"75 157 CURVE",
"12 127 LINE",
"47 42 OFFCURVE",
"124 -16 OFFCURVE",
"205 -16 CURVE SMOOTH"
);
}
);
width = 489;
},
{
anchors = (
{
name = bottom;
position = "{248, 0}";
},
{
name = top;
position = "{379, 682}";
}
);
layerId = "63224BA1-30A4-42F4-A6D1-9160F56B91B0";
paths = (
{
closed = 1;
nodes = (
"338 -16 OFFCURVE",
"416 66 OFFCURVE",
"416 205 CURVE SMOOTH",
"416 682 LINE",
"341 682 LINE",
"341 205 LINE SMOOTH",
"341 110 OFFCURVE",
"298 54 OFFCURVE",
"211 54 CURVE SMOOTH",
"151 54 OFFCURVE",
"95 92 OFFCURVE",
"75 157 CURVE",
"12 127 LINE",
"49 37 OFFCURVE",
"121 -16 OFFCURVE",
"215 -16 CURVE SMOOTH"
);
}
);
width = 496;
}
);
unicode = 004A;
},
{
color = 6;
glyphname = Jstroke;
layers = (
{
layerId = UUID0;
paths = (
{
closed = 1;
nodes = (
"265 -16 OFFCURVE",
"315 4 OFFCURVE",
"355 44 CURVE SMOOTH",
"396 84 OFFCURVE",
"416 138 OFFCURVE",
"416 205 CURVE SMOOTH",
"416 328 LINE",
"500 328 LINE",
"500 370 LINE",
"416 370 LINE",
"416 682 LINE",
"341 682 LINE",
"341 370 LINE",
"246 370 LINE",
"246 328 LINE",
"341 328 LINE",
"341 205 LINE SMOOTH",
"341 104 OFFCURVE",
"292 54 OFFCURVE",
"203 54 CURVE SMOOTH",
"142 54 OFFCURVE",
"95 93 OFFCURVE",
"75 157 CURVE",
"12 127 LINE",
"47 42 OFFCURVE",
"124 -16 OFFCURVE",
"205 -16 CURVE SMOOTH"
);
}
);
width = 496;
},
{
background = {
components = (
{
name = J;
}
);
};
components = (
{
name = J;
}
);
layerId = "63224BA1-30A4-42F4-A6D1-9160F56B91B0";
paths = (
{
closed = 1;
nodes = (
"500 328 LINE",
"500 370 LINE",
"246 370 LINE",
"246 328 LINE"
);
}
);
width = 496;
}
);
unicode = 0248;
},
{
color = 5;
glyphname = K;
layers = (
{
anchors = (
{
name = above;
position = "{274, 726}";
},
{
name = below;
position = "{289, 0}";
}
);
layerId = UUID0;
paths = (
{
closed = 1;
nodes = (
"154 0 LINE",
"154 246 LINE",
"216 320 LINE",
"440 0 LINE",
"531 0 LINE",
"266 379 LINE",
"520 682 LINE",
"423 682 LINE",
"154 361 LINE",
"154 682 LINE",
"79 682 LINE",
"79 0 LINE"
);
}
);
width = 532;
},
{
anchors = (
{
name = bottom;
position = "{273, 0}";
},
{
name = top;
position = "{273, 682}";
}
);
layerId = "63224BA1-30A4-42F4-A6D1-9160F56B91B0";
paths = (
{
closed = 1;
nodes = (
"525 682 LINE",
"442 682 LINE",
"144 325 LINE",
"144 231 LINE"
);
},
{
closed = 1;
nodes = (
"154 0 LINE",
"154 682 LINE",
"79 682 LINE",
"79 0 LINE"
);
},
{
closed = 1;
nodes = (
"545 0 LINE",
"261 392 LINE",
"209 351 LINE",
"460 0 LINE"
);
}
);
width = 545;
}
);
unicode = 004B;
},
{
color = 6;
glyphname = Khook;
layers = (
{
layerId = UUID0;
paths = (
{
closed = 1;
nodes = (
"154 0 LINE",
"154 245 LINE",
"216 319 LINE",
"440 0 LINE",
"531 0 LINE",
"266 379 LINE",
"433 576 LINE SMOOTH",
"461 608 OFFCURVE",
"483 624 OFFCURVE",
"500 624 CURVE SMOOTH",
"517 624 OFFCURVE",
"532 618 OFFCURVE",
"544 606 CURVE SMOOTH",
"569 583 OFFCURVE",
"576 546 OFFCURVE",
"524 505 CURVE",
"570 463 LINE",
"613 492 OFFCURVE",
"631 520 OFFCURVE",
"631 568 CURVE SMOOTH",
"631 640 OFFCURVE",
"569 688 OFFCURVE",
"489 688 CURVE SMOOTH",
"449 688 OFFCURVE",
"409 664 OFFCURVE",
"369 617 CURVE SMOOTH",
"154 360 LINE",
"154 682 LINE",
"79 682 LINE",
"79 0 LINE"
);
}
);
width = 646;
},
{
anchors = (
{
name = bottom;
position = "{273, 0}";
}
);
background = {
components = (
{
name = K;
}
);
};
layerId = "63224BA1-30A4-42F4-A6D1-9160F56B91B0";
paths = (
{
closed = 1;
nodes = (
"470 688 OFFCURVE",
"422 656 OFFCURVE",
"372 597 CURVE SMOOTH",
"154 337 LINE",
"154 682 LINE",
"79 682 LINE",
"79 0 LINE",
"154 0 LINE",
"154 243 LINE",
"225 328 LINE",
"460 0 LINE",
"545 0 LINE",
"269 381 LINE",
"416 556 LINE SMOOTH",
"461 612 OFFCURVE",
"485 626 OFFCURVE",
"520 626 CURVE SMOOTH",
"543 626 OFFCURVE",
"556 613 OFFCURVE",
"556 593 CURVE SMOOTH",
"556 576 OFFCURVE",
"547 556 OFFCURVE",
"528 535 CURVE",
"564 503 LINE",
"598 533 OFFCURVE",
"614 571 OFFCURVE",
"614 605 CURVE SMOOTH",
"614 650 OFFCURVE",
"585 688 OFFCURVE",
"529 688 CURVE SMOOTH"
);
}
);
width = 646;
}
);
unicode = 0198;
},
{
color = 5;
glyphname = L;
layers = (
{
anchors = (
{
name = above;
position = "{117, 726}";
},
{
name = below;
position = "{267, 0}";
}
);
layerId = UUID0;
paths = (
{
closed = 1;
nodes = (
"421 0 LINE",
"421 62 LINE",
"154 62 LINE",
"154 682 LINE",
"79 682 LINE",
"79 0 LINE"
);
}
);
width = 436;
},
{
anchors = (
{
name = bottom;
position = "{278, 0}";
},
{
name = center;
position = "{143, 287}";
},
{
name = top;
position = "{120, 682}";
},
{
name = topright;
position = "{264, 432}";
}
);
layerId = "63224BA1-30A4-42F4-A6D1-9160F56B91B0";
paths = (
{
closed = 1;
nodes = (
"461 0 LINE",
"461 62 LINE",
"154 62 LINE",
"154 682 LINE",
"79 682 LINE",
"79 0 LINE"
);
}
);
width = 476;
}
);
unicode = 004C;
},
{
color = 5;
glyphname = Lslash;
layers = (
{
layerId = UUID0;
paths = (
{
closed = 1;
nodes = (
"426 0 LINE",
"426 62 LINE",
"159 62 LINE",
"159 392 LINE",
"266 467 LINE",
"243 499 LINE",
"159 440 LINE",
"159 682 LINE",
"84 682 LINE",
"84 387 LINE",
"5 332 LINE",
"27 300 LINE",
"84 340 LINE",
"84 0 LINE"
);
}
);
width = 440;
},
{
components = (
{
name = L;
},
{
name = slashshortcomb;
transform = "{1, 0, 0, 1, -38, -113}";
}
);
layerId = "63224BA1-30A4-42F4-A6D1-9160F56B91B0";
width = 476;
}
);
unicode = 0141;
},
{
color = 5;
glyphname = M;
layers = (
{
anchors = (
{
name = above;
position = "{395, 726}";
},
{
name = below;
position = "{397, 0}";
}
);
layerId = UUID0;
paths = (
{
closed = 1;
nodes = (
"154 0 LINE",
"154 502 LINE",
"357 0 LINE",
"437 0 LINE",
"640 503 LINE",
"640 0 LINE",
"714 0 LINE",
"714 682 LINE",
"633 682 LINE",
"397 99 LINE",
"160 682 LINE",
"79 682 LINE",
"79 0 LINE"
);
}
);
width = 792;
},
{
anchors = (
{
name = bottom;
position = "{413, 0}";
},
{
name = top;
position = "{413, 682}";
}
);
background = {
paths = (
{
closed = 1;
nodes = (
"687 682 LINE",
"614 682 LINE",
"400 56 LINE",
"418 56 LINE",
"207 682 LINE",
"132 682 LINE",
"369 0 LINE",
"449 0 LINE"
);
}
);
};
layerId = "63224BA1-30A4-42F4-A6D1-9160F56B91B0";
paths = (
{
closed = 1;
nodes = (
"155 0 LINE",
"155 588 LINE",
"138 585 LINE",
"373 0 LINE",
"443 0 LINE",
"688 586 LINE",
"671 589 LINE",
"671 0 LINE",
"745 0 LINE",
"745 682 LINE",
"661 682 LINE",
"398 52 LINE",
"424 52 LINE",
"172 682 LINE",
"80 682 LINE",
"80 0 LINE"
);
}
);
width = 825;
}
);
leftMetricsKey = H;
rightMetricsKey = H;
unicode = 004D;
},
{
color = 5;
glyphname = N;
layers = (
{
anchors = (
{
name = above;
position = "{320, 726}";
},
{
name = below;
position = "{320, 0}";
}
);
layerId = UUID0;
paths = (
{
closed = 1;
nodes = (
"154 0 LINE",
"154 557 LINE",
"476 0 LINE",
"550 0 LINE",
"550 682 LINE",
"476 682 LINE",
"476 123 LINE",
"154 682 LINE",
"79 682 LINE",
"79 0 LINE"
);
}
);
width = 629;
},
{
anchors = (
{
name = bottom;
position = "{315, 0}";
},
{
name = top;
position = "{315, 682}";
}
);
background = {
paths = (
{
closed = 1;
nodes = (
"155 0 LINE",
"155 325 LINE",
"515 325 LINE",
"515 0 LINE",
"590 0 LINE",
"590 682 LINE",
"515 682 LINE",
"515 387 LINE",
"155 387 LINE",
"155 682 LINE",
"80 682 LINE",
"80 0 LINE"
);
}
);
};
layerId = "63224BA1-30A4-42F4-A6D1-9160F56B91B0";
paths = (
{
closed = 1;
nodes = (
"154 0 LINE",
"154 567 LINE",
"501 0 LINE",
"581 0 LINE",
"581 682 LINE",
"506 682 LINE",
"506 113 LINE",
"159 682 LINE",
"79 682 LINE",
"79 0 LINE"
);
}
);
width = 629;
}
);
unicode = 004E;
},
{
color = 5;
glyphname = Eng;
layers = (
{
layerId = UUID0;
paths = (
{
closed = 1;
nodes = (
"159 0 LINE",
"159 534 LINE",
"196 597 OFFCURVE",
"251 629 OFFCURVE",
"324 629 CURVE SMOOTH",
"437 629 OFFCURVE",
"489 535 OFFCURVE",
"489 398 CURVE SMOOTH",
"489 305 LINE SMOOTH",
"489 241 OFFCURVE",
"479 185 OFFCURVE",
"458 136 CURVE SMOOTH",
"437 87 OFFCURVE",
"399 54 OFFCURVE",
"350 54 CURVE SMOOTH",
"322 54 LINE",
"322 0 LINE",
"350 0 LINE SMOOTH",
"399 0 OFFCURVE",
"441 14 OFFCURVE",
"475 43 CURVE SMOOTH",
"537 95 OFFCURVE",
"568 182 OFFCURVE",
"568 305 CURVE SMOOTH",
"568 398 LINE SMOOTH",
"568 489 OFFCURVE",
"547 562 OFFCURVE",
"506 616 CURVE SMOOTH",
"465 670 OFFCURVE",
"405 697 OFFCURVE",
"324 697 CURVE SMOOTH",
"262 697 OFFCURVE",
"207 674 OFFCURVE",
"159 629 CURVE",
"159 682 LINE",
"79 682 LINE",
"79 0 LINE"
);
}
);
width = 620;
},
{
background = {
paths = (
{
closed = 1;
nodes = (
"502 18 LINE",
"502 -73 OFFCURVE",
"449 -138 OFFCURVE",
"375 -138 CURVE SMOOTH",
"311 -138 LINE",
"311 -200 LINE",
"375 -200 LINE SMOOTH",
"496 -200 OFFCURVE",
"581 -110 OFFCURVE",
"581 18 CURVE"
);
}
);
};
guideLines = (
{
angle = 90;
position = "{581, 129}";
},
{
angle = 90;
position = "{506, 129}";
}
);
layerId = "63224BA1-30A4-42F4-A6D1-9160F56B91B0";
paths = (
{
closed = 1;
nodes = (
"375 -200 LINE SMOOTH",
"490 -200 OFFCURVE",
"573 -118 OFFCURVE",
"580 0 CURVE",
"581 0 LINE",
"581 682 LINE",
"506 682 LINE",
"506 113 LINE",
"159 682 LINE",
"79 682 LINE",
"79 0 LINE",
"154 0 LINE",
"154 567 LINE",
"504 -6 LINE",
"495 -78 OFFCURVE",
"442 -128 OFFCURVE",
"375 -128 CURVE SMOOTH",
"311 -128 LINE",
"311 -200 LINE"
);
}
);
width = 629;
},
{
associatedMasterId = "63224BA1-30A4-42F4-A6D1-9160F56B91B0";
layerId = "772F215E-C05D-467A-B3BE-41449684BBCF";
name = "Oct 11 16, 16:32";
paths = (
{
closed = 1;
nodes = (
"159 682 LINE",
"79 682 LINE",
"79 0 LINE",
"159 0 LINE",
"159 534 LINE",
"196 597 OFFCURVE",
"251 629 OFFCURVE",
"324 629 CURVE SMOOTH",
"437 629 OFFCURVE",
"489 535 OFFCURVE",
"489 398 CURVE SMOOTH",
"489 305 LINE SMOOTH",
"489 241 OFFCURVE",
"479 185 OFFCURVE",
"458 136 CURVE SMOOTH",
"437 87 OFFCURVE",
"399 54 OFFCURVE",
"350 54 CURVE SMOOTH",
"322 54 LINE",
"322 0 LINE",
"350 0 LINE SMOOTH",
"399 0 OFFCURVE",
"441 14 OFFCURVE",
"475 43 CURVE SMOOTH",
"537 95 OFFCURVE",
"568 182 OFFCURVE",
"568 305 CURVE SMOOTH",
"568 398 LINE SMOOTH",
"568 489 OFFCURVE",
"547 562 OFFCURVE",
"506 616 CURVE SMOOTH",
"465 670 OFFCURVE",
"405 697 OFFCURVE",
"324 697 CURVE SMOOTH",
"262 697 OFFCURVE",
"207 674 OFFCURVE",
"159 629 CURVE"
);
}
);
width = 620;
}
);
unicode = 014A;
},
{
color = 6;
glyphname = Nhookleft;
layers = (
{
layerId = UUID0;
paths = (
{
closed = 1;
nodes = (
"-7 -200 LINE SMOOTH",
"35 -200 OFFCURVE",
"72 -185 OFFCURVE",
"105 -156 CURVE SMOOTH",
"138 -127 OFFCURVE",
"154 -92 OFFCURVE",
"154 -52 CURVE SMOOTH",
"154 557 LINE",
"476 0 LINE",
"550 0 LINE",
"550 682 LINE",
"476 682 LINE",
"476 123 LINE",
"154 682 LINE",
"79 682 LINE",
"79 -52 LINE SMOOTH",
"79 -97 OFFCURVE",
"40 -132 OFFCURVE",
"-7 -132 CURVE SMOOTH",
"-34 -132 LINE",
"-34 -200 LINE"
);
}
);
width = 629;
},
{
background = {
components = (
{
name = N;
}
);
};
components = (
{
name = N;
}
);
layerId = "63224BA1-30A4-42F4-A6D1-9160F56B91B0";
paths = (
{
closed = 1;
nodes = (
"79 0 LINE",
"79 -52 LINE SMOOTH",
"79 -97 OFFCURVE",
"40 -132 OFFCURVE",
"-7 -132 CURVE SMOOTH",
"-34 -132 LINE",
"-34 -200 LINE",
"-7 -200 LINE SMOOTH",
"35 -200 OFFCURVE",
"72 -185 OFFCURVE",
"105 -156 CURVE SMOOTH",
"138 -127 OFFCURVE",
"154 -92 OFFCURVE",
"154 -52 CURVE SMOOTH",
"154 0 LINE"
);
}
);
width = 629;
}
);
rightMetricsKey = N;
unicode = 019D;
},
{
color = 6;
glyphname = Nlongrightleg;
layers = (
{
layerId = UUID0;
paths = (
{
closed = 1;
nodes = (
"568 -200 LINE",
"568 398 LINE SMOOTH",
"568 489 OFFCURVE",
"548 562 OFFCURVE",
"507 616 CURVE SMOOTH",
"466 670 OFFCURVE",
"405 697 OFFCURVE",
"324 697 CURVE SMOOTH",
"262 697 OFFCURVE",
"207 674 OFFCURVE",
"159 629 CURVE",
"159 682 LINE",
"79 682 LINE",
"79 0 LINE",
"159 0 LINE",
"159 534 LINE",
"196 597 OFFCURVE",
"251 629 OFFCURVE",
"324 629 CURVE SMOOTH",
"437 629 OFFCURVE",
"489 535 OFFCURVE",
"489 398 CURVE SMOOTH",
"489 -200 LINE"
);
}
);
width = 620;
},
{
layerId = "63224BA1-30A4-42F4-A6D1-9160F56B91B0";
paths = (
{
closed = 1;
nodes = (
"568 -200 LINE",
"568 398 LINE SMOOTH",
"568 572 OFFCURVE",
"494 697 OFFCURVE",
"324 697 CURVE SMOOTH",
"262 697 OFFCURVE",
"207 674 OFFCURVE",
"159 627 CURVE",
"159 682 LINE",
"79 682 LINE",
"79 0 LINE",
"159 0 LINE",
"159 534 LINE",
"196 597 OFFCURVE",
"251 629 OFFCURVE",
"324 629 CURVE SMOOTH",
"437 629 OFFCURVE",
"489 535 OFFCURVE",
"489 398 CURVE SMOOTH",
"489 -200 LINE"
);
}
);
width = 633;
}
);
unicode = 0220;
},
{
color = 5;
glyphname = O;
layers = (
{
anchors = (
{
name = above;
position = "{335, 726}";
},
{
name = below;
position = "{335, 0}";
},
{
name = ogonek;
position = "{366, 0}";
}
);
layerId = UUID0;
paths = (
{
closed = 1;
nodes = (
"412 -16 OFFCURVE",
"480 19 OFFCURVE",
"539 90 CURVE SMOOTH",
"598 161 OFFCURVE",
"628 244 OFFCURVE",
"628 339 CURVE SMOOTH",
"628 435 OFFCURVE",
"598 519 OFFCURVE",
"539 590 CURVE SMOOTH",
"480 661 OFFCURVE",
"412 697 OFFCURVE",
"335 697 CURVE SMOOTH",
"258 697 OFFCURVE",
"189 661 OFFCURVE",
"130 590 CURVE SMOOTH",
"71 519 OFFCURVE",
"42 435 OFFCURVE",
"42 340 CURVE SMOOTH",
"42 244 OFFCURVE",
"71 161 OFFCURVE",
"130 90 CURVE SMOOTH",
"189 19 OFFCURVE",
"258 -16 OFFCURVE",
"335 -16 CURVE SMOOTH"
);
},
{
closed = 1;
nodes = (
"276 53 OFFCURVE",
"225 82 OFFCURVE",
"183 139 CURVE",
"142 197 OFFCURVE",
"121 264 OFFCURVE",
"121 340 CURVE SMOOTH",
"121 417 OFFCURVE",
"142 484 OFFCURVE",
"183 542 CURVE SMOOTH",
"225 600 OFFCURVE",
"276 629 OFFCURVE",
"335 629 CURVE SMOOTH",
"394 629 OFFCURVE",
"445 600 OFFCURVE",
"486 542 CURVE SMOOTH",
"528 484 OFFCURVE",
"549 417 OFFCURVE",
"549 340 CURVE SMOOTH",
"549 264 OFFCURVE",
"528 197 OFFCURVE",
"486 139 CURVE SMOOTH",
"445 82 OFFCURVE",
"394 53 OFFCURVE",
"335 53 CURVE SMOOTH"
);
}
);
width = 670;
},
{
anchors = (
{
name = bottom;
position = "{348, 0}";
},
{
name = center;
position = "{348, 341}";
},
{
name = ogonek;
position = "{626, 10}";
},
{
name = top;
position = "{348, 682}";
},
{
name = topleft;
position = "{20, 682}";
},
{
name = topright;
position = "{676, 682}";
}
);
layerId = "63224BA1-30A4-42F4-A6D1-9160F56B91B0";
paths = (
{
closed = 1;
nodes = (
"520 -16 OFFCURVE",
"641 131 OFFCURVE",
"641 339 CURVE SMOOTH",
"641 549 OFFCURVE",
"520 697 OFFCURVE",
"348 697 CURVE SMOOTH",
"176 697 OFFCURVE",
"55 549 OFFCURVE",
"55 340 CURVE SMOOTH",
"55 131 OFFCURVE",
"176 -16 OFFCURVE",
"348 -16 CURVE SMOOTH"
);
},
{
closed = 1;
nodes = (
"223 53 OFFCURVE",
"134 172 OFFCURVE",
"134 340 CURVE SMOOTH",
"134 509 OFFCURVE",
"223 629 OFFCURVE",
"348 629 CURVE SMOOTH",
"473 629 OFFCURVE",
"562 509 OFFCURVE",
"562 340 CURVE SMOOTH",
"562 172 OFFCURVE",
"473 53 OFFCURVE",
"348 53 CURVE SMOOTH"
);
}
);
width = 696;
}
);
unicode = 004F;
},
{
color = 6;
glyphname = OU;
layers = (
{
anchors = (
{
name = above;
position = "{298, 726}";
}
);
layerId = UUID0;
paths = (
{
closed = 1;
nodes = (
"346 -16 OFFCURVE",
"403 1 OFFCURVE",
"450 34 CURVE SMOOTH",
"498 67 OFFCURVE",
"522 113 OFFCURVE",
"522 170 CURVE SMOOTH",
"522 270 OFFCURVE",
"475 317 OFFCURVE",
"391 353 CURVE",
"465 391 OFFCURVE",
"502 444 OFFCURVE",
"502 512 CURVE SMOOTH",
"502 543 OFFCURVE",
"491 577 OFFCURVE",
"469 614 CURVE",
"400 582 LINE",
"406 571 LINE SMOOTH",
"410 564 OFFCURVE",
"415 555 OFFCURVE",
"420 543 CURVE SMOOTH",
"424 531 OFFCURVE",
"426 521 OFFCURVE",
"426 512 CURVE SMOOTH",
"426 475 OFFCURVE",
"411 448 OFFCURVE",
"381 429 CURVE SMOOTH",
"366 419 OFFCURVE",
"332 406 OFFCURVE",
"281 391 CURVE",
"267 396 LINE",
"240 403 OFFCURVE",
"223 408 OFFCURVE",
"215 411 CURVE SMOOTH",
"208 414 OFFCURVE",
"195 421 OFFCURVE",
"178 430 CURVE",
"145 450 OFFCURVE",
"136 473 OFFCURVE",
"136 512 CURVE SMOOTH",
"136 590 OFFCURVE",
"189 629 OFFCURVE",
"294 629 CURVE",
"294 697 LINE",
"153 697 OFFCURVE",
"60 631 OFFCURVE",
"60 512 CURVE SMOOTH",
"60 444 OFFCURVE",
"97 391 OFFCURVE",
"171 353 CURVE",
"86 317 OFFCURVE",
"40 271 OFFCURVE",
"40 170 CURVE SMOOTH",
"40 113 OFFCURVE",
"64 67 OFFCURVE",
"112 34 CURVE SMOOTH",
"160 1 OFFCURVE",
"216 -16 OFFCURVE",
"281 -16 CURVE SMOOTH"
);
},
{
closed = 1;
nodes = (
"237 53 OFFCURVE",
"198 63 OFFCURVE",
"165 83 CURVE SMOOTH",
"132 103 OFFCURVE",
"116 132 OFFCURVE",
"116 170 CURVE SMOOTH",
"116 211 OFFCURVE",
"128 241 OFFCURVE",
"152 258 CURVE SMOOTH",
"176 275 OFFCURVE",
"219 293 OFFCURVE",
"281 311 CURVE",
"344 293 OFFCURVE",
"387 275 OFFCURVE",
"410 258 CURVE SMOOTH",
"434 241 OFFCURVE",
"446 211 OFFCURVE",
"446 170 CURVE SMOOTH",
"446 132 OFFCURVE",
"430 103 OFFCURVE",
"397 83 CURVE SMOOTH",
"364 63 OFFCURVE",
"326 53 OFFCURVE",
"281 53 CURVE SMOOTH"
);
}
);
width = 562;
},
{
layerId = "63224BA1-30A4-42F4-A6D1-9160F56B91B0";
paths = (
{
closed = 1;
nodes = (
"404 -16 OFFCURVE",
"522 50 OFFCURVE",
"522 170 CURVE SMOOTH",
"522 270 OFFCURVE",
"475 317 OFFCURVE",
"361 353 CURVE",
"465 391 OFFCURVE",
"502 444 OFFCURVE",
"502 512 CURVE SMOOTH",
"502 543 OFFCURVE",
"491 577 OFFCURVE",
"469 614 CURVE",
"400 582 LINE",
"414 558 OFFCURVE",
"426 537 OFFCURVE",
"426 512 CURVE SMOOTH",
"426 437 OFFCURVE",
"371 407 OFFCURVE",
"281 381 CURVE",
"160 424 OFFCURVE",
"136 457 OFFCURVE",
"136 512 CURVE SMOOTH",
"136 590 OFFCURVE",
"189 629 OFFCURVE",
"294 629 CURVE",
"294 697 LINE",
"153 697 OFFCURVE",
"60 631 OFFCURVE",
"60 512 CURVE SMOOTH",
"60 444 OFFCURVE",
"97 391 OFFCURVE",
"201 353 CURVE",
"86 317 OFFCURVE",
"40 271 OFFCURVE",
"40 170 CURVE SMOOTH",
"40 51 OFFCURVE",
"156 -16 OFFCURVE",
"281 -16 CURVE SMOOTH"
);
},
{
closed = 1;
nodes = (
"199 53 OFFCURVE",
"116 91 OFFCURVE",
"116 180 CURVE SMOOTH",
"116 256 OFFCURVE",
"174 300 OFFCURVE",
"281 331 CURVE",
"376 305 OFFCURVE",
"446 248 OFFCURVE",
"446 180 CURVE SMOOTH",
"446 93 OFFCURVE",
"366 53 OFFCURVE",
"281 53 CURVE SMOOTH"
);
}
);
width = 562;
}
);
unicode = 0222;
},
{
color = 5;
glyphname = Oogonek;
layers = (
{
layerId = UUID0;
paths = (
{
closed = 1;
nodes = (
"441 -186 OFFCURVE",
"476 -181 OFFCURVE",
"515 -170 CURVE",
"508 -144 LINE",
"489 -148 OFFCURVE",
"471 -150 OFFCURVE",
"454 -150 CURVE SMOOTH",
"385 -150 OFFCURVE",
"351 -127 OFFCURVE",
"351 -82 CURVE SMOOTH",
"351 -41 OFFCURVE",
"358 -25 OFFCURVE",
"394 -9 CURVE",
"459 9 OFFCURVE",
"515 51 OFFCURVE",
"561 117 CURVE SMOOTH",
"607 183 OFFCURVE",
"630 257 OFFCURVE",
"630 340 CURVE SMOOTH",
"630 435 OFFCURVE",
"600 519 OFFCURVE",
"541 590 CURVE SMOOTH",
"482 661 OFFCURVE",
"414 697 OFFCURVE",
"337 697 CURVE SMOOTH",
"260 697 OFFCURVE",
"191 661 OFFCURVE",
"132 590 CURVE SMOOTH",
"73 519 OFFCURVE",
"44 435 OFFCURVE",
"44 340 CURVE SMOOTH",
"44 249 OFFCURVE",
"71 169 OFFCURVE",
"126 99 CURVE SMOOTH",
"181 30 OFFCURVE",
"245 -8 OFFCURVE",
"318 -15 CURVE",
"296 -33 OFFCURVE",
"285 -58 OFFCURVE",
"285 -91 CURVE SMOOTH",
"285 -154 OFFCURVE",
"327 -186 OFFCURVE",
"411 -186 CURVE SMOOTH"
);
},
{
closed = 1;
nodes = (
"278 53 OFFCURVE",
"227 82 OFFCURVE",
"185 139 CURVE",
"144 197 OFFCURVE",
"123 264 OFFCURVE",
"123 340 CURVE SMOOTH",
"123 417 OFFCURVE",
"144 484 OFFCURVE",
"185 542 CURVE SMOOTH",
"227 600 OFFCURVE",
"278 629 OFFCURVE",
"337 629 CURVE SMOOTH",
"396 629 OFFCURVE",
"447 600 OFFCURVE",
"488 542 CURVE SMOOTH",
"530 484 OFFCURVE",
"551 417 OFFCURVE",
"551 340 CURVE SMOOTH",
"551 264 OFFCURVE",
"530 197 OFFCURVE",
"488 139 CURVE SMOOTH",
"447 82 OFFCURVE",
"396 53 OFFCURVE",
"337 53 CURVE SMOOTH"
);
}
);
width = 674;
},
{
components = (
{
name = O;
},
{
name = ogonekcomb;
transform = "{1, 0, 0, 1, 444, 10}";
}
);
layerId = "63224BA1-30A4-42F4-A6D1-9160F56B91B0";
width = 696;
}
);
unicode = 01EA;
},
{
color = 6;
glyphname = Oopen;
layers = (
{
anchors = (
{
name = above;
position = "{248, 726}";
}
);
layerId = UUID0;
paths = (
{
closed = 1;
nodes = (
"329 -16 OFFCURVE",
"394 19 OFFCURVE",
"447 89 CURVE SMOOTH",
"501 160 OFFCURVE",
"528 243 OFFCURVE",
"528 340 CURVE SMOOTH",
"528 437 OFFCURVE",
"501 521 OFFCURVE",
"447 591 CURVE",
"394 662 OFFCURVE",
"329 697 OFFCURVE",
"253 697 CURVE SMOOTH",
"164 697 OFFCURVE",
"88 644 OFFCURVE",
"26 537 CURVE",
"91 502 LINE",
"136 586 OFFCURVE",
"190 628 OFFCURVE",
"253 628 CURVE SMOOTH",
"312 628 OFFCURVE",
"359 600 OFFCURVE",
"396 543 CURVE SMOOTH",
"433 486 OFFCURVE",
"452 419 OFFCURVE",
"452 341 CURVE SMOOTH",
"452 263 OFFCURVE",
"433 195 OFFCURVE",
"396 138 CURVE SMOOTH",
"359 81 OFFCURVE",
"311 52 OFFCURVE",
"253 52 CURVE SMOOTH",
"195 52 OFFCURVE",
"143 90 OFFCURVE",
"97 166 CURVE",
"38 124 LINE",
"98 31 OFFCURVE",
"170 -16 OFFCURVE",
"253 -16 CURVE SMOOTH"
);
}
);
width = 571;
},
{
background = {
components = (
{
name = C;
transform = "{-1, 0, 0, 1, 625, 0}";
}
);
};
components = (
{
name = C;
transform = "{-1, 0, 0, 1, 605, 0}";
}
);
layerId = "63224BA1-30A4-42F4-A6D1-9160F56B91B0";
width = 605;
}
);
unicode = 0186;
},
{
color = 5;
glyphname = Oslash;
layers = (
{
anchors = (
{
name = above;
position = "{335, 726}";
}
);
layerId = UUID0;
paths = (
{
closed = 1;
nodes = (
"209 20 LINE",
"248 -4 OFFCURVE",
"290 -16 OFFCURVE",
"335 -16 CURVE SMOOTH",
"412 -16 OFFCURVE",
"481 19 OFFCURVE",
"540 90 CURVE SMOOTH",
"599 161 OFFCURVE",
"628 244 OFFCURVE",
"628 340 CURVE SMOOTH",
"628 435 OFFCURVE",
"599 519 OFFCURVE",
"540 590 CURVE SMOOTH",
"525 607 OFFCURVE",
"511 622 OFFCURVE",
"496 635 CURVE",
"530 709 LINE",
"484 730 LINE",
"454 665 LINE",
"417 686 OFFCURVE",
"378 697 OFFCURVE",
"335 697 CURVE SMOOTH",
"258 697 OFFCURVE",
"189 661 OFFCURVE",
"130 590 CURVE SMOOTH",
"71 519 OFFCURVE",
"42 435 OFFCURVE",
"42 340 CURVE SMOOTH",
"42 244 OFFCURVE",
"71 161 OFFCURVE",
"130 90 CURVE SMOOTH",
"142 76 OFFCURVE",
"155 63 OFFCURVE",
"168 51 CURVE",
"133 -23 LINE",
"179 -45 LINE"
);
},
{
closed = 1;
nodes = (
"184 139 LINE SMOOTH",
"142 197 OFFCURVE",
"121 264 OFFCURVE",
"121 340 CURVE SMOOTH",
"121 417 OFFCURVE",
"142 484 OFFCURVE",
"184 542 CURVE SMOOTH",
"225 600 OFFCURVE",
"276 629 OFFCURVE",
"335 629 CURVE SMOOTH",
"368 629 OFFCURVE",
"398 620 OFFCURVE",
"425 603 CURVE",
"199 119 LINE"
);
},
{
closed = 1;
nodes = (
"300 53 OFFCURVE",
"268 63 OFFCURVE",
"239 83 CURVE",
"465 569 LINE",
"486 542 LINE",
"528 484 OFFCURVE",
"549 417 OFFCURVE",
"549 340 CURVE SMOOTH",
"549 264 OFFCURVE",
"528 197 OFFCURVE",
"486 139 CURVE SMOOTH",
"445 82 OFFCURVE",
"394 53 OFFCURVE",
"335 53 CURVE SMOOTH"
);
}
);
width = 670;
},
{
background = {
anchors = (
{
name = bottom;
position = "{348, 0}";
},
{
name = center;
position = "{348, 341}";
},
{
name = ogonek;
position = "{626, 10}";
},
{
name = top;
position = "{348, 682}";
},
{
name = topleft;
position = "{20, 682}";
},
{
name = topright;
position = "{676, 682}";
}
);
components = (
{
name = O;
},
{
name = slashlongcomb;
}
);
};
components = (
{
name = O;
}
);
layerId = "63224BA1-30A4-42F4-A6D1-9160F56B91B0";
paths = (
{
closed = 1;
nodes = (
"545 720 LINE",
"493 743 LINE",
"124 -39 LINE",
"173 -63 LINE"
);
}
);
width = 696;
}
);
leftMetricsKey = O;
rightMetricsKey = O;
unicode = 00D8;
},
{
color = 5;
glyphname = OE;
layers = (
{
anchors = (
{
name = above;
position = "{466, 726}";
}
);
layerId = UUID0;
paths = (
{
closed = 1;
nodes = (
"362 -16 OFFCURVE",
"390 -11 OFFCURVE",
"417 0 CURVE",
"791 0 LINE",
"791 62 LINE",
"481 62 LINE",
"481 340 LINE",
"721 340 LINE",
"721 401 LINE",
"481 401 LINE",
"481 619 LINE",
"788 619 LINE",
"788 682 LINE",
"415 682 LINE",
"388 692 OFFCURVE",
"361 697 OFFCURVE",
"335 697 CURVE SMOOTH",
"282 697 OFFCURVE",
"232 679 OFFCURVE",
"186 644 CURVE SMOOTH",
"140 609 OFFCURVE",
"104 564 OFFCURVE",
"79 509 CURVE SMOOTH",
"54 454 OFFCURVE",
"42 398 OFFCURVE",
"42 340 CURVE SMOOTH",
"42 224 OFFCURVE",
"94 108 OFFCURVE",
"186 37 CURVE SMOOTH",
"232 2 OFFCURVE",
"282 -16 OFFCURVE",
"335 -16 CURVE SMOOTH"
);
},
{
closed = 1;
nodes = (
"208 51 OFFCURVE",
"118 207 OFFCURVE",
"121 340 CURVE",
"118 473 OFFCURVE",
"208 631 OFFCURVE",
"335 629 CURVE",
"406 629 LINE",
"406 53 LINE",
"335 53 LINE"
);
}
);
width = 829;
},
{
background = {
anchors = (
{
name = bottom;
position = "{1072, 0}";
},
{
name = center;
position = "{348, 341}";
},
{
name = ogonek;
position = "{1234, 0}";
},
{
name = top;
position = "{1082, 682}";
},
{
name = topleft;
position = "{820, 682}";
},
{
name = topright;
position = "{676, 682}";
}
);
paths = (
{
closed = 1;
nodes = (
"436 75 LINE",
"410 61 OFFCURVE",
"380 53 OFFCURVE",
"348 53 CURVE SMOOTH",
"223 53 OFFCURVE",
"134 172 OFFCURVE",
"134 340 CURVE SMOOTH",
"134 509 OFFCURVE",
"223 629 OFFCURVE",
"348 629 CURVE SMOOTH",
"385 629 OFFCURVE",
"419 618 OFFCURVE",
"448 599 CURVE",
"494 655 LINE",
"452 682 OFFCURVE",
"403 697 OFFCURVE",
"348 697 CURVE SMOOTH",
"176 697 OFFCURVE",
"55 549 OFFCURVE",
"55 340 CURVE SMOOTH",
"55 131 OFFCURVE",
"176 -16 OFFCURVE",
"348 -16 CURVE SMOOTH",
"393 -16 OFFCURVE",
"435 -6 OFFCURVE",
"471 13 CURVE"
);
},
{
closed = 1;
nodes = (
"791 0 LINE",
"791 62 LINE",
"481 62 LINE",
"481 320 LINE",
"721 320 LINE",
"721 381 LINE",
"481 381 LINE",
"481 619 LINE",
"788 619 LINE",
"788 682 LINE",
"406 682 LINE",
"406 0 LINE"
);
}
);
};
layerId = "63224BA1-30A4-42F4-A6D1-9160F56B91B0";
paths = (
{
closed = 1;
nodes = (
"393 -16 OFFCURVE",
"435 -6 OFFCURVE",
"471 13 CURVE",
"436 75 LINE",
"410 61 OFFCURVE",
"380 53 OFFCURVE",
"348 53 CURVE SMOOTH",
"223 53 OFFCURVE",
"134 172 OFFCURVE",
"134 340 CURVE SMOOTH",
"134 509 OFFCURVE",
"223 629 OFFCURVE",
"348 629 CURVE SMOOTH",
"385 629 OFFCURVE",
"419 618 OFFCURVE",
"448 599 CURVE",
"494 655 LINE",
"452 682 OFFCURVE",
"403 697 OFFCURVE",
"348 697 CURVE SMOOTH",
"176 697 OFFCURVE",
"55 549 OFFCURVE",
"55 340 CURVE SMOOTH",
"55 131 OFFCURVE",
"176 -16 OFFCURVE",
"348 -16 CURVE SMOOTH"
);
},
{
closed = 1;
nodes = (
"791 0 LINE",
"791 62 LINE",
"481 62 LINE",
"481 320 LINE",
"721 320 LINE",
"721 381 LINE",
"481 381 LINE",
"481 619 LINE",
"788 619 LINE",
"788 682 LINE",
"406 682 LINE",
"406 0 LINE"
);
}
);
width = 830;
}
);
leftMetricsKey = O;
rightMetricsKey = E;
unicode = 0152;
},
{
color = 5;
glyphname = P;
layers = (
{
anchors = (
{
name = above;
position = "{280, 726}";
},
{
name = below;
position = "{196, 0}";
}
);
layerId = UUID0;
paths = (
{
closed = 1;
nodes = (
"154 0 LINE",
"154 281 LINE",
"299 281 LINE SMOOTH",
"363 281 OFFCURVE",
"418 298 OFFCURVE",
"465 333 CURVE SMOOTH",
"512 368 OFFCURVE",
"536 417 OFFCURVE",
"536 481 CURVE SMOOTH",
"536 546 OFFCURVE",
"512 595 OFFCURVE",
"464 630 CURVE SMOOTH",
"417 665 OFFCURVE",
"361 682 OFFCURVE",
"297 682 CURVE SMOOTH",
"79 682 LINE",
"79 0 LINE"
);
},
{
closed = 1;
nodes = (
"154 619 LINE",
"297 619 LINE",
"388 619 OFFCURVE",
"454 570 OFFCURVE",
"454 481 CURVE SMOOTH",
"454 393 OFFCURVE",
"388 344 OFFCURVE",
"297 344 CURVE SMOOTH",
"154 344 LINE"
);
}
);
width = 557;
},
{
anchors = (
{
name = bottom;
position = "{268, 0}";
},
{
name = top;
position = "{268, 682}";
}
);
background = {
components = (
{
name = O;
transform = "{1, 0, 0, 1, -94, 141}";
}
);
};
layerId = "63224BA1-30A4-42F4-A6D1-9160F56B91B0";
paths = (
{
closed = 1;
nodes = (
"155 0 LINE",
"155 261 LINE",
"300 261 LINE SMOOTH",
"425 261 OFFCURVE",
"510 338 OFFCURVE",
"510 471 CURVE SMOOTH",
"510 605 OFFCURVE",
"429 682 OFFCURVE",
"308 682 CURVE SMOOTH",
"80 682 LINE",
"80 0 LINE"
);
},
{
closed = 1;
nodes = (
"155 620 LINE",
"298 620 LINE",
"388 620 OFFCURVE",
"435 568 OFFCURVE",
"435 471 CURVE SMOOTH",
"435 374 OFFCURVE",
"388 323 OFFCURVE",
"298 323 CURVE SMOOTH",
"155 323 LINE"
);
}
);
width = 535;
}
);
leftMetricsKey = H;
unicode = 0050;
},
{
color = 6;
glyphname = Phook;
layers = (
{
layerId = UUID0;
paths = (
{
closed = 1;
nodes = (
"278 0 LINE",
"278 281 LINE",
"423 281 LINE SMOOTH",
"487 281 OFFCURVE",
"542 298 OFFCURVE",
"589 333 CURVE SMOOTH",
"636 368 OFFCURVE",
"660 417 OFFCURVE",
"660 481 CURVE SMOOTH",
"660 546 OFFCURVE",
"636 595 OFFCURVE",
"588 630 CURVE SMOOTH",
"541 665 OFFCURVE",
"485 682 OFFCURVE",
"421 682 CURVE SMOOTH",
"176 682 LINE SMOOTH",
"135 682 OFFCURVE",
"99 668 OFFCURVE",
"70 639 CURVE SMOOTH",
"41 610 OFFCURVE",
"27 575 OFFCURVE",
"27 534 CURVE SMOOTH",
"27 426 LINE",
"90 426 LINE",
"90 534 LINE",
"90 579 OFFCURVE",
"129 614 OFFCURVE",
"176 614 CURVE SMOOTH",
"203 614 LINE",
"203 0 LINE"
);
},
{
closed = 1;
nodes = (
"278 619 LINE",
"421 619 LINE",
"512 619 OFFCURVE",
"578 570 OFFCURVE",
"578 481 CURVE SMOOTH",
"578 393 OFFCURVE",
"512 344 OFFCURVE",
"421 344 CURVE SMOOTH",
"278 344 LINE"
);
}
);
width = 681;
},
{
background = {
components = (
{
name = P;
transform = "{1, 0, 0, 1, 122, 0}";
}
);
};
components = (
{
name = P;
transform = "{1, 0, 0, 1, 122, 0}";
}
);
layerId = "63224BA1-30A4-42F4-A6D1-9160F56B91B0";
paths = (
{
closed = 1;
nodes = (
"218 682 LINE",
"176 682 LINE SMOOTH",
"91 682 OFFCURVE",
"27 616 OFFCURVE",
"27 534 CURVE SMOOTH",
"27 426 LINE",
"90 426 LINE",
"90 534 LINE SMOOTH",
"90 582 OFFCURVE",
"129 614 OFFCURVE",
"176 614 CURVE SMOOTH",
"218 614 LINE"
);
}
);
width = 657;
}
);
rightMetricsKey = P;
unicode = 01A4;
},
{
color = 5;
glyphname = Thorn;
layers = (
{
layerId = UUID0;
paths = (
{
closed = 1;
nodes = (
"154 0 LINE",
"154 171 LINE",
"288 171 LINE SMOOTH",
"345 171 OFFCURVE",
"393 187 OFFCURVE",
"434 218 CURVE SMOOTH",
"475 250 OFFCURVE",
"495 291 OFFCURVE",
"495 342 CURVE SMOOTH",
"495 393 OFFCURVE",
"474 434 OFFCURVE",
"433 465 CURVE SMOOTH",
"392 497 OFFCURVE",
"343 513 OFFCURVE",
"286 513 CURVE SMOOTH",
"154 513 LINE",
"154 682 LINE",
"79 682 LINE",
"79 0 LINE"
);
},
{
closed = 1;
nodes = (
"154 450 LINE",
"286 450 LINE",
"359 450 OFFCURVE",
"413 406 OFFCURVE",
"413 341 CURVE SMOOTH",
"413 277 OFFCURVE",
"359 232 OFFCURVE",
"286 232 CURVE SMOOTH",
"154 232 LINE"
);
}
);
width = 513;
},
{
background = {
paths = (
{
closed = 1;
nodes = (
"156 0 LINE",
"156 161 LINE",
"301 161 LINE SMOOTH",
"426 161 OFFCURVE",
"511 238 OFFCURVE",
"511 371 CURVE SMOOTH",
"511 505 OFFCURVE",
"430 582 OFFCURVE",
"309 582 CURVE SMOOTH",
"81 582 LINE",
"81 0 LINE"
);
},
{
closed = 1;
nodes = (
"299 520 LINE",
"389 520 OFFCURVE",
"436 468 OFFCURVE",
"436 371 CURVE SMOOTH",
"436 274 OFFCURVE",
"389 223 OFFCURVE",
"299 223 CURVE SMOOTH",
"156 223 LINE",
"156 520 LINE"
);
}
);
};
layerId = "63224BA1-30A4-42F4-A6D1-9160F56B91B0";
paths = (
{
closed = 1;
nodes = (
"156 0 LINE",
"156 181 LINE",
"291 181 LINE SMOOTH",
"416 181 OFFCURVE",
"501 255 OFFCURVE",
"501 381 CURVE SMOOTH",
"501 508 OFFCURVE",
"420 582 OFFCURVE",
"299 582 CURVE SMOOTH",
"155 582 LINE",
"155 682 LINE",
"80 682 LINE",
"80 0 LINE"
);
},
{
closed = 1;
nodes = (
"156 520 LINE",
"289 520 LINE SMOOTH",
"379 520 OFFCURVE",
"426 472 OFFCURVE",
"426 381 CURVE SMOOTH",
"426 290 OFFCURVE",
"379 243 OFFCURVE",
"289 243 CURVE SMOOTH",
"156 243 LINE"
);
}
);
width = 526;
}
);
leftMetricsKey = H;
rightMetricsKey = P;
unicode = 00DE;
},
{
color = 5;
glyphname = Q;
layers = (
{
layerId = UUID0;
paths = (
{
closed = 1;
nodes = (
"608 14 LINE",
"536 86 LINE",
"597 157 OFFCURVE",
"628 242 OFFCURVE",
"628 340 CURVE SMOOTH",
"628 435 OFFCURVE",
"598 519 OFFCURVE",
"539 590 CURVE SMOOTH",
"480 661 OFFCURVE",
"412 697 OFFCURVE",
"335 697 CURVE SMOOTH",
"258 697 OFFCURVE",
"189 661 OFFCURVE",
"130 590 CURVE SMOOTH",
"71 519 OFFCURVE",
"42 435 OFFCURVE",
"42 340 CURVE SMOOTH",
"42 244 OFFCURVE",
"71 161 OFFCURVE",
"130 90 CURVE SMOOTH",
"189 19 OFFCURVE",
"258 -16 OFFCURVE",
"335 -16 CURVE SMOOTH",
"391 -16 OFFCURVE",
"443 4 OFFCURVE",
"491 43 CURVE",
"564 -29 LINE"
);
},
{
closed = 1;
nodes = (
"276 53 OFFCURVE",
"225 82 OFFCURVE",
"183 139 CURVE",
"142 197 OFFCURVE",
"121 264 OFFCURVE",
"121 340 CURVE SMOOTH",
"121 417 OFFCURVE",
"142 484 OFFCURVE",
"183 542 CURVE SMOOTH",
"225 600 OFFCURVE",
"276 629 OFFCURVE",
"335 629 CURVE SMOOTH",
"394 629 OFFCURVE",
"445 600 OFFCURVE",
"486 542 CURVE SMOOTH",
"528 484 OFFCURVE",
"549 417 OFFCURVE",
"549 340 CURVE SMOOTH",
"549 261 OFFCURVE",
"528 193 OFFCURVE",
"485 137 CURVE",
"410 211 LINE",
"366 167 LINE",
"442 92 LINE",
"411 66 OFFCURVE",
"375 53 OFFCURVE",
"335 53 CURVE SMOOTH"
);
}
);
width = 670;
},
{
anchors = (
{
name = bottom;
position = "{335, 0}";
},
{
name = top;
position = "{335, 682}";
}
);
background = {
paths = (
{
closed = 1;
nodes = (
"455 103 LINE",
"421 70 OFFCURVE",
"381 53 OFFCURVE",
"335 53 CURVE SMOOTH",
"276 53 OFFCURVE",
"225 82 OFFCURVE",
"183 139 CURVE",
"142 197 OFFCURVE",
"121 264 OFFCURVE",
"121 340 CURVE SMOOTH",
"121 417 OFFCURVE",
"142 484 OFFCURVE",
"183 542 CURVE SMOOTH",
"225 600 OFFCURVE",
"276 629 OFFCURVE",
"335 629 CURVE SMOOTH",
"394 629 OFFCURVE",
"445 600 OFFCURVE",
"486 542 CURVE SMOOTH",
"528 484 OFFCURVE",
"549 417 OFFCURVE",
"549 340 CURVE SMOOTH",
"549 255 OFFCURVE",
"525 183 OFFCURVE",
"475 125 CURVE",
"525 74 LINE",
"593 147 OFFCURVE",
"628 236 OFFCURVE",
"628 340 CURVE SMOOTH",
"628 435 OFFCURVE",
"598 519 OFFCURVE",
"539 590 CURVE SMOOTH",
"480 661 OFFCURVE",
"412 697 OFFCURVE",
"335 697 CURVE SMOOTH",
"258 697 OFFCURVE",
"189 661 OFFCURVE",
"130 590 CURVE SMOOTH",
"71 519 OFFCURVE",
"42 435 OFFCURVE",
"42 340 CURVE SMOOTH",
"42 244 OFFCURVE",
"71 161 OFFCURVE",
"130 90 CURVE SMOOTH",
"189 19 OFFCURVE",
"258 -16 OFFCURVE",
"335 -16 CURVE SMOOTH",
"396 -16 OFFCURVE",
"453 8 OFFCURVE",
"504 55 CURVE"
);
},
{
closed = 1;
nodes = (
"564 -29 LINE",
"608 14 LINE",
"525 97 LINE",
"496 126 LINE",
"410 211 LINE",
"366 167 LINE"
);
}
);
};
components = (
{
name = O;
}
);
layerId = "63224BA1-30A4-42F4-A6D1-9160F56B91B0";
paths = (
{
closed = 1;
nodes = (
"608 14 LINE",
"410 211 LINE",
"366 167 LINE",
"564 -29 LINE"
);
}
);
width = 670;
}
);
unicode = 0051;
},
{
color = 6;
glyphname = Qhooktail;
layers = (
{
layerId = UUID0;
paths = (
{
closed = 1;
nodes = (
"740 -200 LINE",
"740 -132 LINE",
"713 -132 LINE SMOOTH",
"666 -132 OFFCURVE",
"628 -97 OFFCURVE",
"628 -52 CURVE SMOOTH",
"629 682 LINE",
"554 682 LINE",
"554 538 LINE",
"545 559 OFFCURVE",
"533 579 OFFCURVE",
"520 598 CURVE SMOOTH",
"473 664 OFFCURVE",
"412 697 OFFCURVE",
"335 697 CURVE SMOOTH",
"282 697 OFFCURVE",
"232 679 OFFCURVE",
"186 644 CURVE SMOOTH",
"140 609 OFFCURVE",
"104 564 OFFCURVE",
"79 509 CURVE SMOOTH",
"30 400 OFFCURVE",
"30 280 OFFCURVE",
"79 171 CURVE SMOOTH",
"104 117 OFFCURVE",
"140 72 OFFCURVE",
"186 37 CURVE SMOOTH",
"232 2 OFFCURVE",
"282 -16 OFFCURVE",
"336 -16 CURVE SMOOTH",
"390 -16 OFFCURVE",
"435 0 OFFCURVE",
"471 33 CURVE SMOOTH",
"508 66 OFFCURVE",
"535 103 OFFCURVE",
"554 146 CURVE",
"554 -52 LINE SMOOTH",
"554 -91 OFFCURVE",
"570 -126 OFFCURVE",
"602 -155 CURVE SMOOTH",
"635 -185 OFFCURVE",
"672 -200 OFFCURVE",
"713 -200 CURVE SMOOTH"
);
},
{
closed = 1;
nodes = (
"293 53 OFFCURVE",
"255 68 OFFCURVE",
"222 97 CURVE SMOOTH",
"189 126 OFFCURVE",
"164 163 OFFCURVE",
"147 206 CURVE SMOOTH",
"112 293 OFFCURVE",
"112 387 OFFCURVE",
"147 474 CURVE SMOOTH",
"182 562 OFFCURVE",
"251 629 OFFCURVE",
"335 629 CURVE SMOOTH",
"394 629 OFFCURVE",
"445 600 OFFCURVE",
"488 541 CURVE",
"532 483 OFFCURVE",
"554 416 OFFCURVE",
"554 340 CURVE SMOOTH",
"554 255 OFFCURVE",
"516 160 OFFCURVE",
"447 99 CURVE SMOOTH",
"413 68 OFFCURVE",
"375 53 OFFCURVE",
"334 53 CURVE SMOOTH"
);
}
);
width = 706;
},
{
background = {
components = (
{
name = "Alpha-latin";
}
);
};
components = (
{
name = "Alpha-latin";
}
);
layerId = "63224BA1-30A4-42F4-A6D1-9160F56B91B0";
paths = (
{
closed = 1;
nodes = (
"553 24 LINE",
"553 -52 LINE SMOOTH",
"553 -162 OFFCURVE",
"622 -200 OFFCURVE",
"713 -200 CURVE SMOOTH",
"740 -200 LINE",
"740 -132 LINE",
"713 -132 LINE SMOOTH",
"656 -132 OFFCURVE",
"628 -107 OFFCURVE",
"628 -52 CURVE SMOOTH",
"628 24 LINE"
);
}
);
width = 706;
}
);
unicode = 024A;
},
{
color = 5;
glyphname = R;
layers = (
{
anchors = (
{
name = above;
position = "{299, 726}";
},
{
name = below;
position = "{293, 0}";
}
);
layerId = UUID0;
paths = (
{
closed = 1;
nodes = (
"154 0 LINE",
"154 281 LINE",
"299 281 LINE",
"300 281 LINE",
"462 0 LINE",
"545 0 LINE",
"377 291 LINE",
"470 316 OFFCURVE",
"536 380 OFFCURVE",
"536 481 CURVE SMOOTH",
"536 546 OFFCURVE",
"512 595 OFFCURVE",
"464 630 CURVE SMOOTH",
"417 665 OFFCURVE",
"361 682 OFFCURVE",
"297 682 CURVE SMOOTH",
"79 682 LINE",
"79 0 LINE"
);
},
{
closed = 1;
nodes = (
"154 619 LINE",
"297 619 LINE",
"388 619 OFFCURVE",
"454 570 OFFCURVE",
"454 481 CURVE SMOOTH",
"454 393 OFFCURVE",
"388 344 OFFCURVE",
"297 344 CURVE SMOOTH",
"154 344 LINE"
);
}
);
width = 580;
},
{
anchors = (
{
name = bottom;
position = "{290, 0}";
},
{
name = top;
position = "{290, 682}";
}
);
background = {
components = (
{
name = P;
}
);
};
layerId = "63224BA1-30A4-42F4-A6D1-9160F56B91B0";
paths = (
{
closed = 1;
nodes = (
"154 0 LINE",
"154 301 LINE",
"299 301 LINE SMOOTH",
"424 301 OFFCURVE",
"513 380 OFFCURVE",
"513 491 CURVE SMOOTH",
"513 603 OFFCURVE",
"434 682 OFFCURVE",
"307 682 CURVE SMOOTH",
"79 682 LINE",
"79 0 LINE"
);
},
{
closed = 1;
nodes = (
"541 0 LINE",
"351 330 LINE",
"278 320 LINE",
"462 0 LINE"
);
},
{
closed = 1;
nodes = (
"154 620 LINE",
"297 620 LINE",
"387 620 OFFCURVE",
"434 566 OFFCURVE",
"434 491 CURVE SMOOTH",
"434 416 OFFCURVE",
"387 363 OFFCURVE",
"297 363 CURVE SMOOTH",
"154 363 LINE"
);
}
);
width = 580;
}
);
unicode = 0052;
},
{
color = 6;
glyphname = Rstroke;
layers = (
{
layerId = UUID0;
paths = (
{
closed = 1;
nodes = (
"234 0 LINE",
"234 281 LINE",
"379 281 LINE",
"380 281 LINE",
"542 0 LINE",
"625 0 LINE",
"457 291 LINE",
"550 316 OFFCURVE",
"616 380 OFFCURVE",
"616 481 CURVE SMOOTH",
"616 546 OFFCURVE",
"592 595 OFFCURVE",
"544 630 CURVE SMOOTH",
"497 665 OFFCURVE",
"441 682 OFFCURVE",
"377 682 CURVE SMOOTH",
"159 682 LINE",
"159 344 LINE",
"9 344 LINE",
"9 281 LINE",
"159 281 LINE",
"159 0 LINE"
);
},
{
closed = 1;
nodes = (
"234 619 LINE",
"377 619 LINE",
"468 619 OFFCURVE",
"534 570 OFFCURVE",
"534 481 CURVE SMOOTH",
"534 393 OFFCURVE",
"468 344 OFFCURVE",
"377 344 CURVE SMOOTH",
"234 344 LINE"
);
}
);
width = 660;
},
{
background = {
anchors = (
{
name = _center;
position = "{181, 325}";
},
{
name = bottom;
position = "{370, 0}";
},
{
name = top;
position = "{370, 682}";
}
);
paths = (
{
closed = 1;
nodes = (
"443 309 LINE",
"533 331 OFFCURVE",
"593 400 OFFCURVE",
"593 491 CURVE SMOOTH",
"593 603 OFFCURVE",
"514 682 OFFCURVE",
"387 682 CURVE SMOOTH",
"159 682 LINE",
"159 363 LINE",
"50 363 LINE",
"50 301 LINE",
"159 301 LINE",
"159 0 LINE",
"234 0 LINE",
"234 301 LINE",
"369 301 LINE",
"542 0 LINE",
"621 0 LINE"
);
},
{
closed = 1;
nodes = (
"234 620 LINE",
"377 620 LINE SMOOTH",
"467 620 OFFCURVE",
"514 566 OFFCURVE",
"514 491 CURVE SMOOTH",
"514 416 OFFCURVE",
"467 363 OFFCURVE",
"377 363 CURVE SMOOTH",
"234 363 LINE"
);
}
);
};
layerId = "63224BA1-30A4-42F4-A6D1-9160F56B91B0";
paths = (
{
closed = 1;
nodes = (
"443 309 LINE",
"533 331 OFFCURVE",
"593 400 OFFCURVE",
"593 491 CURVE SMOOTH",
"593 603 OFFCURVE",
"514 682 OFFCURVE",
"387 682 CURVE SMOOTH",
"159 682 LINE",
"159 363 LINE",
"50 363 LINE",
"50 301 LINE",
"159 301 LINE",
"159 0 LINE",
"234 0 LINE",
"234 301 LINE",
"369 301 LINE",
"542 0 LINE",
"621 0 LINE"
);
},
{
closed = 1;
nodes = (
"234 620 LINE",
"377 620 LINE SMOOTH",
"467 620 OFFCURVE",
"514 566 OFFCURVE",
"514 491 CURVE SMOOTH",
"514 416 OFFCURVE",
"467 363 OFFCURVE",
"377 363 CURVE SMOOTH",
"234 363 LINE"
);
}
);
width = 660;
}
);
rightMetricsKey = R;
unicode = 024C;
},
{
color = 6;
glyphname = Rtail;
layers = (
{
layerId = UUID0;
paths = (
{
closed = 1;
nodes = (
"267 -200 LINE",
"267 -132 LINE",
"240 -132 LINE SMOOTH",
"193 -132 OFFCURVE",
"154 -97 OFFCURVE",
"154 -52 CURVE SMOOTH",
"154 281 LINE",
"300 281 LINE",
"462 0 LINE",
"545 0 LINE",
"377 291 LINE",
"470 316 OFFCURVE",
"536 380 OFFCURVE",
"536 481 CURVE SMOOTH",
"536 546 OFFCURVE",
"512 595 OFFCURVE",
"464 630 CURVE SMOOTH",
"417 665 OFFCURVE",
"361 682 OFFCURVE",
"297 682 CURVE SMOOTH",
"79 682 LINE",
"79 -52 LINE",
"79 -92 OFFCURVE",
"95 -127 OFFCURVE",
"128 -156 CURVE SMOOTH",
"161 -185 OFFCURVE",
"199 -200 OFFCURVE",
"240 -200 CURVE SMOOTH"
);
},
{
closed = 1;
nodes = (
"154 619 LINE",
"297 619 LINE",
"388 619 OFFCURVE",
"454 570 OFFCURVE",
"454 481 CURVE SMOOTH",
"454 393 OFFCURVE",
"388 344 OFFCURVE",
"297 344 CURVE SMOOTH",
"154 344 LINE"
);
}
);
width = 580;
},
{
background = {
components = (
{
name = R;
}
);
};
components = (
{
name = R;
}
);
layerId = "63224BA1-30A4-42F4-A6D1-9160F56B91B0";
paths = (
{
closed = 1;
nodes = (
"79 24 LINE",
"79 -52 LINE SMOOTH",
"79 -162 OFFCURVE",
"148 -200 OFFCURVE",
"239 -200 CURVE SMOOTH",
"266 -200 LINE",
"266 -132 LINE",
"239 -132 LINE SMOOTH",
"182 -132 OFFCURVE",
"154 -107 OFFCURVE",
"154 -52 CURVE SMOOTH",
"154 24 LINE"
);
}
);
width = 580;
}
);
unicode = 2C64;
},
{
color = 5;
glyphname = S;
layers = (
{
anchors = (
{
name = above;
position = "{280, 726}";
},
{
name = ogonek;
position = "{263, 0}";
}
);
layerId = UUID0;
paths = (
{
closed = 1;
nodes = (
"419 -16 OFFCURVE",
"514 50 OFFCURVE",
"514 170 CURVE SMOOTH",
"514 242 OFFCURVE",
"484 295 OFFCURVE",
"425 329 CURVE SMOOTH",
"405 341 OFFCURVE",
"361 358 OFFCURVE",
"294 381 CURVE SMOOTH",
"287 384 OFFCURVE",
"274 388 OFFCURVE",
"256 393 CURVE SMOOTH",
"238 398 OFFCURVE",
"225 402 OFFCURVE",
"217 405 CURVE SMOOTH",
"209 408 OFFCURVE",
"198 413 OFFCURVE",
"185 420 CURVE SMOOTH",
"148 440 OFFCURVE",
"137 461 OFFCURVE",
"133 512 CURVE",
"133 592 OFFCURVE",
"175 629 OFFCURVE",
"276 629 CURVE SMOOTH",
"337 629 OFFCURVE",
"391 597 OFFCURVE",
"438 533 CURVE",
"494 580 LINE",
"434 658 OFFCURVE",
"361 697 OFFCURVE",
"276 697 CURVE SMOOTH",
"137 697 OFFCURVE",
"57 632 OFFCURVE",
"57 512 CURVE SMOOTH",
"57 403 OFFCURVE",
"134 346 OFFCURVE",
"278 307 CURVE SMOOTH",
"337 291 OFFCURVE",
"378 274 OFFCURVE",
"402 256 CURVE SMOOTH",
"426 238 OFFCURVE",
"438 209 OFFCURVE",
"438 170 CURVE SMOOTH",
"438 89 OFFCURVE",
"383 53 OFFCURVE",
"263 53 CURVE SMOOTH",
"196 53 OFFCURVE",
"130 99 OFFCURVE",
"90 167 CURVE",
"31 125 LINE",
"86 40 OFFCURVE",
"174 -16 OFFCURVE",
"263 -16 CURVE SMOOTH"
);
}
);
width = 552;
},
{
anchors = (
{
name = bottom;
position = "{292, 0}";
},
{
name = top;
position = "{292, 682}";
}
);
background = {
paths = (
{
closed = 1;
nodes = (
"361 291 OFFCURVE",
"402 274 OFFCURVE",
"426 256 CURVE SMOOTH",
"450 238 OFFCURVE",
"462 209 OFFCURVE",
"462 170 CURVE SMOOTH",
"462 89 OFFCURVE",
"407 53 OFFCURVE",
"287 53 CURVE SMOOTH",
"220 53 OFFCURVE",
"154 99 OFFCURVE",
"114 167 CURVE",
"55 125 LINE",
"110 40 OFFCURVE",
"198 -16 OFFCURVE",
"287 -16 CURVE SMOOTH",
"443 -16 OFFCURVE",
"538 50 OFFCURVE",
"538 170 CURVE SMOOTH",
"538 242 OFFCURVE",
"508 295 OFFCURVE",
"449 329 CURVE SMOOTH",
"429 341 OFFCURVE",
"385 358 OFFCURVE",
"318 381 CURVE SMOOTH",
"311 384 OFFCURVE",
"298 388 OFFCURVE",
"280 393 CURVE SMOOTH",
"262 398 OFFCURVE",
"249 402 OFFCURVE",
"241 405 CURVE SMOOTH",
"233 408 OFFCURVE",
"222 413 OFFCURVE",
"209 420 CURVE SMOOTH",
"172 440 OFFCURVE",
"161 461 OFFCURVE",
"157 512 CURVE",
"157 592 OFFCURVE",
"199 629 OFFCURVE",
"300 629 CURVE SMOOTH",
"361 629 OFFCURVE",
"415 597 OFFCURVE",
"462 533 CURVE",
"518 580 LINE",
"458 658 OFFCURVE",
"385 697 OFFCURVE",
"300 697 CURVE SMOOTH",
"161 697 OFFCURVE",
"81 632 OFFCURVE",
"81 512 CURVE SMOOTH",
"81 403 OFFCURVE",
"158 346 OFFCURVE",
"302 307 CURVE SMOOTH"
);
}
);
};
layerId = "63224BA1-30A4-42F4-A6D1-9160F56B91B0";
paths = (
{
closed = 1;
nodes = (
"450 -16 OFFCURVE",
"538 60 OFFCURVE",
"538 170 CURVE SMOOTH",
"538 299 OFFCURVE",
"441 352 OFFCURVE",
"319 385 CURVE SMOOTH",
"202 413 OFFCURVE",
"157 449 OFFCURVE",
"157 519 CURVE SMOOTH",
"157 588 OFFCURVE",
"217 629 OFFCURVE",
"300 629 CURVE SMOOTH",
"381 629 OFFCURVE",
"435 597 OFFCURVE",
"482 533 CURVE",
"541 583 LINE",
"478 661 OFFCURVE",
"399 697 OFFCURVE",
"300 697 CURVE SMOOTH",
"164 697 OFFCURVE",
"81 632 OFFCURVE",
"81 512 CURVE SMOOTH",
"81 403 OFFCURVE",
"174 346 OFFCURVE",
"297 316 CURVE SMOOTH",
"402 287 OFFCURVE",
"462 254 OFFCURVE",
"462 170 CURVE SMOOTH",
"462 99 OFFCURVE",
"413 53 OFFCURVE",
"317 53 CURVE SMOOTH",
"228 53 OFFCURVE",
"151 103 OFFCURVE",
"104 177 CURVE",
"43 123 LINE",
"105 38 OFFCURVE",
"206 -16 OFFCURVE",
"307 -16 CURVE SMOOTH"
);
}
);
width = 583;
}
);
unicode = 0053;
},
{
color = 6;
glyphname = Saltillo;
layers = (
{
layerId = UUID0;
paths = (
{
closed = 1;
nodes = (
"150 166 LINE",
"150 682 LINE",
"82 682 LINE",
"82 166 LINE"
);
}
);
width = 232;
},
{
layerId = "63224BA1-30A4-42F4-A6D1-9160F56B91B0";
paths = (
{
closed = 1;
nodes = (
"150 166 LINE",
"150 682 LINE",
"82 682 LINE",
"82 166 LINE"
);
}
);
width = 232;
}
);
unicode = A78B;
},
{
color = 5;
glyphname = Scedilla;
layers = (
{
layerId = UUID0;
paths = (
{
closed = 1;
nodes = (
"309 -200 OFFCURVE",
"377 -175 OFFCURVE",
"377 -125 CURVE SMOOTH",
"377 -111 OFFCURVE",
"368 -98 OFFCURVE",
"350 -86 CURVE SMOOTH",
"332 -74 OFFCURVE",
"305 -68 OFFCURVE",
"270 -68 CURVE",
"296 -15 LINE",
"359 -11 OFFCURVE",
"409 5 OFFCURVE",
"447 32 CURVE SMOOTH",
"492 64 OFFCURVE",
"514 110 OFFCURVE",
"514 170 CURVE SMOOTH",
"514 242 OFFCURVE",
"484 295 OFFCURVE",
"425 329 CURVE SMOOTH",
"405 341 OFFCURVE",
"361 358 OFFCURVE",
"294 381 CURVE SMOOTH",
"287 384 OFFCURVE",
"274 388 OFFCURVE",
"256 393 CURVE SMOOTH",
"238 398 OFFCURVE",
"225 403 OFFCURVE",
"217 406 CURVE SMOOTH",
"209 409 OFFCURVE",
"198 413 OFFCURVE",
"185 420 CURVE SMOOTH",
"172 427 OFFCURVE",
"162 434 OFFCURVE",
"156 441 CURVE SMOOTH",
"150 448 OFFCURVE",
"145 458 OFFCURVE",
"140 470 CURVE SMOOTH",
"135 482 OFFCURVE",
"133 496 OFFCURVE",
"133 512 CURVE SMOOTH",
"133 552 OFFCURVE",
"144 582 OFFCURVE",
"167 601 CURVE SMOOTH",
"189 620 OFFCURVE",
"225 629 OFFCURVE",
"276 629 CURVE SMOOTH",
"337 629 OFFCURVE",
"391 597 OFFCURVE",
"438 533 CURVE",
"494 580 LINE",
"434 658 OFFCURVE",
"361 697 OFFCURVE",
"276 697 CURVE SMOOTH",
"207 697 OFFCURVE",
"153 681 OFFCURVE",
"114 649 CURVE SMOOTH",
"76 618 OFFCURVE",
"57 572 OFFCURVE",
"57 512 CURVE SMOOTH",
"57 457 OFFCURVE",
"76 414 OFFCURVE",
"113 383 CURVE SMOOTH",
"151 352 OFFCURVE",
"206 326 OFFCURVE",
"278 307 CURVE SMOOTH",
"337 291 OFFCURVE",
"378 274 OFFCURVE",
"402 256 CURVE SMOOTH",
"426 238 OFFCURVE",
"438 209 OFFCURVE",
"438 170 CURVE SMOOTH",
"438 129 OFFCURVE",
"424 100 OFFCURVE",
"396 81 CURVE SMOOTH",
"367 62 OFFCURVE",
"323 53 OFFCURVE",
"263 53 CURVE SMOOTH",
"230 53 OFFCURVE",
"198 63 OFFCURVE",
"167 84 CURVE SMOOTH",
"136 105 OFFCURVE",
"110 133 OFFCURVE",
"90 167 CURVE",
"31 125 LINE",
"58 82 OFFCURVE",
"93 48 OFFCURVE",
"134 22 CURVE SMOOTH",
"170 0 OFFCURVE",
"207 -12 OFFCURVE",
"245 -15 CURVE",
"204 -103 LINE",
"235 -103 OFFCURVE",
"258 -104 OFFCURVE",
"274 -106 CURVE SMOOTH",
"290 -108 OFFCURVE",
"300 -111 OFFCURVE",
"305 -115 CURVE SMOOTH",
"310 -119 OFFCURVE",
"312 -124 OFFCURVE",
"312 -131 CURVE SMOOTH",
"312 -144 OFFCURVE",
"297 -154 OFFCURVE",
"267 -162 CURVE SMOOTH",
"237 -169 OFFCURVE",
"205 -173 OFFCURVE",
"172 -173 CURVE",
"172 -200 LINE"
);
}
);
width = 552;
},
{
components = (
{
name = S;
},
{
name = cedillacomb;
transform = "{1, 0, 0, 1, 139, 0}";
}
);
layerId = "63224BA1-30A4-42F4-A6D1-9160F56B91B0";
width = 583;
}
);
unicode = 015E;
},
{
color = 5;
glyphname = Germandbls;
layers = (
{
layerId = UUID0;
width = 600;
},
{
background = {
components = (
{
name = B;
transform = "{1, 0, 0, 1, 1, 0}";
}
);
};
guideLines = (
{
position = "{307, 374}";
},
{
position = "{307, 335}";
},
{
angle = 90;
position = "{273, 396}";
}
);
layerId = "63224BA1-30A4-42F4-A6D1-9160F56B91B0";
paths = (
{
closed = 1;
nodes = (
"155 0 LINE",
"155 483 LINE SMOOTH",
"155 581 OFFCURVE",
"193 630 OFFCURVE",
"278 630 CURVE SMOOTH",
"354 630 OFFCURVE",
"398 590 OFFCURVE",
"398 547 CURVE",
"283 424 LINE",
"324 388 LINE",
"476 547 LINE",
"476 628 OFFCURVE",
"396 698 OFFCURVE",
"278 698 CURVE SMOOTH",
"157 698 OFFCURVE",
"80 618 OFFCURVE",
"80 483 CURVE SMOOTH",
"80 0 LINE"
);
},
{
closed = 1;
nodes = (
"454 -5 OFFCURVE",
"539 82 OFFCURVE",
"539 210 CURVE SMOOTH",
"539 346 OFFCURVE",
"453 424 OFFCURVE",
"283 424 CURVE",
"283 375 LINE",
"412 375 OFFCURVE",
"460 314 OFFCURVE",
"460 210 CURVE SMOOTH",
"460 122 OFFCURVE",
"410 61 OFFCURVE",
"319 61 CURVE SMOOTH",
"297 61 OFFCURVE",
"272 65 OFFCURVE",
"245 73 CURVE",
"231 7 LINE",
"263 -1 OFFCURVE",
"292 -5 OFFCURVE",
"320 -5 CURVE SMOOTH"
);
}
);
width = 584;
}
);
leftMetricsKey = H;
unicode = 1E9E;
},
{
color = 5;
glyphname = T;
layers = (
{
anchors = (
{
name = above;
position = "{250, 726}";
},
{
name = below;
position = "{252, 0}";
}
);
layerId = UUID0;
paths = (
{
closed = 1;
nodes = (
"288 0 LINE",
"288 620 LINE",
"483 620 LINE",
"483 682 LINE",
"19 682 LINE",
"19 620 LINE",
"214 620 LINE",
"214 0 LINE"
);
}
);
width = 502;
},
{
anchors = (
{
name = bottom;
position = "{267, 0}";
},
{
name = center;
position = "{267, 341}";
},
{
name = top;
position = "{267, 682}";
}
);
layerId = "63224BA1-30A4-42F4-A6D1-9160F56B91B0";
paths = (
{
closed = 1;
nodes = (
"304 0 LINE",
"304 620 LINE",
"519 620 LINE",
"519 682 LINE",
"15 682 LINE",
"15 620 LINE",
"230 620 LINE",
"230 0 LINE"
);
}
);
width = 534;
}
);
unicode = 0054;
},
{
color = 5;
glyphname = Tbar;
layers = (
{
layerId = UUID0;
paths = (
{
closed = 1;
nodes = (
"288 0 LINE",
"288 424 LINE",
"360 424 LINE",
"360 468 LINE",
"288 468 LINE",
"288 620 LINE",
"483 620 LINE",
"483 682 LINE",
"19 682 LINE",
"19 620 LINE",
"214 620 LINE",
"214 468 LINE",
"142 468 LINE",
"142 424 LINE",
"214 424 LINE",
"214 0 LINE"
);
}
);
width = 502;
},
{
components = (
{
name = T;
}
);
layerId = "63224BA1-30A4-42F4-A6D1-9160F56B91B0";
paths = (
{
closed = 1;
nodes = (
"418 357 LINE",
"418 405 LINE",
"116 405 LINE",
"116 357 LINE"
);
}
);
width = 534;
}
);
unicode = 0166;
},
{
color = 6;
glyphname = Thook;
layers = (
{
layerId = UUID0;
paths = (
{
closed = 1;
nodes = (
"350 0 LINE",
"350 620 LINE",
"545 620 LINE",
"545 682 LINE",
"154 682 LINE SMOOTH",
"113 682 OFFCURVE",
"80 670 OFFCURVE",
"54 646 CURVE SMOOTH",
"29 623 OFFCURVE",
"16 596 OFFCURVE",
"16 567 CURVE SMOOTH",
"16 538 OFFCURVE",
"29 512 OFFCURVE",
"54 489 CURVE",
"80 467 OFFCURVE",
"113 456 OFFCURVE",
"154 456 CURVE",
"154 518 LINE",
"111 518 OFFCURVE",
"82 542 OFFCURVE",
"82 567 CURVE SMOOTH",
"82 595 OFFCURVE",
"111 620 OFFCURVE",
"154 620 CURVE SMOOTH",
"276 620 LINE",
"276 0 LINE"
);
}
);
width = 565;
},
{
background = {
components = (
{
name = T;
transform = "{1, 0, 0, 1, 46, 0}";
}
);
};
layerId = "63224BA1-30A4-42F4-A6D1-9160F56B91B0";
paths = (
{
closed = 1;
nodes = (
"350 0 LINE",
"350 620 LINE",
"545 620 LINE",
"545 682 LINE",
"154 682 LINE SMOOTH",
"81 682 OFFCURVE",
"16 643 OFFCURVE",
"16 567 CURVE SMOOTH",
"16 493 OFFCURVE",
"77 456 OFFCURVE",
"154 456 CURVE",
"154 518 LINE",
"111 518 OFFCURVE",
"82 532 OFFCURVE",
"82 567 CURVE SMOOTH",
"82 605 OFFCURVE",
"111 620 OFFCURVE",
"154 620 CURVE SMOOTH",
"276 620 LINE",
"276 0 LINE"
);
}
);
width = 565;
}
);
unicode = 01AC;
},
{
color = 6;
glyphname = Tretroflexhook;
layers = (
{
layerId = UUID0;
paths = (
{
closed = 1;
nodes = (
"403 -200 LINE",
"403 -132 LINE",
"376 -132 LINE SMOOTH",
"329 -132 OFFCURVE",
"290 -97 OFFCURVE",
"290 -52 CURVE SMOOTH",
"290 620 LINE",
"485 620 LINE",
"485 682 LINE",
"21 682 LINE",
"21 620 LINE",
"216 620 LINE",
"216 -52 LINE SMOOTH",
"216 -92 OFFCURVE",
"232 -127 OFFCURVE",
"264 -156 CURVE SMOOTH",
"297 -185 OFFCURVE",
"334 -200 OFFCURVE",
"376 -200 CURVE SMOOTH"
);
}
);
width = 506;
},
{
background = {
components = (
{
name = T;
}
);
paths = (
{
closed = 1;
nodes = (
"230 24 LINE",
"230 -52 LINE SMOOTH",
"230 -162 OFFCURVE",
"298 -200 OFFCURVE",
"389 -200 CURVE SMOOTH",
"416 -200 LINE",
"416 -132 LINE",
"389 -132 LINE SMOOTH",
"332 -132 OFFCURVE",
"304 -107 OFFCURVE",
"304 -52 CURVE SMOOTH",
"304 24 LINE"
);
}
);
};
components = (
{
name = T;
}
);
layerId = "63224BA1-30A4-42F4-A6D1-9160F56B91B0";
paths = (
{
closed = 1;
nodes = (
"230 24 LINE",
"230 -52 LINE SMOOTH",
"230 -162 OFFCURVE",
"298 -200 OFFCURVE",
"389 -200 CURVE SMOOTH",
"416 -200 LINE",
"416 -132 LINE",
"389 -132 LINE SMOOTH",
"332 -132 OFFCURVE",
"304 -107 OFFCURVE",
"304 -52 CURVE SMOOTH",
"304 24 LINE"
);
}
);
width = 506;
}
);
unicode = 01AE;
},
{
color = 5;
glyphname = U;
layers = (
{
anchors = (
{
name = above;
position = "{318, 726}";
},
{
name = below;
position = "{319, 0}";
},
{
name = ogonek;
position = "{337, 0}";
}
);
layerId = UUID0;
paths = (
{
closed = 1;
nodes = (
"473 -16 OFFCURVE",
"562 92 OFFCURVE",
"562 283 CURVE SMOOTH",
"562 682 LINE",
"483 682 LINE",
"483 283 LINE SMOOTH",
"483 147 OFFCURVE",
"431 53 OFFCURVE",
"318 53 CURVE SMOOTH",
"205 53 OFFCURVE",
"153 147 OFFCURVE",
"153 283 CURVE SMOOTH",
"153 682 LINE",
"73 682 LINE",
"73 283 LINE",
"73 283 LINE",
"73 92 OFFCURVE",
"163 -16 OFFCURVE",
"318 -16 CURVE SMOOTH"
);
}
);
width = 635;
},
{
anchors = (
{
name = bottom;
position = "{330, 0}";
},
{
name = ogonek;
position = "{443, 4}";
},
{
name = top;
position = "{330, 682}";
},
{
name = topright;
position = "{580, 682}";
}
);
background = {
components = (
{
name = H;
transform = "{1, 0, 0, 1, -10, 0}";
}
);
paths = (
{
closed = 1;
nodes = (
"843 509 OFFCURVE",
"932 629 OFFCURVE",
"1057 629 CURVE SMOOTH",
"1182 629 OFFCURVE",
"1271 509 OFFCURVE",
"1271 340 CURVE SMOOTH",
"1271 172 OFFCURVE",
"1182 53 OFFCURVE",
"1057 53 CURVE SMOOTH",
"932 53 OFFCURVE",
"843 172 OFFCURVE",
"843 340 CURVE SMOOTH"
);
},
{
closed = 1;
nodes = (
"764 131 OFFCURVE",
"885 -16 OFFCURVE",
"1057 -16 CURVE SMOOTH",
"1229 -16 OFFCURVE",
"1350 131 OFFCURVE",
"1350 339 CURVE SMOOTH",
"1350 549 OFFCURVE",
"1229 697 OFFCURVE",
"1057 697 CURVE SMOOTH",
"885 697 OFFCURVE",
"764 549 OFFCURVE",
"764 340 CURVE SMOOTH"
);
}
);
};
layerId = "63224BA1-30A4-42F4-A6D1-9160F56B91B0";
paths = (
{
closed = 1;
nodes = (
"486 -16 OFFCURVE",
"580 78 OFFCURVE",
"580 253 CURVE SMOOTH",
"580 682 LINE",
"505 682 LINE",
"505 253 LINE SMOOTH",
"505 121 OFFCURVE",
"437 52 OFFCURVE",
"332 52 CURVE SMOOTH",
"212 52 OFFCURVE",
"155 121 OFFCURVE",
"155 253 CURVE SMOOTH",
"155 682 LINE",
"80 682 LINE",
"80 253 LINE SMOOTH",
"80 78 OFFCURVE",
"163 -16 OFFCURVE",
"332 -16 CURVE SMOOTH"
);
}
);
width = 660;
}
);
unicode = 0055;
},
{
color = 6;
glyphname = Ubar;
layers = (
{
anchors = (
{
name = above;
position = "{318, 726}";
}
);
layerId = UUID0;
paths = (
{
closed = 1;
nodes = (
"473 -16 OFFCURVE",
"562 92 OFFCURVE",
"562 283 CURVE SMOOTH",
"562 420 LINE",
"609 420 LINE",
"609 468 LINE",
"562 468 LINE",
"562 682 LINE",
"483 682 LINE",
"483 468 LINE",
"153 468 LINE",
"153 682 LINE",
"73 682 LINE",
"73 468 LINE",
"37 468 LINE",
"37 420 LINE",
"73 420 LINE",
"73 283 LINE SMOOTH",
"73 92 OFFCURVE",
"163 -16 OFFCURVE",
"318 -16 CURVE SMOOTH"
);
},
{
closed = 1;
nodes = (
"205 53 OFFCURVE",
"153 147 OFFCURVE",
"153 283 CURVE SMOOTH",
"153 420 LINE",
"483 420 LINE",
"483 283 LINE",
"483 147 OFFCURVE",
"431 53 OFFCURVE",
"318 53 CURVE SMOOTH"
);
}
);
width = 636;
},
{
background = {
components = (
{
name = U;
transform = "{1, 0, 0, 1, 3, 0}";
}
);
};
components = (
{
name = U;
transform = "{1, 0, 0, 1, 3, 0}";
}
);
layerId = "63224BA1-30A4-42F4-A6D1-9160F56B91B0";
paths = (
{
closed = 1;
nodes = (
"632 420 LINE",
"632 468 LINE",
"40 468 LINE",
"40 420 LINE"
);
}
);
width = 672;
}
);
unicode = 0244;
},
{
color = 5;
glyphname = Uogonek;
layers = (
{
anchors = (
{
name = above;
position = "{318, 726}";
}
);
layerId = UUID0;
paths = (
{
closed = 1;
nodes = (
"430 -186 OFFCURVE",
"465 -181 OFFCURVE",
"504 -170 CURVE",
"497 -144 LINE",
"479 -148 OFFCURVE",
"461 -150 OFFCURVE",
"443 -150 CURVE SMOOTH",
"374 -150 OFFCURVE",
"340 -127 OFFCURVE",
"340 -82 CURVE SMOOTH",
"340 -58 OFFCURVE",
"344 -40 OFFCURVE",
"353 -29 CURVE SMOOTH",
"358 -22 OFFCURVE",
"368 -15 OFFCURVE",
"382 -9 CURVE",
"429 2 OFFCURVE",
"468 25 OFFCURVE",
"498 62 CURVE SMOOTH",
"541 114 OFFCURVE",
"562 188 OFFCURVE",
"562 283 CURVE SMOOTH",
"562 682 LINE",
"483 682 LINE",
"483 283 LINE SMOOTH",
"483 215 OFFCURVE",
"470 160 OFFCURVE",
"443 117 CURVE SMOOTH",
"416 74 OFFCURVE",
"375 53 OFFCURVE",
"318 53 CURVE SMOOTH",
"261 53 OFFCURVE",
"220 74 OFFCURVE",
"193 117 CURVE SMOOTH",
"166 160 OFFCURVE",
"153 215 OFFCURVE",
"153 283 CURVE SMOOTH",
"153 682 LINE",
"73 682 LINE",
"73 283 LINE SMOOTH",
"73 188 OFFCURVE",
"95 114 OFFCURVE",
"138 62 CURVE SMOOTH",
"179 13 OFFCURVE",
"234 -12 OFFCURVE",
"305 -15 CURVE",
"284 -34 OFFCURVE",
"274 -60 OFFCURVE",
"274 -91 CURVE SMOOTH",
"274 -154 OFFCURVE",
"316 -186 OFFCURVE",
"400 -186 CURVE SMOOTH"
);
}
);
width = 635;
},
{
components = (
{
name = U;
},
{
name = ogonekcomb;
transform = "{1, 0, 0, 1, 261, 4}";
}
);
layerId = "63224BA1-30A4-42F4-A6D1-9160F56B91B0";
width = 660;
}
);
unicode = 0172;
},
{
color = 6;
glyphname = Upsilonafrican;
layers = (
{
anchors = (
{
name = above;
position = "{342, 726}";
}
);
layerId = UUID0;
paths = (
{
closed = 1;
nodes = (
"419 -16 OFFCURVE",
"487 19 OFFCURVE",
"546 90 CURVE SMOOTH",
"605 161 OFFCURVE",
"635 244 OFFCURVE",
"635 340 CURVE SMOOTH",
"635 436 OFFCURVE",
"612 503 OFFCURVE",
"577 562 CURVE SMOOTH",
"560 591 OFFCURVE",
"550 613 OFFCURVE",
"545 627 CURVE",
"615 627 LINE",
"615 682 LINE",
"457 682 LINE",
"457 623 OFFCURVE",
"482 571 OFFCURVE",
"506 538 CURVE SMOOTH",
"530 505 OFFCURVE",
"556 432 OFFCURVE",
"556 340 CURVE SMOOTH",
"556 264 OFFCURVE",
"535 197 OFFCURVE",
"493 139 CURVE SMOOTH",
"452 82 OFFCURVE",
"401 53 OFFCURVE",
"342 53 CURVE SMOOTH",
"283 53 OFFCURVE",
"232 82 OFFCURVE",
"190 139 CURVE",
"149 197 OFFCURVE",
"128 264 OFFCURVE",
"128 340 CURVE SMOOTH",
"128 432 OFFCURVE",
"153 505 OFFCURVE",
"177 538 CURVE SMOOTH",
"201 571 OFFCURVE",
"227 623 OFFCURVE",
"227 682 CURVE",
"69 682 LINE",
"69 627 LINE",
"139 627 LINE",
"139 627 LINE",
"134 613 OFFCURVE",
"123 591 OFFCURVE",
"106 562 CURVE SMOOTH",
"89 533 OFFCURVE",
"76 500 OFFCURVE",
"65 465 CURVE SMOOTH",
"54 430 OFFCURVE",
"49 388 OFFCURVE",
"49 340 CURVE SMOOTH",
"49 244 OFFCURVE",
"78 161 OFFCURVE",
"137 90 CURVE SMOOTH",
"196 19 OFFCURVE",
"265 -16 OFFCURVE",
"342 -16 CURVE SMOOTH"
);
}
);
width = 684;
},
{
guideLines = (
{
angle = 180;
position = "{110, 627}";
}
);
layerId = "63224BA1-30A4-42F4-A6D1-9160F56B91B0";
paths = (
{
closed = 1;
nodes = (
"616 627 LINE",
"616 682 LINE",
"458 682 LINE",
"458 626 LINE",
"528 509 OFFCURVE",
"560 432 OFFCURVE",
"560 310 CURVE SMOOTH",
"560 144 OFFCURVE",
"489 53 OFFCURVE",
"343 53 CURVE SMOOTH",
"197 53 OFFCURVE",
"126 144 OFFCURVE",
"126 310 CURVE SMOOTH",
"126 432 OFFCURVE",
"158 509 OFFCURVE",
"228 626 CURVE",
"228 682 LINE",
"70 682 LINE",
"70 627 LINE",
"150 627 LINE",
"102 532 OFFCURVE",
"50 446 OFFCURVE",
"50 310 CURVE SMOOTH",
"50 119 OFFCURVE",
"156 -16 OFFCURVE",
"343 -16 CURVE SMOOTH",
"530 -16 OFFCURVE",
"636 119 OFFCURVE",
"636 310 CURVE SMOOTH",
"636 446 OFFCURVE",
"584 532 OFFCURVE",
"536 627 CURVE"
);
}
);
width = 686;
}
);
unicode = 01B1;
},
{
color = 5;
glyphname = V;
layers = (
{
anchors = (
{
name = above;
position = "{287, 726}";
},
{
name = below;
position = "{287, 0}";
}
);
layerId = UUID0;
paths = (
{
closed = 1;
nodes = (
"326 0 LINE",
"574 682 LINE",
"494 682 LINE",
"286 111 LINE",
"79 682 LINE",
"-1 682 LINE",
"246 0 LINE"
);
}
);
width = 572;
},
{
anchors = (
{
name = bottom;
position = "{278, 0}";
},
{
name = top;
position = "{278, 682}";
}
);
layerId = "63224BA1-30A4-42F4-A6D1-9160F56B91B0";
paths = (
{
closed = 1;
nodes = (
"317 0 LINE",
"555 682 LINE",
"482 682 LINE",
"268 56 LINE",
"286 56 LINE",
"75 682 LINE",
"0 682 LINE",
"237 0 LINE"
);
}
);
width = 555;
}
);
unicode = 0056;
},
{
color = 6;
glyphname = Vhook;
layers = (
{
anchors = (
{
name = above;
position = "{330, 726}";
}
);
layerId = UUID0;
paths = (
{
closed = 1;
nodes = (
"405 -16 OFFCURVE",
"468 19 OFFCURVE",
"519 88 CURVE SMOOTH",
"570 158 OFFCURVE",
"596 242 OFFCURVE",
"596 340 CURVE SMOOTH",
"596 415 OFFCURVE",
"572 497 OFFCURVE",
"547 546 CURVE SMOOTH",
"535 571 OFFCURVE",
"521 596 OFFCURVE",
"505 619 CURVE SMOOTH",
"474 666 OFFCURVE",
"466 674 OFFCURVE",
"458 682 CURVE",
"347 682 LINE",
"364 666 LINE SMOOTH",
"376 655 OFFCURVE",
"390 640 OFFCURVE",
"406 620 CURVE SMOOTH",
"441 579 OFFCURVE",
"475 530 OFFCURVE",
"499 454 CURVE SMOOTH",
"511 416 OFFCURVE",
"517 378 OFFCURVE",
"517 340 CURVE SMOOTH",
"517 262 OFFCURVE",
"500 195 OFFCURVE",
"465 138 CURVE SMOOTH",
"430 81 OFFCURVE",
"385 53 OFFCURVE",
"330 53 CURVE SMOOTH",
"276 53 OFFCURVE",
"233 81 OFFCURVE",
"200 137 CURVE SMOOTH",
"167 194 OFFCURVE",
"151 261 OFFCURVE",
"151 340 CURVE SMOOTH",
"151 682 LINE",
"72 682 LINE",
"72 340 LINE SMOOTH",
"72 241 OFFCURVE",
"96 157 OFFCURVE",
"145 88 CURVE SMOOTH",
"194 19 OFFCURVE",
"255 -16 OFFCURVE",
"330 -16 CURVE SMOOTH"
);
}
);
width = 641;
},
{
layerId = "63224BA1-30A4-42F4-A6D1-9160F56B91B0";
paths = (
{
closed = 1;
nodes = (
"510 -16 OFFCURVE",
"616 116 OFFCURVE",
"616 340 CURVE SMOOTH",
"616 468 OFFCURVE",
"562 586 OFFCURVE",
"465 682 CURVE",
"377 682 LINE",
"484 583 OFFCURVE",
"537 456 OFFCURVE",
"537 340 CURVE SMOOTH",
"537 160 OFFCURVE",
"460 53 OFFCURVE",
"330 53 CURVE SMOOTH",
"217 53 OFFCURVE",
"151 141 OFFCURVE",
"151 290 CURVE SMOOTH",
"151 682 LINE",
"72 682 LINE",
"72 290 LINE SMOOTH",
"72 98 OFFCURVE",
"168 -16 OFFCURVE",
"330 -16 CURVE SMOOTH"
);
}
);
width = 641;
}
);
unicode = 01B2;
},
{
color = 5;
glyphname = W;
layers = (
{
anchors = (
{
name = above;
position = "{427, 726}";
},
{
name = below;
position = "{424, 0}";
}
);
layerId = UUID0;
paths = (
{
closed = 1;
nodes = (
"281 0 LINE",
"425 538 LINE",
"569 0 LINE",
"647 0 LINE",
"829 682 LINE",
"752 682 LINE",
"608 145 LINE",
"464 682 LINE",
"387 682 LINE",
"243 144 LINE",
"99 682 LINE",
"22 682 LINE",
"204 0 LINE"
);
}
);
width = 851;
},
{
anchors = (
{
name = bottom;
position = "{426, 0}";
},
{
name = top;
position = "{426, 682}";
}
);
layerId = "63224BA1-30A4-42F4-A6D1-9160F56B91B0";
paths = (
{
closed = 1;
nodes = (
"281 0 LINE",
"439 594 LINE",
"415 594 LINE",
"569 0 LINE",
"647 0 LINE",
"829 682 LINE",
"758 682 LINE",
"606 82 LINE",
"617 82 LINE",
"458 682 LINE",
"397 682 LINE",
"238 81 LINE",
"252 81 LINE",
"99 682 LINE",
"22 682 LINE",
"204 0 LINE"
);
}
);
width = 851;
}
);
unicode = 0057;
},
{
color = 6;
glyphname = Whook;
layers = (
{
layerId = UUID0;
paths = (
{
closed = 1;
nodes = (
"281 0 LINE",
"425 538 LINE",
"569 0 LINE",
"647 0 LINE",
"796 558 LINE SMOOTH",
"805 593 OFFCURVE",
"836 624 OFFCURVE",
"873 624 CURVE SMOOTH",
"902 624 OFFCURVE",
"929 598 OFFCURVE",
"929 563 CURVE SMOOTH",
"929 553 OFFCURVE",
"926 542 OFFCURVE",
"920 530 CURVE",
"983 508 LINE",
"996 532 OFFCURVE",
"1002 556 OFFCURVE",
"1002 579 CURVE SMOOTH",
"1002 648 OFFCURVE",
"949 697 OFFCURVE",
"881 697 CURVE SMOOTH",
"794 697 OFFCURVE",
"741 647 OFFCURVE",
"722 570 CURVE",
"608 145 LINE",
"464 682 LINE",
"387 682 LINE",
"243 144 LINE",
"99 682 LINE",
"22 682 LINE",
"204 0 LINE"
);
}
);
width = 1014;
},
{
background = {
anchors = (
{
name = bottom;
position = "{426, 0}";
},
{
name = top;
position = "{426, 682}";
}
);
paths = (
{
closed = 1;
nodes = (
"719 529 LINE",
"606 82 LINE",
"617 82 LINE",
"458 682 LINE",
"397 682 LINE",
"238 81 LINE",
"252 81 LINE",
"99 682 LINE",
"22 682 LINE",
"204 0 LINE",
"281 0 LINE",
"439 594 LINE",
"415 594 LINE",
"569 0 LINE",
"647 0 LINE",
"783 508 LINE"
);
}
);
};
layerId = "63224BA1-30A4-42F4-A6D1-9160F56B91B0";
paths = (
{
closed = 1;
nodes = (
"794 697 OFFCURVE",
"751 652 OFFCURVE",
"729 566 CURVE SMOOTH",
"611 103 LINE",
"458 682 LINE",
"397 682 LINE",
"245 108 LINE",
"99 682 LINE",
"22 682 LINE",
"204 0 LINE",
"281 0 LINE",
"427 548 LINE",
"569 0 LINE",
"647 0 LINE",
"789 525 LINE SMOOTH",
"806 590 OFFCURVE",
"826 632 OFFCURVE",
"877 632 CURVE SMOOTH",
"925 632 OFFCURVE",
"945 581 OFFCURVE",
"920 530 CURVE",
"975 508 LINE",
"988 532 OFFCURVE",
"994 556 OFFCURVE",
"994 579 CURVE SMOOTH",
"994 648 OFFCURVE",
"949 697 OFFCURVE",
"881 697 CURVE SMOOTH"
);
}
);
width = 994;
}
);
leftMetricsKey = W;
unicode = 2C72;
},
{
color = 5;
glyphname = X;
layers = (
{
anchors = (
{
name = above;
position = "{248, 726}";
},
{
name = below;
position = "{248, 0}";
}
);
layerId = UUID0;
paths = (
{
closed = 1;
nodes = (
"105 0 LINE",
"248 270 LINE",
"392 0 LINE",
"476 0 LINE",
"290 349 LINE",
"468 682 LINE",
"384 682 LINE",
"248 427 LINE",
"113 682 LINE",
"29 682 LINE",
"206 349 LINE",
"21 0 LINE"
);
}
);
width = 495;
},
{
anchors = (
{
name = bottom;
position = "{258, 0}";
},
{
name = top;
position = "{258, 682}";
}
);
background = {
paths = (
{
closed = 1;
nodes = (
"412 0 LINE",
"496 0 LINE",
"291 351 LINE",
"249 287 LINE"
);
},
{
closed = 1;
nodes = (
"76 682 LINE",
"-2 682 LINE",
"217 321 LINE",
"263 369 LINE"
);
},
{
closed = 1;
nodes = (
"424 682 LINE",
"11 0 LINE",
"95 0 LINE",
"508 682 LINE"
);
}
);
};
guideLines = (
{
angle = 90;
position = "{493, 408}";
},
{
angle = 90;
position = "{21, 408}";
}
);
layerId = "63224BA1-30A4-42F4-A6D1-9160F56B91B0";
paths = (
{
closed = 1;
nodes = (
"511 0 LINE",
"302 345 LINE",
"265 375 LINE",
"86 682 LINE",
"5 682 LINE",
"216 321 LINE",
"252 289 LINE",
"427 0 LINE"
);
},
{
closed = 1;
nodes = (
"94 0 LINE",
"264 300 LINE",
"215 351 LINE",
"10 0 LINE"
);
},
{
closed = 1;
nodes = (
"508 682 LINE",
"430 682 LINE",
"243 369 LINE",
"289 321 LINE"
);
}
);
width = 516;
}
);
unicode = 0058;
},
{
color = 5;
glyphname = Y;
layers = (
{
anchors = (
{
name = above;
position = "{237, 726}";
},
{
name = below;
position = "{238, 0}";
},
{
name = ogonek;
position = "{252, 0}";
}
);
layerId = UUID0;
paths = (
{
closed = 1;
nodes = (
"273 0 LINE",
"273 347 LINE",
"474 682 LINE",
"387 682 LINE",
"237 432 LINE",
"87 682 LINE",
"0 682 LINE",
"199 350 LINE",
"199 0 LINE"
);
}
);
width = 473;
},
{
anchors = (
{
name = bottom;
position = "{242, 0}";
},
{
name = top;
position = "{242, 682}";
},
{
name = topleft;
position = "{20, 682}";
}
);
background = {
components = (
{
name = V;
transform = "{1, 0, 0, 1, -45, 0}";
}
);
};
layerId = "63224BA1-30A4-42F4-A6D1-9160F56B91B0";
paths = (
{
closed = 1;
nodes = (
"278 0 LINE",
"278 279 LINE",
"499 682 LINE",
"430 682 LINE",
"240 331 LINE",
"252 331 LINE",
"60 682 LINE",
"-15 682 LINE",
"204 282 LINE",
"204 0 LINE"
);
}
);
width = 484;
}
);
unicode = 0059;
},
{
color = 6;
glyphname = Yhook;
layers = (
{
layerId = UUID0;
paths = (
{
closed = 1;
nodes = (
"276 0 LINE",
"276 347 LINE",
"419 585 LINE SMOOTH",
"432 608 OFFCURVE",
"456 620 OFFCURVE",
"489 620 CURVE SMOOTH",
"524 620 OFFCURVE",
"549 598 OFFCURVE",
"549 565 CURVE SMOOTH",
"549 548 OFFCURVE",
"542 532 OFFCURVE",
"527 518 CURVE",
"579 477 LINE",
"611 506 OFFCURVE",
"627 540 OFFCURVE",
"627 578 CURVE SMOOTH",
"627 583 OFFCURVE",
"626 589 OFFCURVE",
"625 597 CURVE SMOOTH",
"614 654 OFFCURVE",
"565 697 OFFCURVE",
"493 697 CURVE SMOOTH",
"431 697 OFFCURVE",
"384 671 OFFCURVE",
"353 620 CURVE SMOOTH",
"240 432 LINE",
"90 682 LINE",
"3 682 LINE",
"202 350 LINE",
"202 0 LINE"
);
}
);
width = 641;
},
{
background = {
paths = (
{
closed = 1;
nodes = (
"449 590 OFFCURVE",
"477 638 OFFCURVE",
"529 638 CURVE SMOOTH",
"555 638 OFFCURVE",
"568 617 OFFCURVE",
"568 591 CURVE SMOOTH",
"568 572 OFFCURVE",
"561 550 OFFCURVE",
"548 530 CURVE",
"604 495 LINE",
"628 530 OFFCURVE",
"640 566 OFFCURVE",
"640 598 CURVE SMOOTH",
"640 654 OFFCURVE",
"603 697 OFFCURVE",
"538 697 CURVE SMOOTH",
"451 697 OFFCURVE",
"414 652 OFFCURVE",
"367 566 CURVE",
"413 525 LINE"
);
}
);
};
layerId = "63224BA1-30A4-42F4-A6D1-9160F56B91B0";
paths = (
{
closed = 1;
nodes = (
"451 697 OFFCURVE",
"414 652 OFFCURVE",
"367 566 CURVE SMOOTH",
"246 342 LINE",
"60 682 LINE",
"-15 682 LINE",
"204 282 LINE",
"204 0 LINE",
"278 0 LINE",
"278 279 LINE",
"413 525 LINE SMOOTH",
"449 590 OFFCURVE",
"477 638 OFFCURVE",
"529 638 CURVE SMOOTH",
"555 638 OFFCURVE",
"574 617 OFFCURVE",
"574 591 CURVE SMOOTH",
"574 572 OFFCURVE",
"567 550 OFFCURVE",
"554 530 CURVE",
"604 495 LINE",
"628 530 OFFCURVE",
"640 566 OFFCURVE",
"640 598 CURVE SMOOTH",
"640 654 OFFCURVE",
"603 697 OFFCURVE",
"538 697 CURVE SMOOTH"
);
}
);
width = 640;
}
);
leftMetricsKey = Y;
unicode = 01B3;
},
{
color = 5;
glyphname = Z;
layers = (
{
anchors = (
{
name = above;
position = "{260, 726}";
},
{
name = below;
position = "{258, 0}";
}
);
layerId = UUID0;
paths = (
{
closed = 1;
nodes = (
"464 0 LINE",
"464 62 LINE",
"123 62 LINE",
"464 607 LINE",
"464 682 LINE",
"38 682 LINE",
"38 620 LINE",
"385 620 LINE",
"38 63 LINE",
"38 0 LINE"
);
}
);
width = 503;
},
{
anchors = (
{
name = bottom;
position = "{252, 0}";
},
{
name = top;
position = "{252, 682}";
}
);
layerId = "63224BA1-30A4-42F4-A6D1-9160F56B91B0";
paths = (
{
closed = 1;
nodes = (
"464 0 LINE",
"464 62 LINE",
"108 62 LINE",
"474 607 LINE",
"474 682 LINE",
"48 682 LINE",
"48 620 LINE",
"410 620 LINE",
"38 63 LINE",
"38 0 LINE"
);
}
);
width = 503;
}
);
unicode = 005A;
},
{
color = 6;
glyphname = Ismall;
layers = (
{
anchors = (
{
name = above;
position = "{114, 567}";
}
);
layerId = UUID0;
paths = (
{
closed = 1;
nodes = (
"186 0 LINE",
"186 48 LINE",
"151 48 LINE",
"151 420 LINE",
"186 420 LINE",
"186 468 LINE",
"41 468 LINE",
"41 420 LINE",
"76 420 LINE",
"76 48 LINE",
"41 48 LINE",
"41 0 LINE"
);
}
);
width = 227;
},
{
background = {
anchors = (
{
name = bottom;
position = "{159, 0}";
},
{
name = ogonek;
position = "{232, 24}";
},
{
name = top;
position = "{159, 682}";
},
{
name = topleft;
position = "{55, 682}";
}
);
paths = (
{
closed = 1;
nodes = (
"217 0 LINE",
"217 66 LINE",
"151 66 LINE",
"151 346 LINE",
"217 346 LINE",
"217 412 LINE",
"10 412 LINE",
"10 346 LINE",
"76 346 LINE",
"76 66 LINE",
"10 66 LINE",
"10 0 LINE"
);
}
);
};
layerId = "63224BA1-30A4-42F4-A6D1-9160F56B91B0";
paths = (
{
closed = 1;
nodes = (
"206 0 LINE",
"206 58 LINE",
"151 58 LINE",
"151 410 LINE",
"206 410 LINE",
"206 468 LINE",
"21 468 LINE",
"21 410 LINE",
"76 410 LINE",
"76 58 LINE",
"21 58 LINE",
"21 0 LINE"
);
}
);
width = 227;
}
);
unicode = 026A;
},
{
color = 5;
glyphname = a;
layers = (
{
anchors = (
{
name = above;
position = "{275, 567}";
},
{
name = below;
position = "{268, 0}";
},
{
name = ogonek;
position = "{480, 0}";
}
);
layerId = UUID0;
paths = (
{
closed = 1;
nodes = (
"337 -16 OFFCURVE",
"390 13 OFFCURVE",
"430 71 CURVE",
"430 0 LINE",
"498 0 LINE",
"498 468 LINE",
"430 468 LINE",
"430 395 LINE",
"388 454 OFFCURVE",
"335 484 OFFCURVE",
"270 484 CURVE SMOOTH",
"205 484 OFFCURVE",
"150 459 OFFCURVE",
"104 410 CURVE SMOOTH",
"57 360 OFFCURVE",
"34 301 OFFCURVE",
"34 234 CURVE SMOOTH",
"34 167 OFFCURVE",
"57 108 OFFCURVE",
"104 58 CURVE SMOOTH",
"151 9 OFFCURVE",
"207 -16 OFFCURVE",
"272 -16 CURVE SMOOTH"
);
},
{
closed = 1;
nodes = (
"220 46 OFFCURVE",
"182 65 OFFCURVE",
"150 103 CURVE SMOOTH",
"118 142 OFFCURVE",
"102 186 OFFCURVE",
"102 235 CURVE SMOOTH",
"102 284 OFFCURVE",
"118 327 OFFCURVE",
"150 365 CURVE SMOOTH",
"182 403 OFFCURVE",
"220 422 OFFCURVE",
"265 422 CURVE SMOOTH",
"310 422 OFFCURVE",
"349 403 OFFCURVE",
"381 365 CURVE SMOOTH",
"414 327 OFFCURVE",
"430 283 OFFCURVE",
"430 234 CURVE SMOOTH",
"430 185 OFFCURVE",
"414 142 OFFCURVE",
"381 103 CURVE SMOOTH",
"349 65 OFFCURVE",
"310 46 OFFCURVE",
"265 46 CURVE SMOOTH"
);
}
);
width = 561;
},
{
anchors = (
{
name = bottom;
position = "{281, 0}";
},
{
name = ogonek;
position = "{505, 10}";
},
{
name = top;
position = "{281, 468}";
}
);
background = {
components = (
{
name = _part.roundLC;
}
);
};
components = (
{
name = _part.roundLC;
}
);
layerId = "63224BA1-30A4-42F4-A6D1-9160F56B91B0";
paths = (
{
closed = 1;
nodes = (
"498 0 LINE",
"498 468 LINE",
"430 468 LINE",
"430 0 LINE"
);
}
);
width = 561;
}
);
unicode = 0061;
},
{
color = 6;
glyphname = "alpha-latin";
layers = (
{
anchors = (
{
name = above;
position = "{258, 567}";
}
);
layerId = UUID0;
paths = (
{
closed = 1;
nodes = (
"322 -16 OFFCURVE",
"377 13 OFFCURVE",
"412 71 CURVE",
"439 27 OFFCURVE",
"485 0 OFFCURVE",
"538 0 CURVE",
"538 67 LINE",
"493 67 OFFCURVE",
"459 102 OFFCURVE",
"459 147 CURVE SMOOTH",
"459 331 LINE SMOOTH",
"459 433 OFFCURVE",
"388 484 OFFCURVE",
"247 484 CURVE SMOOTH",
"189 484 OFFCURVE",
"139 459 OFFCURVE",
"97 410 CURVE SMOOTH",
"56 361 OFFCURVE",
"35 303 OFFCURVE",
"35 235 CURVE SMOOTH",
"35 166 OFFCURVE",
"56 107 OFFCURVE",
"98 58 CURVE SMOOTH",
"141 9 OFFCURVE",
"191 -16 OFFCURVE",
"249 -16 CURVE SMOOTH"
);
},
{
closed = 1;
nodes = (
"209 46 OFFCURVE",
"175 65 OFFCURVE",
"146 102 CURVE SMOOTH",
"117 139 OFFCURVE",
"103 183 OFFCURVE",
"103 234 CURVE SMOOTH",
"103 286 OFFCURVE",
"117 330 OFFCURVE",
"146 367 CURVE SMOOTH",
"175 404 OFFCURVE",
"208 422 OFFCURVE",
"247 422 CURVE SMOOTH",
"343 422 OFFCURVE",
"391 392 OFFCURVE",
"391 331 CURVE SMOOTH",
"391 292 OFFCURVE",
"391 274 OFFCURVE",
"387 230 CURVE SMOOTH",
"383 186 OFFCURVE",
"378 161 OFFCURVE",
"363 126 CURVE SMOOTH",
"344 78 OFFCURVE",
"305 46 OFFCURVE",
"247 46 CURVE SMOOTH"
);
}
);
width = 554;
},
{
background = {
anchors = (
{
name = bottom;
position = "{281, 0}";
},
{
name = ogonek;
position = "{505, 10}";
},
{
name = top;
position = "{281, 597}";
}
);
paths = (
{
closed = 1;
nodes = (
"390 -16 OFFCURVE",
"478 88 OFFCURVE",
"478 234 CURVE SMOOTH",
"478 380 OFFCURVE",
"389 484 OFFCURVE",
"265 484 CURVE SMOOTH",
"130 484 OFFCURVE",
"34 381 OFFCURVE",
"34 235 CURVE SMOOTH",
"34 88 OFFCURVE",
"131 -16 OFFCURVE",
"267 -16 CURVE SMOOTH"
);
},
{
closed = 1;
nodes = (
"170 46 OFFCURVE",
"102 124 OFFCURVE",
"102 235 CURVE SMOOTH",
"102 345 OFFCURVE",
"170 422 OFFCURVE",
"265 422 CURVE SMOOTH",
"362 422 OFFCURVE",
"430 344 OFFCURVE",
"430 234 CURVE SMOOTH",
"430 124 OFFCURVE",
"362 46 OFFCURVE",
"265 46 CURVE SMOOTH"
);
},
{
closed = 1;
nodes = (
"588 68 LINE",
"528 68 OFFCURVE",
"498 95 OFFCURVE",
"498 148 CURVE SMOOTH",
"498 468 LINE",
"430 468 LINE",
"430 148 LINE SMOOTH",
"430 52 OFFCURVE",
"499 0 OFFCURVE",
"588 0 CURVE"
);
}
);
};
layerId = "63224BA1-30A4-42F4-A6D1-9160F56B91B0";
paths = (
{
closed = 1;
nodes = (
"498 247 LINE",
"492 386 OFFCURVE",
"397 484 OFFCURVE",
"265 484 CURVE SMOOTH",
"130 484 OFFCURVE",
"34 381 OFFCURVE",
"34 235 CURVE SMOOTH",
"34 88 OFFCURVE",
"131 -16 OFFCURVE",
"267 -16 CURVE SMOOTH",
"342 -16 OFFCURVE",
"404 23 OFFCURVE",
"441 87 CURVE",
"464 30 OFFCURVE",
"520 0 OFFCURVE",
"588 0 CURVE",
"588 68 LINE",
"528 68 OFFCURVE",
"498 95 OFFCURVE",
"498 148 CURVE SMOOTH"
);
},
{
closed = 1;
nodes = (
"170 46 OFFCURVE",
"102 124 OFFCURVE",
"102 235 CURVE SMOOTH",
"102 345 OFFCURVE",
"170 422 OFFCURVE",
"265 422 CURVE SMOOTH",
"362 422 OFFCURVE",
"430 344 OFFCURVE",
"430 234 CURVE SMOOTH",
"430 124 OFFCURVE",
"362 46 OFFCURVE",
"265 46 CURVE SMOOTH"
);
}
);
width = 597;
}
);
leftMetricsKey = o;
rightMetricsKey = iota;
unicode = 0251;
},
{
color = 5;
glyphname = aogonek;
layers = (
{
anchors = (
{
name = above;
position = "{275, 567}";
}
);
layerId = UUID0;
paths = (
{
closed = 1;
nodes = (
"522 -186 OFFCURVE",
"557 -181 OFFCURVE",
"596 -170 CURVE",
"589 -144 LINE",
"571 -148 OFFCURVE",
"553 -150 OFFCURVE",
"535 -150 CURVE SMOOTH",
"466 -150 OFFCURVE",
"432 -127 OFFCURVE",
"432 -82 CURVE SMOOTH",
"432 -58 OFFCURVE",
"436 -40 OFFCURVE",
"444 -29 CURVE SMOOTH",
"453 -18 OFFCURVE",
"471 -9 OFFCURVE",
"498 0 CURVE",
"498 24 LINE",
"498 468 LINE",
"430 468 LINE",
"430 395 LINE",
"388 454 OFFCURVE",
"335 484 OFFCURVE",
"270 484 CURVE SMOOTH",
"205 484 OFFCURVE",
"150 459 OFFCURVE",
"104 410 CURVE SMOOTH",
"57 360 OFFCURVE",
"34 301 OFFCURVE",
"34 234 CURVE SMOOTH",
"34 167 OFFCURVE",
"57 108 OFFCURVE",
"104 59 CURVE SMOOTH",
"151 9 OFFCURVE",
"207 -16 OFFCURVE",
"272 -16 CURVE SMOOTH",
"337 -16 OFFCURVE",
"390 13 OFFCURVE",
"430 71 CURVE",
"430 6 LINE",
"387 -14 OFFCURVE",
"366 -46 OFFCURVE",
"366 -91 CURVE SMOOTH",
"366 -154 OFFCURVE",
"408 -186 OFFCURVE",
"492 -186 CURVE SMOOTH"
);
},
{
closed = 1;
nodes = (
"221 46 OFFCURVE",
"182 65 OFFCURVE",
"150 104 CURVE SMOOTH",
"118 142 OFFCURVE",
"102 185 OFFCURVE",
"102 234 CURVE SMOOTH",
"102 283 OFFCURVE",
"118 327 OFFCURVE",
"150 365 CURVE SMOOTH",
"182 403 OFFCURVE",
"221 422 OFFCURVE",
"266 422 CURVE SMOOTH",
"311 422 OFFCURVE",
"349 403 OFFCURVE",
"381 365 CURVE SMOOTH",
"414 327 OFFCURVE",
"430 283 OFFCURVE",
"430 234 CURVE SMOOTH",
"430 185 OFFCURVE",
"414 142 OFFCURVE",
"381 104 CURVE",
"349 65 OFFCURVE",
"311 46 OFFCURVE",
"266 46 CURVE SMOOTH"
);
}
);
width = 561;
},
{
components = (
{
name = a;
},
{
name = ogonekcomb;
transform = "{1, 0, 0, 1, 323, 10}";
}
);
layerId = "63224BA1-30A4-42F4-A6D1-9160F56B91B0";
width = 561;
}
);
unicode = 0105;
},
{
color = 5;
glyphname = ae;
layers = (
{
anchors = (
{
name = above;
position = "{409, 567}";
}
);
layerId = UUID0;
paths = (
{
closed = 1;
nodes = (
"296 -16 OFFCURVE",
"375 9 OFFCURVE",
"445 59 CURVE",
"492 9 OFFCURVE",
"545 -16 OFFCURVE",
"603 -16 CURVE SMOOTH",
"662 -16 OFFCURVE",
"707 -7 OFFCURVE",
"739 10 CURVE SMOOTH",
"771 28 OFFCURVE",
"799 56 OFFCURVE",
"824 95 CURVE",
"770 131 LINE",
"751 99 OFFCURVE",
"730 77 OFFCURVE",
"708 64 CURVE SMOOTH",
"687 52 OFFCURVE",
"653 46 OFFCURVE",
"607 46 CURVE SMOOTH",
"562 46 OFFCURVE",
"523 65 OFFCURVE",
"490 103 CURVE",
"458 142 OFFCURVE",
"442 185 OFFCURVE",
"442 234 CURVE",
"839 234 LINE",
"839 301 OFFCURVE",
"815 359 OFFCURVE",
"768 409 CURVE SMOOTH",
"721 459 OFFCURVE",
"668 484 OFFCURVE",
"607 484 CURVE SMOOTH",
"546 484 OFFCURVE",
"492 459 OFFCURVE",
"445 409 CURVE SMOOTH",
"431 394 OFFCURVE",
"419 377 OFFCURVE",
"408 360 CURVE",
"400 383 OFFCURVE",
"389 403 OFFCURVE",
"375 420 CURVE SMOOTH",
"342 462 OFFCURVE",
"297 483 OFFCURVE",
"240 483 CURVE SMOOTH",
"237 483 LINE SMOOTH",
"150 483 OFFCURVE",
"109 453 OFFCURVE",
"58 389 CURVE",
"111 356 LINE",
"130 379 OFFCURVE",
"147 396 OFFCURVE",
"164 406 CURVE SMOOTH",
"181 416 OFFCURVE",
"205 421 OFFCURVE",
"237 421 CURVE SMOOTH",
"280 421 OFFCURVE",
"314 403 OFFCURVE",
"340 367 CURVE SMOOTH",
"361 339 OFFCURVE",
"373 307 OFFCURVE",
"377 271 CURVE",
"377 270 LINE",
"323 283 OFFCURVE",
"280 290 OFFCURVE",
"248 290 CURVE SMOOTH",
"216 290 OFFCURVE",
"184 285 OFFCURVE",
"151 276 CURVE",
"86 256 OFFCURVE",
"27 206 OFFCURVE",
"27 123 CURVE SMOOTH",
"27 82 OFFCURVE",
"44 49 OFFCURVE",
"79 23 CURVE SMOOTH",
"114 -3 OFFCURVE",
"157 -16 OFFCURVE",
"208 -16 CURVE SMOOTH"
);
},
{
closed = 1;
nodes = (
"146 46 OFFCURVE",
"102 73 OFFCURVE",
"102 126 CURVE SMOOTH",
"102 179 OFFCURVE",
"143 212 OFFCURVE",
"187 223 CURVE SMOOTH",
"231 234 OFFCURVE",
"303 235 OFFCURVE",
"375 219 CURVE",
"378 176 OFFCURVE",
"391 138 OFFCURVE",
"412 103 CURVE",
"367 72 OFFCURVE",
"289 46 OFFCURVE",
"217 46 CURVE SMOOTH"
);
},
{
closed = 1;
nodes = (
"459 321 OFFCURVE",
"472 344 OFFCURVE",
"490 365 CURVE SMOOTH",
"523 403 OFFCURVE",
"560 422 OFFCURVE",
"603 422 CURVE SMOOTH",
"646 422 OFFCURVE",
"685 404 OFFCURVE",
"719 368 CURVE SMOOTH",
"738 347 OFFCURVE",
"753 323 OFFCURVE",
"762 296 CURVE",
"452 296 LINE"
);
}
);
width = 866;
},
{
anchors = (
{
name = bottom;
position = "{438, 0}";
},
{
name = top;
position = "{438, 468}";
}
);
background = {
paths = (
{
closed = 1;
nodes = (
"421 343 LINE",
"413 374 OFFCURVE",
"400 399 OFFCURVE",
"383 420 CURVE SMOOTH",
"350 462 OFFCURVE",
"305 483 OFFCURVE",
"248 483 CURVE SMOOTH",
"245 483 LINE SMOOTH",
"158 483 OFFCURVE",
"117 453 OFFCURVE",
"66 389 CURVE",
"119 356 LINE",
"138 379 OFFCURVE",
"155 396 OFFCURVE",
"172 406 CURVE SMOOTH",
"189 416 OFFCURVE",
"213 421 OFFCURVE",
"245 421 CURVE SMOOTH",
"288 421 OFFCURVE",
"322 403 OFFCURVE",
"348 367 CURVE SMOOTH",
"372 335 OFFCURVE",
"384 297 OFFCURVE",
"386 254 CURVE"
);
},
{
closed = 1;
nodes = (
"460 296 LINE",
"467 321 OFFCURVE",
"480 344 OFFCURVE",
"498 365 CURVE SMOOTH",
"531 403 OFFCURVE",
"568 422 OFFCURVE",
"611 422 CURVE SMOOTH",
"654 422 OFFCURVE",
"693 404 OFFCURVE",
"727 368 CURVE SMOOTH",
"746 347 OFFCURVE",
"761 323 OFFCURVE",
"770 296 CURVE"
);
},
{
closed = 1;
nodes = (
"429 109 LINE",
"385 76 OFFCURVE",
"302 46 OFFCURVE",
"225 46 CURVE SMOOTH",
"154 46 OFFCURVE",
"110 73 OFFCURVE",
"110 126 CURVE SMOOTH",
"110 179 OFFCURVE",
"151 212 OFFCURVE",
"195 223 CURVE SMOOTH",
"242 235 OFFCURVE",
"321 235 OFFCURVE",
"398 216 CURVE",
"401 266 LINE",
"339 282 OFFCURVE",
"291 290 OFFCURVE",
"256 290 CURVE SMOOTH",
"224 290 OFFCURVE",
"192 285 OFFCURVE",
"159 276 CURVE",
"94 256 OFFCURVE",
"35 206 OFFCURVE",
"35 123 CURVE SMOOTH",
"35 82 OFFCURVE",
"52 49 OFFCURVE",
"87 23 CURVE SMOOTH",
"122 -3 OFFCURVE",
"165 -16 OFFCURVE",
"216 -16 CURVE SMOOTH",
"309 -16 OFFCURVE",
"392 12 OFFCURVE",
"464 67 CURVE"
);
},
{
closed = 1;
nodes = (
"442 71 LINE",
"492 13 OFFCURVE",
"549 -16 OFFCURVE",
"611 -16 CURVE SMOOTH",
"670 -16 OFFCURVE",
"715 -7 OFFCURVE",
"747 10 CURVE SMOOTH",
"779 28 OFFCURVE",
"807 56 OFFCURVE",
"832 95 CURVE",
"778 131 LINE",
"759 99 OFFCURVE",
"738 77 OFFCURVE",
"716 64 CURVE SMOOTH",
"695 52 OFFCURVE",
"661 46 OFFCURVE",
"615 46 CURVE SMOOTH",
"570 46 OFFCURVE",
"531 65 OFFCURVE",
"498 103 CURVE",
"466 142 OFFCURVE",
"450 185 OFFCURVE",
"450 234 CURVE",
"847 234 LINE",
"847 301 OFFCURVE",
"823 359 OFFCURVE",
"776 409 CURVE SMOOTH",
"729 459 OFFCURVE",
"676 484 OFFCURVE",
"615 484 CURVE SMOOTH",
"554 484 OFFCURVE",
"500 459 OFFCURVE",
"453 409 CURVE SMOOTH",
"435 390 OFFCURVE",
"421 368 OFFCURVE",
"408 347 CURVE",
"385 287 LINE",
"385 257 LINE",
"382 233 LINE",
"383 179 OFFCURVE",
"400 134 OFFCURVE",
"427 91 CURVE"
);
}
);
};
layerId = "63224BA1-30A4-42F4-A6D1-9160F56B91B0";
paths = (
{
closed = 1;
nodes = (
"723 -16 OFFCURVE",
"792 30 OFFCURVE",
"834 95 CURVE",
"780 131 LINE",
"750 81 OFFCURVE",
"702 46 OFFCURVE",
"617 46 CURVE SMOOTH",
"507 46 OFFCURVE",
"453 140 OFFCURVE",
"453 233 CURVE SMOOTH",
"453 328 OFFCURVE",
"508 422 OFFCURVE",
"616 422 CURVE SMOOTH",
"704 422 OFFCURVE",
"758 374 OFFCURVE",
"771 276 CURVE",
"447 276 LINE",
"436 220 LINE",
"838 220 LINE",
"854 378 OFFCURVE",
"762 484 OFFCURVE",
"616 484 CURVE SMOOTH",
"481 484 OFFCURVE",
"385 380 OFFCURVE",
"385 234 CURVE SMOOTH",
"385 88 OFFCURVE",
"482 -16 OFFCURVE",
"619 -16 CURVE SMOOTH"
);
},
{
closed = 1;
nodes = (
"335 -16 OFFCURVE",
"395 12 OFFCURVE",
"464 67 CURVE",
"429 109 LINE",
"387 76 OFFCURVE",
"328 46 OFFCURVE",
"255 46 CURVE SMOOTH",
"178 46 OFFCURVE",
"130 73 OFFCURVE",
"130 136 CURVE SMOOTH",
"130 200 OFFCURVE",
"198 230 OFFCURVE",
"286 230 CURVE SMOOTH",
"321 230 OFFCURVE",
"360 225 OFFCURVE",
"398 216 CURVE",
"401 266 LINE",
"353 282 OFFCURVE",
"341 290 OFFCURVE",
"276 290 CURVE SMOOTH",
"160 290 OFFCURVE",
"55 235 OFFCURVE",
"55 133 CURVE SMOOTH",
"55 34 OFFCURVE",
"136 -16 OFFCURVE",
"246 -16 CURVE SMOOTH"
);
},
{
closed = 1;
nodes = (
"431 303 LINE",
"431 412 OFFCURVE",
"368 483 OFFCURVE",
"245 483 CURVE SMOOTH",
"178 483 OFFCURVE",
"115 457 OFFCURVE",
"69 399 CURVE",
"118 364 LINE",
"152 406 OFFCURVE",
"192 425 OFFCURVE",
"243 425 CURVE SMOOTH",
"341 425 OFFCURVE",
"381 360 OFFCURVE",
"386 254 CURVE"
);
}
);
width = 876;
}
);
rightMetricsKey = e;
unicode = 00E6;
},
{
color = 5;
glyphname = b;
layers = (
{
anchors = (
{
name = above;
position = "{103, 765}";
},
{
name = below;
position = "{293, 0}";
}
);
layerId = UUID0;
paths = (
{
closed = 1;
nodes = (
"353 -16 OFFCURVE",
"409 9 OFFCURVE",
"456 59 CURVE SMOOTH",
"503 109 OFFCURVE",
"527 167 OFFCURVE",
"527 234 CURVE SMOOTH",
"527 301 OFFCURVE",
"504 359 OFFCURVE",
"457 409 CURVE SMOOTH",
"411 459 OFFCURVE",
"355 484 OFFCURVE",
"290 484 CURVE SMOOTH",
"225 484 OFFCURVE",
"172 454 OFFCURVE",
"131 395 CURVE",
"131 726 LINE",
"63 726 LINE",
"63 0 LINE",
"131 0 LINE",
"131 71 LINE",
"170 13 OFFCURVE",
"223 -16 OFFCURVE",
"288 -16 CURVE SMOOTH"
);
},
{
closed = 1;
nodes = (
"250 46 OFFCURVE",
"212 65 OFFCURVE",
"179 103 CURVE",
"147 142 OFFCURVE",
"131 185 OFFCURVE",
"131 234 CURVE SMOOTH",
"131 283 OFFCURVE",
"147 327 OFFCURVE",
"179 365 CURVE SMOOTH",
"212 403 OFFCURVE",
"250 422 OFFCURVE",
"295 422 CURVE SMOOTH",
"340 422 OFFCURVE",
"378 403 OFFCURVE",
"410 365 CURVE SMOOTH",
"443 327 OFFCURVE",
"459 284 OFFCURVE",
"459 235 CURVE SMOOTH",
"459 186 OFFCURVE",
"443 142 OFFCURVE",
"410 103 CURVE SMOOTH",
"378 65 OFFCURVE",
"340 46 OFFCURVE",
"295 46 CURVE SMOOTH"
);
}
);
width = 561;
},
{
anchors = (
{
name = bottom;
position = "{296, 0}";
},
{
name = top;
position = "{311, 468}";
}
);
background = {
paths = (
{
closed = 1;
nodes = (
"460 124 OFFCURVE",
"392 46 OFFCURVE",
"297 46 CURVE SMOOTH",
"200 46 OFFCURVE",
"132 124 OFFCURVE",
"132 234 CURVE SMOOTH",
"132 344 OFFCURVE",
"200 422 OFFCURVE",
"297 422 CURVE SMOOTH",
"392 422 OFFCURVE",
"460 345 OFFCURVE",
"460 235 CURVE SMOOTH"
);
},
{
closed = 1;
nodes = (
"528 381 OFFCURVE",
"432 484 OFFCURVE",
"297 484 CURVE SMOOTH",
"173 484 OFFCURVE",
"84 380 OFFCURVE",
"84 234 CURVE SMOOTH",
"84 88 OFFCURVE",
"172 -16 OFFCURVE",
"295 -16 CURVE SMOOTH",
"431 -16 OFFCURVE",
"528 88 OFFCURVE",
"528 235 CURVE SMOOTH"
);
},
{
closed = 1;
nodes = (
"64 726 LINE",
"64 0 LINE",
"132 0 LINE",
"132 726 LINE"
);
}
);
};
layerId = "63224BA1-30A4-42F4-A6D1-9160F56B91B0";
paths = (
{
closed = 1;
nodes = (
"431 -16 OFFCURVE",
"528 88 OFFCURVE",
"528 235 CURVE SMOOTH",
"528 381 OFFCURVE",
"432 484 OFFCURVE",
"297 484 CURVE SMOOTH",
"173 484 OFFCURVE",
"84 380 OFFCURVE",
"84 234 CURVE SMOOTH",
"84 88 OFFCURVE",
"172 -16 OFFCURVE",
"295 -16 CURVE SMOOTH"
);
},
{
closed = 1;
nodes = (
"132 0 LINE",
"132 726 LINE",
"64 726 LINE",
"64 0 LINE"
);
},
{
closed = 1;
nodes = (
"200 46 OFFCURVE",
"132 124 OFFCURVE",
"132 234 CURVE SMOOTH",
"132 344 OFFCURVE",
"200 422 OFFCURVE",
"297 422 CURVE SMOOTH",
"392 422 OFFCURVE",
"460 345 OFFCURVE",
"460 235 CURVE SMOOTH",
"460 124 OFFCURVE",
"392 46 OFFCURVE",
"297 46 CURVE SMOOTH"
);
}
);
width = 561;
}
);
unicode = 0062;
},
{
color = 6;
glyphname = bhook;
layers = (
{
layerId = UUID0;
paths = (
{
closed = 1;
nodes = (
"356 -16 OFFCURVE",
"409 9 OFFCURVE",
"456 58 CURVE SMOOTH",
"503 108 OFFCURVE",
"527 167 OFFCURVE",
"527 234 CURVE SMOOTH",
"527 301 OFFCURVE",
"503 360 OFFCURVE",
"455 409 CURVE",
"408 459 OFFCURVE",
"354 484 OFFCURVE",
"295 484 CURVE SMOOTH",
"233 484 OFFCURVE",
"178 458 OFFCURVE",
"131 406 CURVE",
"131 594 LINE SMOOTH",
"131 639 OFFCURVE",
"165 674 OFFCURVE",
"210 674 CURVE SMOOTH",
"280 674 LINE",
"280 741 LINE",
"210 741 LINE SMOOTH",
"169 741 OFFCURVE",
"134 727 OFFCURVE",
"105 698 CURVE SMOOTH",
"77 669 OFFCURVE",
"63 635 OFFCURVE",
"63 594 CURVE SMOOTH",
"63 0 LINE",
"131 0 LINE",
"131 63 LINE",
"180 10 OFFCURVE",
"235 -16 OFFCURVE",
"297 -16 CURVE SMOOTH"
);
},
{
closed = 1;
nodes = (
"251 46 OFFCURVE",
"213 64 OFFCURVE",
"180 101 CURVE SMOOTH",
"147 138 OFFCURVE",
"131 183 OFFCURVE",
"131 235 CURVE SMOOTH",
"131 286 OFFCURVE",
"147 330 OFFCURVE",
"180 367 CURVE SMOOTH",
"213 404 OFFCURVE",
"251 422 OFFCURVE",
"294 422 CURVE SMOOTH",
"338 422 OFFCURVE",
"376 404 OFFCURVE",
"409 367 CURVE SMOOTH",
"442 330 OFFCURVE",
"459 286 OFFCURVE",
"459 234 CURVE SMOOTH",
"459 183 OFFCURVE",
"442 138 OFFCURVE",
"409 101 CURVE SMOOTH",
"376 64 OFFCURVE",
"338 46 OFFCURVE",
"294 46 CURVE SMOOTH"
);
}
);
width = 561;
},
{
layerId = "63224BA1-30A4-42F4-A6D1-9160F56B91B0";
paths = (
{
closed = 1;
nodes = (
"228 484 OFFCURVE",
"170 452 OFFCURVE",
"132 398 CURVE",
"132 599 LINE SMOOTH",
"132 649 OFFCURVE",
"161 679 OFFCURVE",
"211 679 CURVE SMOOTH",
"281 679 LINE",
"281 741 LINE",
"211 741 LINE SMOOTH",
"119 741 OFFCURVE",
"64 686 OFFCURVE",
"64 594 CURVE SMOOTH",
"64 0 LINE",
"132 0 LINE",
"132 69 LINE",
"170 16 OFFCURVE",
"227 -16 OFFCURVE",
"295 -16 CURVE SMOOTH",
"431 -16 OFFCURVE",
"528 88 OFFCURVE",
"528 235 CURVE SMOOTH",
"528 381 OFFCURVE",
"432 484 OFFCURVE",
"297 484 CURVE SMOOTH"
);
},
{
closed = 1;
nodes = (
"200 46 OFFCURVE",
"132 124 OFFCURVE",
"132 234 CURVE SMOOTH",
"132 344 OFFCURVE",
"200 422 OFFCURVE",
"297 422 CURVE SMOOTH",
"392 422 OFFCURVE",
"460 345 OFFCURVE",
"460 235 CURVE SMOOTH",
"460 124 OFFCURVE",
"392 46 OFFCURVE",
"297 46 CURVE SMOOTH"
);
}
);
width = 561;
}
);
unicode = 0253;
},
{
color = 6;
glyphname = bstroke;
layers = (
{
layerId = UUID0;
paths = (
{
closed = 1;
nodes = (
"353 -16 OFFCURVE",
"410 9 OFFCURVE",
"457 59 CURVE SMOOTH",
"504 109 OFFCURVE",
"527 167 OFFCURVE",
"527 234 CURVE SMOOTH",
"527 301 OFFCURVE",
"504 359 OFFCURVE",
"458 409 CURVE SMOOTH",
"411 459 OFFCURVE",
"356 484 OFFCURVE",
"291 484 CURVE SMOOTH",
"226 484 OFFCURVE",
"172 454 OFFCURVE",
"131 395 CURVE",
"131 567 LINE",
"305 567 LINE",
"305 615 LINE",
"131 615 LINE",
"131 726 LINE",
"63 726 LINE",
"63 615 LINE",
"33 615 LINE",
"33 567 LINE",
"63 567 LINE",
"63 0 LINE",
"131 0 LINE",
"131 71 LINE",
"170 13 OFFCURVE",
"223 -16 OFFCURVE",
"288 -16 CURVE SMOOTH"
);
},
{
closed = 1;
nodes = (
"250 46 OFFCURVE",
"212 65 OFFCURVE",
"179 104 CURVE SMOOTH",
"147 142 OFFCURVE",
"131 185 OFFCURVE",
"131 234 CURVE SMOOTH",
"131 283 OFFCURVE",
"147 327 OFFCURVE",
"179 365 CURVE SMOOTH",
"212 403 OFFCURVE",
"250 422 OFFCURVE",
"295 422 CURVE SMOOTH",
"340 422 OFFCURVE",
"378 403 OFFCURVE",
"411 365 CURVE SMOOTH",
"443 327 OFFCURVE",
"459 283 OFFCURVE",
"459 234 CURVE SMOOTH",
"459 185 OFFCURVE",
"443 142 OFFCURVE",
"411 104 CURVE SMOOTH",
"378 65 OFFCURVE",
"340 46 OFFCURVE",
"295 46 CURVE SMOOTH"
);
}
);
width = 561;
},
{
background = {
paths = (
{
closed = 1;
nodes = (
"139 599 LINE",
"139 726 LINE",
"71 726 LINE",
"71 599 LINE"
);
},
{
closed = 1;
nodes = (
"258 46 OFFCURVE",
"220 65 OFFCURVE",
"187 104 CURVE SMOOTH",
"155 142 OFFCURVE",
"139 185 OFFCURVE",
"139 234 CURVE SMOOTH",
"139 283 OFFCURVE",
"155 327 OFFCURVE",
"187 365 CURVE SMOOTH",
"220 403 OFFCURVE",
"258 422 OFFCURVE",
"303 422 CURVE SMOOTH",
"348 422 OFFCURVE",
"386 403 OFFCURVE",
"419 365 CURVE SMOOTH",
"451 327 OFFCURVE",
"467 283 OFFCURVE",
"467 234 CURVE SMOOTH",
"467 185 OFFCURVE",
"451 142 OFFCURVE",
"419 104 CURVE SMOOTH",
"386 65 OFFCURVE",
"348 46 OFFCURVE",
"303 46 CURVE SMOOTH"
);
},
{
closed = 1;
nodes = (
"71 583 LINE",
"71 0 LINE",
"139 0 LINE",
"139 71 LINE",
"178 13 OFFCURVE",
"231 -16 OFFCURVE",
"296 -16 CURVE SMOOTH",
"361 -16 OFFCURVE",
"418 9 OFFCURVE",
"465 59 CURVE SMOOTH",
"512 109 OFFCURVE",
"535 167 OFFCURVE",
"535 234 CURVE SMOOTH",
"535 301 OFFCURVE",
"512 359 OFFCURVE",
"466 409 CURVE SMOOTH",
"419 459 OFFCURVE",
"364 484 OFFCURVE",
"299 484 CURVE SMOOTH",
"234 484 OFFCURVE",
"180 454 OFFCURVE",
"139 395 CURVE",
"139 583 LINE"
);
},
{
closed = 1;
nodes = (
"313 567 LINE",
"313 615 LINE",
"41 615 LINE",
"41 567 LINE"
);
}
);
};
components = (
{
name = b;
transform = "{1, 0, 0, 1, 8, 0}";
}
);
layerId = "63224BA1-30A4-42F4-A6D1-9160F56B91B0";
paths = (
{
closed = 1;
nodes = (
"303 567 LINE",
"303 615 LINE",
"1 615 LINE",
"1 567 LINE"
);
}
);
width = 569;
}
);
leftMetricsKey = hbar;
rightMetricsKey = o;
unicode = 0180;
},
{
color = 5;
glyphname = c;
layers = (
{
anchors = (
{
name = above;
position = "{268, 567}";
},
{
name = below;
position = "{267, 0}";
}
);
layerId = UUID0;
paths = (
{
closed = 1;
nodes = (
"353 -16 OFFCURVE",
"406 14 OFFCURVE",
"454 74 CURVE",
"401 111 LINE",
"366 66 OFFCURVE",
"334 46 OFFCURVE",
"266 46 CURVE SMOOTH",
"222 46 OFFCURVE",
"184 64 OFFCURVE",
"151 101 CURVE SMOOTH",
"118 138 OFFCURVE",
"102 183 OFFCURVE",
"102 234 CURVE SMOOTH",
"102 286 OFFCURVE",
"118 330 OFFCURVE",
"151 367 CURVE SMOOTH",
"184 404 OFFCURVE",
"222 422 OFFCURVE",
"266 422 CURVE SMOOTH",
"317 422 OFFCURVE",
"359 398 OFFCURVE",
"393 351 CURVE",
"443 390 LINE",
"398 447 OFFCURVE",
"330 484 OFFCURVE",
"266 484 CURVE SMOOTH",
"207 484 OFFCURVE",
"153 459 OFFCURVE",
"105 409 CURVE SMOOTH",
"58 360 OFFCURVE",
"34 301 OFFCURVE",
"34 234 CURVE SMOOTH",
"34 167 OFFCURVE",
"58 109 OFFCURVE",
"106 59 CURVE SMOOTH",
"155 9 OFFCURVE",
"209 -16 OFFCURVE",
"268 -16 CURVE SMOOTH"
);
}
);
width = 477;
},
{
anchors = (
{
name = bottom;
position = "{259, 0}";
},
{
name = top;
position = "{269, 468}";
}
);
layerId = "63224BA1-30A4-42F4-A6D1-9160F56B91B0";
paths = (
{
closed = 1;
nodes = (
"345 -16 OFFCURVE",
"412 21 OFFCURVE",
"454 74 CURVE",
"401 111 LINE",
"371 73 OFFCURVE",
"335 46 OFFCURVE",
"266 46 CURVE SMOOTH",
"170 46 OFFCURVE",
"102 124 OFFCURVE",
"102 234 CURVE SMOOTH",
"102 344 OFFCURVE",
"170 422 OFFCURVE",
"266 422 CURVE SMOOTH",
"322 422 OFFCURVE",
"364 393 OFFCURVE",
"393 351 CURVE",
"443 390 LINE",
"400 445 OFFCURVE",
"347 484 OFFCURVE",
"266 484 CURVE SMOOTH",
"130 484 OFFCURVE",
"34 380 OFFCURVE",
"34 234 CURVE SMOOTH",
"34 88 OFFCURVE",
"131 -16 OFFCURVE",
"268 -16 CURVE SMOOTH"
);
}
);
width = 477;
}
);
unicode = 0063;
},
{
color = 5;
glyphname = ccedilla;
layers = (
{
layerId = UUID0;
paths = (
{
closed = 1;
nodes = (
"310 -200 OFFCURVE",
"378 -175 OFFCURVE",
"378 -125 CURVE SMOOTH",
"378 -111 OFFCURVE",
"369 -98 OFFCURVE",
"351 -86 CURVE SMOOTH",
"333 -74 OFFCURVE",
"306 -68 OFFCURVE",
"271 -68 CURVE",
"297 -14 LINE",
"327 -11 OFFCURVE",
"353 -4 OFFCURVE",
"375 7 CURVE SMOOTH",
"404 22 OFFCURVE",
"430 44 OFFCURVE",
"454 74 CURVE",
"401 111 LINE",
"384 88 OFFCURVE",
"365 72 OFFCURVE",
"346 62 CURVE SMOOTH",
"327 51 OFFCURVE",
"300 46 OFFCURVE",
"266 46 CURVE SMOOTH",
"222 46 OFFCURVE",
"184 65 OFFCURVE",
"151 102 CURVE SMOOTH",
"118 139 OFFCURVE",
"102 183 OFFCURVE",
"102 234 CURVE SMOOTH",
"102 286 OFFCURVE",
"118 330 OFFCURVE",
"151 367 CURVE SMOOTH",
"184 404 OFFCURVE",
"222 422 OFFCURVE",
"266 422 CURVE SMOOTH",
"317 422 OFFCURVE",
"359 398 OFFCURVE",
"393 351 CURVE",
"443 390 LINE",
"420 419 OFFCURVE",
"393 441 OFFCURVE",
"362 458 CURVE SMOOTH",
"330 475 OFFCURVE",
"298 484 OFFCURVE",
"266 484 CURVE SMOOTH",
"207 484 OFFCURVE",
"153 459 OFFCURVE",
"105 410 CURVE",
"58 360 OFFCURVE",
"34 301 OFFCURVE",
"34 234 CURVE SMOOTH",
"34 167 OFFCURVE",
"58 109 OFFCURVE",
"106 59 CURVE SMOOTH",
"149 15 OFFCURVE",
"195 -10 OFFCURVE",
"246 -15 CURVE",
"205 -103 LINE",
"236 -103 OFFCURVE",
"259 -104 OFFCURVE",
"275 -106 CURVE SMOOTH",
"291 -108 OFFCURVE",
"301 -111 OFFCURVE",
"306 -115 CURVE SMOOTH",
"311 -119 OFFCURVE",
"313 -124 OFFCURVE",
"313 -131 CURVE SMOOTH",
"313 -144 OFFCURVE",
"298 -154 OFFCURVE",
"268 -162 CURVE SMOOTH",
"238 -169 OFFCURVE",
"206 -173 OFFCURVE",
"173 -173 CURVE",
"173 -200 LINE"
);
}
);
width = 477;
},
{
components = (
{
name = c;
},
{
name = cedillacomb;
transform = "{1, 0, 0, 1, 106, 0}";
}
);
layerId = "63224BA1-30A4-42F4-A6D1-9160F56B91B0";
width = 477;
}
);
unicode = 00E7;
},
{
color = 6;
glyphname = chook;
layers = (
{
layerId = UUID0;
paths = (
{
closed = 1;
nodes = (
"311 -16 OFFCURVE",
"346 -8 OFFCURVE",
"375 7 CURVE SMOOTH",
"404 22 OFFCURVE",
"430 44 OFFCURVE",
"454 74 CURVE",
"401 111 LINE",
"384 88 OFFCURVE",
"365 72 OFFCURVE",
"346 62 CURVE SMOOTH",
"327 51 OFFCURVE",
"300 46 OFFCURVE",
"266 46 CURVE SMOOTH",
"222 46 OFFCURVE",
"184 65 OFFCURVE",
"151 102 CURVE SMOOTH",
"118 139 OFFCURVE",
"102 183 OFFCURVE",
"102 234 CURVE SMOOTH",
"102 286 OFFCURVE",
"118 330 OFFCURVE",
"151 367 CURVE SMOOTH",
"184 404 OFFCURVE",
"222 422 OFFCURVE",
"266 422 CURVE SMOOTH",
"317 422 OFFCURVE",
"359 398 OFFCURVE",
"393 351 CURVE",
"443 390 LINE",
"443 445 LINE SMOOTH",
"443 467 OFFCURVE",
"452 486 OFFCURVE",
"469 502 CURVE SMOOTH",
"485 517 OFFCURVE",
"505 525 OFFCURVE",
"529 525 CURVE",
"529 593 LINE",
"488 593 OFFCURVE",
"453 579 OFFCURVE",
"424 550 CURVE SMOOTH",
"395 521 OFFCURVE",
"381 487 OFFCURVE",
"381 447 CURVE",
"375 451 OFFCURVE",
"369 455 OFFCURVE",
"362 458 CURVE SMOOTH",
"330 475 OFFCURVE",
"298 484 OFFCURVE",
"266 484 CURVE SMOOTH",
"207 484 OFFCURVE",
"153 459 OFFCURVE",
"105 410 CURVE",
"58 360 OFFCURVE",
"34 301 OFFCURVE",
"34 234 CURVE SMOOTH",
"34 167 OFFCURVE",
"58 109 OFFCURVE",
"106 59 CURVE SMOOTH",
"155 9 OFFCURVE",
"209 -16 OFFCURVE",
"268 -16 CURVE SMOOTH"
);
}
);
width = 477;
},
{
background = {
components = (
{
name = c;
}
);
};
components = (
{
name = c;
}
);
layerId = "63224BA1-30A4-42F4-A6D1-9160F56B91B0";
paths = (
{
closed = 1;
nodes = (
"443 390 LINE",
"443 445 LINE SMOOTH",
"443 495 OFFCURVE",
"475 525 OFFCURVE",
"529 525 CURVE",
"529 587 LINE",
"437 587 OFFCURVE",
"382 529 OFFCURVE",
"382 430 CURVE"
);
}
);
width = 477;
}
);
unicode = 0188;
},
{
color = 6;
glyphname = cstroke;
layers = (
{
layerId = UUID0;
paths = (
{
closed = 1;
nodes = (
"157 18 LINE",
"191 -5 OFFCURVE",
"228 -16 OFFCURVE",
"268 -16 CURVE SMOOTH",
"311 -16 OFFCURVE",
"346 -8 OFFCURVE",
"375 7 CURVE SMOOTH",
"404 22 OFFCURVE",
"430 44 OFFCURVE",
"454 74 CURVE",
"401 111 LINE",
"384 88 OFFCURVE",
"365 72 OFFCURVE",
"346 62 CURVE SMOOTH",
"327 51 OFFCURVE",
"300 46 OFFCURVE",
"266 46 CURVE SMOOTH",
"235 46 OFFCURVE",
"207 55 OFFCURVE",
"182 73 CURVE",
"336 403 LINE",
"357 392 OFFCURVE",
"376 374 OFFCURVE",
"393 351 CURVE",
"443 390 LINE",
"420 419 OFFCURVE",
"393 441 OFFCURVE",
"362 458 CURVE",
"392 522 LINE",
"346 544 LINE",
"315 478 LINE",
"299 482 OFFCURVE",
"283 484 OFFCURVE",
"266 484 CURVE SMOOTH",
"207 484 OFFCURVE",
"153 459 OFFCURVE",
"105 410 CURVE",
"58 360 OFFCURVE",
"34 301 OFFCURVE",
"34 234 CURVE SMOOTH",
"34 167 OFFCURVE",
"58 109 OFFCURVE",
"106 59 CURVE",
"116 50 LINE",
"74 -39 LINE",
"120 -60 LINE"
);
},
{
closed = 1;
nodes = (
"116 145 OFFCURVE",
"102 187 OFFCURVE",
"102 234 CURVE SMOOTH",
"102 286 OFFCURVE",
"118 330 OFFCURVE",
"151 367 CURVE SMOOTH",
"184 404 OFFCURVE",
"222 422 OFFCURVE",
"266 422 CURVE SMOOTH",
"273 422 OFFCURVE",
"281 421 OFFCURVE",
"288 420 CURVE",
"144 110 LINE"
);
}
);
width = 477;
},
{
background = {
components = (
{
name = c;
}
);
};
components = (
{
name = c;
}
);
layerId = "63224BA1-30A4-42F4-A6D1-9160F56B91B0";
paths = (
{
closed = 1;
nodes = (
"412 522 LINE",
"366 544 LINE",
"94 -39 LINE",
"140 -60 LINE"
);
}
);
width = 477;
}
);
unicode = 023C;
},
{
color = 5;
glyphname = d;
layers = (
{
anchors = (
{
name = above;
position = "{464, 765}";
},
{
name = below;
position = "{273, 0}";
}
);
layerId = UUID0;
paths = (
{
closed = 1;
nodes = (
"337 -16 OFFCURVE",
"390 13 OFFCURVE",
"430 71 CURVE",
"430 0 LINE",
"498 0 LINE",
"498 726 LINE",
"430 726 LINE",
"430 395 LINE",
"388 454 OFFCURVE",
"335 484 OFFCURVE",
"270 484 CURVE SMOOTH",
"205 484 OFFCURVE",
"150 459 OFFCURVE",
"104 410 CURVE SMOOTH",
"57 360 OFFCURVE",
"34 301 OFFCURVE",
"34 234 CURVE SMOOTH",
"34 167 OFFCURVE",
"57 108 OFFCURVE",
"104 58 CURVE SMOOTH",
"151 9 OFFCURVE",
"207 -16 OFFCURVE",
"272 -16 CURVE SMOOTH"
);
},
{
closed = 1;
nodes = (
"220 46 OFFCURVE",
"182 65 OFFCURVE",
"150 103 CURVE SMOOTH",
"118 142 OFFCURVE",
"102 186 OFFCURVE",
"102 235 CURVE SMOOTH",
"102 284 OFFCURVE",
"118 327 OFFCURVE",
"150 365 CURVE SMOOTH",
"182 403 OFFCURVE",
"220 422 OFFCURVE",
"265 422 CURVE SMOOTH",
"310 422 OFFCURVE",
"349 403 OFFCURVE",
"381 365 CURVE SMOOTH",
"414 327 OFFCURVE",
"430 283 OFFCURVE",
"430 234 CURVE SMOOTH",
"430 185 OFFCURVE",
"414 142 OFFCURVE",
"381 103 CURVE SMOOTH",
"349 65 OFFCURVE",
"310 46 OFFCURVE",
"265 46 CURVE SMOOTH"
);
}
);
width = 561;
},
{
anchors = (
{
name = bottom;
position = "{281, 0}";
},
{
name = center;
position = "{444, 558}";
},
{
name = top;
position = "{281, 468}";
},
{
name = topright;
position = "{561, 468}";
}
);
background = {
paths = (
{
closed = 1;
nodes = (
"102 284 OFFCURVE",
"118 327 OFFCURVE",
"150 365 CURVE SMOOTH",
"182 403 OFFCURVE",
"220 422 OFFCURVE",
"265 422 CURVE SMOOTH",
"310 422 OFFCURVE",
"349 403 OFFCURVE",
"381 365 CURVE SMOOTH",
"414 327 OFFCURVE",
"430 283 OFFCURVE",
"430 234 CURVE SMOOTH",
"430 185 OFFCURVE",
"414 142 OFFCURVE",
"381 103 CURVE SMOOTH",
"349 65 OFFCURVE",
"310 46 OFFCURVE",
"265 46 CURVE SMOOTH",
"220 46 OFFCURVE",
"182 65 OFFCURVE",
"150 103 CURVE SMOOTH",
"118 142 OFFCURVE",
"102 186 OFFCURVE",
"102 235 CURVE SMOOTH"
);
},
{
closed = 1;
nodes = (
"57 360 OFFCURVE",
"34 301 OFFCURVE",
"34 234 CURVE SMOOTH",
"34 167 OFFCURVE",
"57 108 OFFCURVE",
"104 58 CURVE SMOOTH",
"151 9 OFFCURVE",
"207 -16 OFFCURVE",
"272 -16 CURVE SMOOTH",
"337 -16 OFFCURVE",
"390 13 OFFCURVE",
"430 71 CURVE",
"430 0 LINE",
"498 0 LINE",
"498 726 LINE",
"430 726 LINE",
"430 395 LINE",
"388 454 OFFCURVE",
"335 484 OFFCURVE",
"270 484 CURVE SMOOTH",
"205 484 OFFCURVE",
"150 459 OFFCURVE",
"104 410 CURVE SMOOTH"
);
}
);
};
layerId = "63224BA1-30A4-42F4-A6D1-9160F56B91B0";
paths = (
{
closed = 1;
nodes = (
"390 -16 OFFCURVE",
"478 88 OFFCURVE",
"478 234 CURVE SMOOTH",
"478 380 OFFCURVE",
"389 484 OFFCURVE",
"265 484 CURVE SMOOTH",
"130 484 OFFCURVE",
"34 381 OFFCURVE",
"34 235 CURVE SMOOTH",
"34 88 OFFCURVE",
"131 -16 OFFCURVE",
"267 -16 CURVE SMOOTH"
);
},
{
closed = 1;
nodes = (
"170 46 OFFCURVE",
"102 124 OFFCURVE",
"102 235 CURVE SMOOTH",
"102 345 OFFCURVE",
"170 422 OFFCURVE",
"265 422 CURVE SMOOTH",
"362 422 OFFCURVE",
"430 344 OFFCURVE",
"430 234 CURVE SMOOTH",
"430 124 OFFCURVE",
"362 46 OFFCURVE",
"265 46 CURVE SMOOTH"
);
},
{
closed = 1;
nodes = (
"498 0 LINE",
"498 726 LINE",
"430 726 LINE",
"430 0 LINE"
);
}
);
width = 561;
}
);
unicode = 0064;
},
{
color = 5;
glyphname = eth;
layers = (
{
layerId = UUID0;
paths = (
{
closed = 1;
nodes = (
"326 -16 OFFCURVE",
"381 9 OFFCURVE",
"428 59 CURVE SMOOTH",
"475 110 OFFCURVE",
"498 168 OFFCURVE",
"498 234 CURVE SMOOTH",
"498 284 OFFCURVE",
"493 329 OFFCURVE",
"484 370 CURVE SMOOTH",
"462 468 OFFCURVE",
"408 555 OFFCURVE",
"322 631 CURVE",
"386 680 LINE",
"351 725 LINE",
"277 668 LINE",
"252 687 OFFCURVE",
"224 707 OFFCURVE",
"195 726 CURVE",
"161 680 LINE",
"229 631 LINE",
"162 580 LINE",
"197 535 LINE",
"274 595 LINE",
"335 541 OFFCURVE",
"377 483 OFFCURVE",
"400 422 CURVE",
"364 458 OFFCURVE",
"313 484 OFFCURVE",
"266 484 CURVE SMOOTH",
"199 484 OFFCURVE",
"144 457 OFFCURVE",
"100 404 CURVE SMOOTH",
"56 351 OFFCURVE",
"34 295 OFFCURVE",
"34 234 CURVE SMOOTH",
"34 173 OFFCURVE",
"56 116 OFFCURVE",
"99 63 CURVE SMOOTH",
"143 10 OFFCURVE",
"197 -16 OFFCURVE",
"261 -16 CURVE SMOOTH"
);
},
{
closed = 1;
nodes = (
"219 46 OFFCURVE",
"181 65 OFFCURVE",
"149 102 CURVE SMOOTH",
"117 139 OFFCURVE",
"101 183 OFFCURVE",
"101 233 CURVE SMOOTH",
"101 284 OFFCURVE",
"117 328 OFFCURVE",
"150 365 CURVE SMOOTH",
"182 402 OFFCURVE",
"221 421 OFFCURVE",
"266 421 CURVE SMOOTH",
"285 421 OFFCURVE",
"303 417 OFFCURVE",
"321 409 CURVE SMOOTH",
"358 394 OFFCURVE",
"393 368 OFFCURVE",
"424 329 CURVE",
"428 300 OFFCURVE",
"430 268 OFFCURVE",
"430 234 CURVE SMOOTH",
"430 185 OFFCURVE",
"414 142 OFFCURVE",
"381 103 CURVE SMOOTH",
"348 65 OFFCURVE",
"309 46 OFFCURVE",
"264 46 CURVE SMOOTH"
);
}
);
width = 544;
},
{
background = {
anchors = (
{
name = bottom;
position = "{266, 0}";
},
{
name = center;
position = "{266, 234}";
},
{
name = ogonek;
position = "{339, -5}";
},
{
name = top;
position = "{266, 468}";
},
{
name = topright;
position = "{511, 468}";
}
);
paths = (
{
closed = 1;
nodes = (
"255 687 OFFCURVE",
"248 691 OFFCURVE",
"195 726 CURVE",
"162 680 LINE",
"195 655 OFFCURVE",
"228 634 OFFCURVE",
"261 606 CURVE SMOOTH",
"334 544 OFFCURVE",
"382 478 OFFCURVE",
"405 408 CURVE",
"498 216 LINE",
"502 395 OFFCURVE",
"446 528 OFFCURVE",
"297 652 CURVE SMOOTH"
);
},
{
closed = 1;
nodes = (
"169 568 LINE",
"199 536 LINE",
"370 703 LINE",
"340 734 LINE"
);
},
{
closed = 1;
nodes = (
"102 345 OFFCURVE",
"170 422 OFFCURVE",
"265 422 CURVE SMOOTH",
"362 422 OFFCURVE",
"430 344 OFFCURVE",
"430 234 CURVE SMOOTH",
"430 124 OFFCURVE",
"362 46 OFFCURVE",
"265 46 CURVE SMOOTH",
"170 46 OFFCURVE",
"102 124 OFFCURVE",
"102 235 CURVE SMOOTH"
);
},
{
closed = 1;
nodes = (
"34 88 OFFCURVE",
"131 -16 OFFCURVE",
"267 -16 CURVE SMOOTH",
"402 -16 OFFCURVE",
"498 88 OFFCURVE",
"498 234 CURVE SMOOTH",
"498 380 OFFCURVE",
"401 484 OFFCURVE",
"265 484 CURVE SMOOTH",
"130 484 OFFCURVE",
"34 381 OFFCURVE",
"34 235 CURVE SMOOTH"
);
}
);
};
guideLines = (
{
angle = 90;
position = "{431, 562}";
},
{
angle = 90;
position = "{498, 562}";
}
);
layerId = "63224BA1-30A4-42F4-A6D1-9160F56B91B0";
paths = (
{
closed = 1;
nodes = (
"402 -16 OFFCURVE",
"498 88 OFFCURVE",
"498 234 CURVE",
"455 279 LINE",
"455 406 OFFCURVE",
"354 484 OFFCURVE",
"265 484 CURVE SMOOTH",
"130 484 OFFCURVE",
"34 381 OFFCURVE",
"34 235 CURVE SMOOTH",
"34 88 OFFCURVE",
"131 -16 OFFCURVE",
"267 -16 CURVE SMOOTH"
);
},
{
closed = 1;
nodes = (
"170 46 OFFCURVE",
"102 124 OFFCURVE",
"102 235 CURVE SMOOTH",
"102 345 OFFCURVE",
"170 422 OFFCURVE",
"265 422 CURVE SMOOTH",
"362 422 OFFCURVE",
"430 344 OFFCURVE",
"430 234 CURVE SMOOTH",
"430 124 OFFCURVE",
"362 46 OFFCURVE",
"265 46 CURVE SMOOTH"
);
},
{
closed = 1;
nodes = (
"498 537 OFFCURVE",
"409 649 OFFCURVE",
"187 729 CURVE",
"162 680 LINE",
"316 630 OFFCURVE",
"431 550 OFFCURVE",
"431 283 CURVE",
"498 216 LINE"
);
},
{
closed = 1;
nodes = (
"371 717 LINE",
"340 746 LINE",
"199 590 LINE",
"231 560 LINE"
);
}
);
width = 531;
}
);
leftMetricsKey = o;
rightMetricsKey = o;
unicode = 00F0;
},
{
color = 6;
glyphname = dcedilla;
layers = (
{
layerId = UUID0;
paths = (
{
closed = 1;
nodes = (
"306 -200 OFFCURVE",
"374 -175 OFFCURVE",
"374 -125 CURVE SMOOTH",
"374 -97 OFFCURVE",
"339 -68 OFFCURVE",
"268 -68 CURVE",
"294 -14 LINE",
"345 -7 OFFCURVE",
"390 18 OFFCURVE",
"430 61 CURVE",
"430 0 LINE",
"498 0 LINE",
"498 726 LINE",
"430 726 LINE",
"430 406 LINE",
"382 458 OFFCURVE",
"327 484 OFFCURVE",
"266 484 CURVE SMOOTH",
"207 484 OFFCURVE",
"153 459 OFFCURVE",
"105 409 CURVE SMOOTH",
"58 360 OFFCURVE",
"34 301 OFFCURVE",
"34 234 CURVE SMOOTH",
"34 172 OFFCURVE",
"55 117 OFFCURVE",
"97 69 CURVE SMOOTH",
"139 22 OFFCURVE",
"188 -6 OFFCURVE",
"243 -14 CURVE",
"202 -103 LINE",
"296 -103 OFFCURVE",
"310 -111 OFFCURVE",
"310 -131 CURVE SMOOTH",
"310 -144 OFFCURVE",
"295 -154 OFFCURVE",
"265 -161 CURVE SMOOTH",
"235 -169 OFFCURVE",
"203 -173 OFFCURVE",
"170 -173 CURVE",
"170 -200 LINE"
);
},
{
closed = 1;
nodes = (
"222 46 OFFCURVE",
"184 64 OFFCURVE",
"151 101 CURVE SMOOTH",
"118 138 OFFCURVE",
"102 183 OFFCURVE",
"102 235 CURVE SMOOTH",
"102 286 OFFCURVE",
"118 330 OFFCURVE",
"151 367 CURVE SMOOTH",
"184 404 OFFCURVE",
"222 422 OFFCURVE",
"265 422 CURVE SMOOTH",
"309 422 OFFCURVE",
"347 404 OFFCURVE",
"380 367 CURVE SMOOTH",
"413 330 OFFCURVE",
"430 286 OFFCURVE",
"430 234 CURVE SMOOTH",
"430 183 OFFCURVE",
"413 138 OFFCURVE",
"380 101 CURVE SMOOTH",
"347 64 OFFCURVE",
"309 46 OFFCURVE",
"265 46 CURVE SMOOTH"
);
}
);
width = 561;
},
{
components = (
{
name = d;
},
{
name = cedillacomb;
transform = "{1, 0, 0, 1, 128, 0}";
}
);
layerId = "63224BA1-30A4-42F4-A6D1-9160F56B91B0";
width = 561;
}
);
unicode = 1E11;
},
{
color = 5;
glyphname = dcroat;
layers = (
{
layerId = UUID0;
paths = (
{
closed = 1;
nodes = (
"337 -16 OFFCURVE",
"390 13 OFFCURVE",
"430 71 CURVE",
"430 0 LINE",
"498 0 LINE",
"498 567 LINE",
"551 567 LINE",
"551 630 LINE",
"498 630 LINE",
"498 726 LINE",
"430 726 LINE",
"430 630 LINE",
"289 630 LINE",
"289 567 LINE",
"430 567 LINE",
"430 395 LINE",
"388 454 OFFCURVE",
"335 484 OFFCURVE",
"270 484 CURVE SMOOTH",
"205 484 OFFCURVE",
"150 459 OFFCURVE",
"104 410 CURVE SMOOTH",
"57 360 OFFCURVE",
"34 301 OFFCURVE",
"34 234 CURVE SMOOTH",
"34 167 OFFCURVE",
"57 108 OFFCURVE",
"104 59 CURVE SMOOTH",
"151 9 OFFCURVE",
"207 -16 OFFCURVE",
"272 -16 CURVE SMOOTH"
);
},
{
closed = 1;
nodes = (
"221 46 OFFCURVE",
"182 65 OFFCURVE",
"150 104 CURVE SMOOTH",
"118 142 OFFCURVE",
"102 185 OFFCURVE",
"102 234 CURVE SMOOTH",
"102 283 OFFCURVE",
"118 327 OFFCURVE",
"150 365 CURVE SMOOTH",
"182 403 OFFCURVE",
"221 422 OFFCURVE",
"266 422 CURVE SMOOTH",
"311 422 OFFCURVE",
"349 403 OFFCURVE",
"381 365 CURVE SMOOTH",
"414 327 OFFCURVE",
"430 283 OFFCURVE",
"430 234 CURVE SMOOTH",
"430 185 OFFCURVE",
"414 142 OFFCURVE",
"381 104 CURVE",
"349 65 OFFCURVE",
"311 46 OFFCURVE",
"266 46 CURVE SMOOTH"
);
}
);
width = 561;
},
{
components = (
{
name = d;
},
{
name = strokeshortcomb;
transform = "{1, 0, 0, 1, 263, 289}";
}
);
layerId = "63224BA1-30A4-42F4-A6D1-9160F56B91B0";
width = 561;
}
);
unicode = 0111;
},
{
color = 6;
glyphname = dhook;
layers = (
{
layerId = UUID0;
paths = (
{
closed = 1;
nodes = (
"329 -16 OFFCURVE",
"383 10 OFFCURVE",
"430 61 CURVE",
"430 0 LINE",
"498 0 LINE",
"498 594 LINE SMOOTH",
"498 639 OFFCURVE",
"532 674 OFFCURVE",
"577 674 CURVE SMOOTH",
"648 674 LINE",
"648 741 LINE",
"577 741 LINE SMOOTH",
"536 741 OFFCURVE",
"502 727 OFFCURVE",
"473 698 CURVE SMOOTH",
"444 669 OFFCURVE",
"430 635 OFFCURVE",
"430 594 CURVE SMOOTH",
"430 406 LINE",
"382 458 OFFCURVE",
"327 484 OFFCURVE",
"266 484 CURVE SMOOTH",
"207 484 OFFCURVE",
"153 459 OFFCURVE",
"105 409 CURVE SMOOTH",
"58 360 OFFCURVE",
"34 302 OFFCURVE",
"34 235 CURVE SMOOTH",
"34 168 OFFCURVE",
"58 109 OFFCURVE",
"106 59 CURVE SMOOTH",
"155 9 OFFCURVE",
"209 -16 OFFCURVE",
"268 -16 CURVE SMOOTH"
);
},
{
closed = 1;
nodes = (
"222 46 OFFCURVE",
"184 64 OFFCURVE",
"151 101 CURVE SMOOTH",
"118 138 OFFCURVE",
"102 183 OFFCURVE",
"102 235 CURVE SMOOTH",
"102 286 OFFCURVE",
"118 330 OFFCURVE",
"151 367 CURVE SMOOTH",
"184 404 OFFCURVE",
"222 422 OFFCURVE",
"265 422 CURVE SMOOTH",
"309 422 OFFCURVE",
"347 404 OFFCURVE",
"380 367 CURVE SMOOTH",
"413 330 OFFCURVE",
"430 286 OFFCURVE",
"430 234 CURVE SMOOTH",
"430 183 OFFCURVE",
"413 138 OFFCURVE",
"380 101 CURVE SMOOTH",
"347 64 OFFCURVE",
"309 46 OFFCURVE",
"265 46 CURVE SMOOTH"
);
}
);
width = 561;
},
{
background = {
components = (
{
name = _part.roundLC;
}
);
paths = (
{
closed = 1;
nodes = (
"498 599 LINE",
"498 649 OFFCURVE",
"527 679 OFFCURVE",
"577 679 CURVE SMOOTH",
"647 679 LINE",
"647 741 LINE",
"577 741 LINE SMOOTH",
"485 741 OFFCURVE",
"430 686 OFFCURVE",
"430 594 CURVE SMOOTH",
"430 0 LINE",
"498 0 LINE"
);
}
);
};
components = (
{
name = _part.roundLC;
}
);
layerId = "63224BA1-30A4-42F4-A6D1-9160F56B91B0";
paths = (
{
closed = 1;
nodes = (
"498 599 LINE",
"498 649 OFFCURVE",
"527 679 OFFCURVE",
"577 679 CURVE SMOOTH",
"607 679 LINE",
"607 741 LINE",
"577 741 LINE SMOOTH",
"485 741 OFFCURVE",
"430 686 OFFCURVE",
"430 594 CURVE SMOOTH",
"430 0 LINE",
"498 0 LINE"
);
}
);
width = 567;
}
);
unicode = 0257;
},
{
color = 6;
glyphname = dtail;
layers = (
{
layerId = UUID0;
paths = (
{
closed = 1;
nodes = (
"648 -200 LINE",
"648 -133 LINE",
"577 -133 LINE SMOOTH",
"532 -133 OFFCURVE",
"498 -98 OFFCURVE",
"498 -53 CURVE SMOOTH",
"498 726 LINE",
"430 726 LINE",
"430 406 LINE",
"382 458 OFFCURVE",
"327 484 OFFCURVE",
"266 484 CURVE SMOOTH",
"207 484 OFFCURVE",
"153 459 OFFCURVE",
"105 409 CURVE SMOOTH",
"58 360 OFFCURVE",
"34 301 OFFCURVE",
"34 234 CURVE SMOOTH",
"34 167 OFFCURVE",
"58 109 OFFCURVE",
"106 59 CURVE SMOOTH",
"155 9 OFFCURVE",
"209 -16 OFFCURVE",
"268 -16 CURVE SMOOTH",
"329 -16 OFFCURVE",
"383 10 OFFCURVE",
"430 61 CURVE",
"430 -53 LINE SMOOTH",
"430 -94 OFFCURVE",
"444 -128 OFFCURVE",
"473 -157 CURVE SMOOTH",
"502 -186 OFFCURVE",
"536 -200 OFFCURVE",
"577 -200 CURVE SMOOTH"
);
},
{
closed = 1;
nodes = (
"222 46 OFFCURVE",
"184 64 OFFCURVE",
"151 101 CURVE SMOOTH",
"118 138 OFFCURVE",
"102 183 OFFCURVE",
"102 235 CURVE SMOOTH",
"102 286 OFFCURVE",
"118 330 OFFCURVE",
"151 367 CURVE SMOOTH",
"184 404 OFFCURVE",
"222 422 OFFCURVE",
"265 422 CURVE SMOOTH",
"309 422 OFFCURVE",
"347 404 OFFCURVE",
"380 367 CURVE SMOOTH",
"413 330 OFFCURVE",
"430 286 OFFCURVE",
"430 234 CURVE SMOOTH",
"430 183 OFFCURVE",
"413 138 OFFCURVE",
"380 101 CURVE SMOOTH",
"347 64 OFFCURVE",
"309 46 OFFCURVE",
"265 46 CURVE SMOOTH"
);
}
);
width = 561;
},
{
background = {
components = (
{
name = _part.roundLC;
}
);
paths = (
{
closed = 1;
nodes = (
"430 726 LINE",
"430 -48 LINE SMOOTH",
"430 -140 OFFCURVE",
"485 -195 OFFCURVE",
"577 -195 CURVE SMOOTH",
"607 -195 LINE",
"607 -133 LINE",
"577 -133 LINE SMOOTH",
"527 -133 OFFCURVE",
"498 -103 OFFCURVE",
"498 -53 CURVE",
"498 726 LINE"
);
}
);
};
components = (
{
name = _part.roundLC;
}
);
layerId = "63224BA1-30A4-42F4-A6D1-9160F56B91B0";
paths = (
{
closed = 1;
nodes = (
"430 726 LINE",
"430 -48 LINE SMOOTH",
"430 -140 OFFCURVE",
"485 -195 OFFCURVE",
"577 -195 CURVE SMOOTH",
"607 -195 LINE",
"607 -133 LINE",
"577 -133 LINE SMOOTH",
"527 -133 OFFCURVE",
"498 -103 OFFCURVE",
"498 -53 CURVE",
"498 726 LINE"
);
}
);
width = 561;
}
);
unicode = 0256;
},
{
color = 5;
glyphname = e;
layers = (
{
anchors = (
{
name = above;
position = "{266, 567}";
},
{
name = below;
position = "{277, 0}";
},
{
name = ogonek;
position = "{271, 0}";
}
);
layerId = UUID0;
paths = (
{
closed = 1;
nodes = (
"380 -16 OFFCURVE",
"435 20 OFFCURVE",
"483 95 CURVE",
"429 131 LINE",
"411 101 OFFCURVE",
"391 79 OFFCURVE",
"369 66 CURVE SMOOTH",
"348 53 OFFCURVE",
"313 46 OFFCURVE",
"266 46 CURVE SMOOTH",
"222 46 OFFCURVE",
"184 64 OFFCURVE",
"151 101 CURVE SMOOTH",
"118 138 OFFCURVE",
"102 183 OFFCURVE",
"102 234 CURVE",
"498 234 LINE",
"498 301 OFFCURVE",
"474 360 OFFCURVE",
"426 409 CURVE SMOOTH",
"378 459 OFFCURVE",
"324 484 OFFCURVE",
"265 484 CURVE SMOOTH",
"206 484 OFFCURVE",
"153 459 OFFCURVE",
"105 409 CURVE SMOOTH",
"58 360 OFFCURVE",
"34 301 OFFCURVE",
"34 234 CURVE SMOOTH",
"34 167 OFFCURVE",
"58 109 OFFCURVE",
"106 59 CURVE SMOOTH",
"155 9 OFFCURVE",
"209 -16 OFFCURVE",
"268 -16 CURVE SMOOTH"
);
},
{
closed = 1;
nodes = (
"136 371 OFFCURVE",
"198 422 OFFCURVE",
"265 422 CURVE SMOOTH",
"333 422 OFFCURVE",
"396 371 OFFCURVE",
"420 296 CURVE",
"112 296 LINE"
);
}
);
width = 525;
},
{
anchors = (
{
name = bottom;
position = "{275, 0}";
},
{
name = ogonek;
position = "{368, 1}";
},
{
name = top;
position = "{263, 468}";
}
);
background = {
paths = (
{
closed = 1;
nodes = (
"102 140 OFFCURVE",
"102 233 CURVE SMOOTH",
"102 328 OFFCURVE",
"157 422 OFFCURVE",
"265 422 CURVE SMOOTH",
"353 422 OFFCURVE",
"397 372 OFFCURVE",
"420 296 CURVE",
"96 296 LINE",
"86 234 LINE",
"498 234 LINE",
"498 380 OFFCURVE",
"401 484 OFFCURVE",
"265 484 CURVE SMOOTH",
"130 484 OFFCURVE",
"34 380 OFFCURVE",
"34 234 CURVE SMOOTH",
"34 88 OFFCURVE",
"131 -16 OFFCURVE",
"268 -16 CURVE SMOOTH",
"352 -16 OFFCURVE",
"441 30 OFFCURVE",
"483 95 CURVE",
"429 131 LINE",
"399 81 OFFCURVE",
"331 46 OFFCURVE",
"266 46 CURVE SMOOTH",
"156 46 OFFCURVE"
);
}
);
};
layerId = "63224BA1-30A4-42F4-A6D1-9160F56B91B0";
paths = (
{
closed = 1;
nodes = (
"372 -16 OFFCURVE",
"441 30 OFFCURVE",
"483 95 CURVE",
"429 131 LINE",
"399 81 OFFCURVE",
"351 46 OFFCURVE",
"266 46 CURVE SMOOTH",
"156 46 OFFCURVE",
"102 140 OFFCURVE",
"102 233 CURVE SMOOTH",
"102 328 OFFCURVE",
"157 422 OFFCURVE",
"265 422 CURVE SMOOTH",
"353 422 OFFCURVE",
"407 374 OFFCURVE",
"420 276 CURVE",
"96 276 LINE",
"85 220 LINE",
"487 220 LINE",
"502 368 OFFCURVE",
"401 484 OFFCURVE",
"265 484 CURVE SMOOTH",
"130 484 OFFCURVE",
"34 380 OFFCURVE",
"34 234 CURVE SMOOTH",
"34 88 OFFCURVE",
"131 -16 OFFCURVE",
"268 -16 CURVE SMOOTH"
);
}
);
width = 525;
}
);
unicode = 0065;
},
{
color = 6;
glyphname = ecedilla;
layers = (
{
layerId = UUID0;
paths = (
{
closed = 1;
nodes = (
"300 -200 OFFCURVE",
"369 -175 OFFCURVE",
"369 -125 CURVE SMOOTH",
"369 -97 OFFCURVE",
"332 -68 OFFCURVE",
"261 -68 CURVE",
"287 -16 LINE",
"387 -12 OFFCURVE",
"437 23 OFFCURVE",
"484 95 CURVE",
"430 131 LINE",
"412 101 OFFCURVE",
"392 79 OFFCURVE",
"370 66 CURVE SMOOTH",
"349 53 OFFCURVE",
"314 46 OFFCURVE",
"267 46 CURVE SMOOTH",
"223 46 OFFCURVE",
"185 64 OFFCURVE",
"152 101 CURVE SMOOTH",
"119 138 OFFCURVE",
"103 183 OFFCURVE",
"103 234 CURVE",
"499 234 LINE",
"499 301 OFFCURVE",
"475 360 OFFCURVE",
"427 409 CURVE SMOOTH",
"379 459 OFFCURVE",
"325 484 OFFCURVE",
"266 484 CURVE SMOOTH",
"207 484 OFFCURVE",
"154 459 OFFCURVE",
"106 409 CURVE SMOOTH",
"59 360 OFFCURVE",
"35 301 OFFCURVE",
"35 234 CURVE SMOOTH",
"35 174 OFFCURVE",
"55 120 OFFCURVE",
"96 72 CURVE SMOOTH",
"137 25 OFFCURVE",
"184 -4 OFFCURVE",
"237 -13 CURVE",
"195 -103 LINE",
"289 -103 OFFCURVE",
"303 -111 OFFCURVE",
"303 -131 CURVE SMOOTH",
"303 -144 OFFCURVE",
"288 -154 OFFCURVE",
"258 -161 CURVE SMOOTH",
"228 -169 OFFCURVE",
"196 -173 OFFCURVE",
"163 -173 CURVE",
"163 -200 LINE"
);
},
{
closed = 1;
nodes = (
"137 371 OFFCURVE",
"199 422 OFFCURVE",
"266 422 CURVE SMOOTH",
"334 422 OFFCURVE",
"397 371 OFFCURVE",
"421 296 CURVE",
"113 296 LINE"
);
}
);
width = 527;
},
{
components = (
{
name = e;
},
{
name = cedillacomb;
transform = "{1, 0, 0, 1, 122, 0}";
}
);
layerId = "63224BA1-30A4-42F4-A6D1-9160F56B91B0";
width = 525;
}
);
unicode = 0229;
},
{
color = 5;
glyphname = eogonek;
layers = (
{
anchors = (
{
name = above;
position = "{266, 567}";
}
);
layerId = UUID0;
paths = (
{
closed = 1;
nodes = (
"375 -186 OFFCURVE",
"409 -181 OFFCURVE",
"448 -170 CURVE",
"441 -144 LINE",
"423 -148 OFFCURVE",
"405 -150 OFFCURVE",
"388 -150 CURVE SMOOTH",
"319 -150 OFFCURVE",
"284 -127 OFFCURVE",
"284 -82 CURVE SMOOTH",
"284 -58 OFFCURVE",
"288 -40 OFFCURVE",
"297 -29 CURVE SMOOTH",
"302 -23 OFFCURVE",
"309 -18 OFFCURVE",
"318 -13 CURVE",
"351 -9 OFFCURVE",
"378 -1 OFFCURVE",
"399 12 CURVE SMOOTH",
"431 30 OFFCURVE",
"459 58 OFFCURVE",
"483 95 CURVE",
"429 131 LINE",
"411 101 OFFCURVE",
"391 79 OFFCURVE",
"370 66 CURVE SMOOTH",
"348 53 OFFCURVE",
"313 46 OFFCURVE",
"266 46 CURVE SMOOTH",
"222 46 OFFCURVE",
"184 65 OFFCURVE",
"151 102 CURVE SMOOTH",
"118 139 OFFCURVE",
"102 183 OFFCURVE",
"102 234 CURVE",
"498 234 LINE",
"498 301 OFFCURVE",
"474 360 OFFCURVE",
"426 410 CURVE SMOOTH",
"378 459 OFFCURVE",
"325 484 OFFCURVE",
"266 484 CURVE SMOOTH",
"207 484 OFFCURVE",
"153 459 OFFCURVE",
"105 410 CURVE",
"58 360 OFFCURVE",
"34 301 OFFCURVE",
"34 234 CURVE SMOOTH",
"34 167 OFFCURVE",
"58 109 OFFCURVE",
"106 59 CURVE SMOOTH",
"150 14 OFFCURVE",
"198 -10 OFFCURVE",
"250 -15 CURVE",
"229 -34 OFFCURVE",
"219 -60 OFFCURVE",
"219 -91 CURVE SMOOTH",
"219 -154 OFFCURVE",
"261 -186 OFFCURVE",
"345 -186 CURVE SMOOTH"
);
},
{
closed = 1;
nodes = (
"124 333 OFFCURVE",
"144 364 OFFCURVE",
"172 387 CURVE SMOOTH",
"201 410 OFFCURVE",
"232 422 OFFCURVE",
"266 422 CURVE SMOOTH",
"299 422 OFFCURVE",
"330 410 OFFCURVE",
"359 387 CURVE SMOOTH",
"388 364 OFFCURVE",
"408 333 OFFCURVE",
"420 296 CURVE",
"112 296 LINE"
);
}
);
width = 525;
},
{
components = (
{
name = e;
},
{
name = ogonekcomb;
transform = "{1, 0, 0, 1, 186, 1}";
}
);
layerId = "63224BA1-30A4-42F4-A6D1-9160F56B91B0";
width = 525;
}
);
unicode = 0119;
},
{
color = 6;
glyphname = esh;
layers = (
{
layerId = UUID0;
paths = (
{
closed = 1;
nodes = (
"-23 -200 LINE SMOOTH",
"18 -200 OFFCURVE",
"54 -185 OFFCURVE",
"85 -156 CURVE SMOOTH",
"116 -127 OFFCURVE",
"131 -92 OFFCURVE",
"131 -52 CURVE SMOOTH",
"131 594 LINE SMOOTH",
"131 641 OFFCURVE",
"166 680 OFFCURVE",
"211 680 CURVE SMOOTH",
"239 680 LINE",
"239 742 LINE",
"211 742 LINE SMOOTH",
"170 742 OFFCURVE",
"135 727 OFFCURVE",
"106 698 CURVE SMOOTH",
"77 669 OFFCURVE",
"63 635 OFFCURVE",
"63 594 CURVE SMOOTH",
"63 -52 LINE SMOOTH",
"63 -97 OFFCURVE",
"24 -132 OFFCURVE",
"-23 -132 CURVE SMOOTH",
"-50 -132 LINE",
"-50 -200 LINE"
);
}
);
width = 193;
},
{
layerId = "63224BA1-30A4-42F4-A6D1-9160F56B91B0";
paths = (
{
closed = 1;
nodes = (
"-23 -200 LINE SMOOTH",
"74 -200 OFFCURVE",
"131 -145 OFFCURVE",
"131 -52 CURVE SMOOTH",
"131 594 LINE SMOOTH",
"131 648 OFFCURVE",
"161 680 OFFCURVE",
"211 680 CURVE SMOOTH",
"239 680 LINE",
"239 742 LINE",
"211 742 LINE SMOOTH",
"118 742 OFFCURVE",
"63 687 OFFCURVE",
"63 594 CURVE SMOOTH",
"63 -52 LINE SMOOTH",
"63 -102 OFFCURVE",
"31 -132 OFFCURVE",
"-23 -132 CURVE SMOOTH",
"-50 -132 LINE",
"-50 -200 LINE"
);
}
);
width = 193;
}
);
unicode = 0283;
},
{
color = 6;
glyphname = eturned;
layers = (
{
anchors = (
{
name = above;
position = "{261, 567}";
}
);
layerId = UUID0;
paths = (
{
closed = 1;
nodes = (
"321 -16 OFFCURVE",
"375 9 OFFCURVE",
"422 59 CURVE SMOOTH",
"469 109 OFFCURVE",
"493 167 OFFCURVE",
"493 234 CURVE SMOOTH",
"493 301 OFFCURVE",
"469 360 OFFCURVE",
"421 409 CURVE SMOOTH",
"373 459 OFFCURVE",
"319 484 OFFCURVE",
"260 484 CURVE SMOOTH",
"148 484 OFFCURVE",
"92 449 OFFCURVE",
"44 374 CURVE",
"99 338 LINE",
"116 368 OFFCURVE",
"136 390 OFFCURVE",
"157 403 CURVE SMOOTH",
"179 416 OFFCURVE",
"214 423 OFFCURVE",
"262 423 CURVE SMOOTH",
"305 423 OFFCURVE",
"343 404 OFFCURVE",
"376 367 CURVE SMOOTH",
"409 330 OFFCURVE",
"426 286 OFFCURVE",
"426 234 CURVE",
"29 234 LINE",
"29 167 OFFCURVE",
"53 109 OFFCURVE",
"101 59 CURVE SMOOTH",
"149 9 OFFCURVE",
"203 -16 OFFCURVE",
"262 -16 CURVE SMOOTH"
);
},
{
closed = 1;
nodes = (
"194 47 OFFCURVE",
"131 98 OFFCURVE",
"107 173 CURVE",
"417 173 LINE",
"393 98 OFFCURVE",
"330 47 OFFCURVE",
"262 47 CURVE SMOOTH"
);
}
);
width = 526;
},
{
components = (
{
name = e;
transform = "{-1, 0, 0, -1, 525, 468}";
}
);
layerId = "63224BA1-30A4-42F4-A6D1-9160F56B91B0";
width = 525;
}
);
unicode = 01DD;
},
{
color = 6;
glyphname = ezh;
layers = (
{
components = (
{
name = "dzeabkhasian-cy";
}
);
layerId = UUID0;
width = 398;
},
{
background = {
paths = (
{
closed = 1;
nodes = (
"306 -215 OFFCURVE",
"394 -121 OFFCURVE",
"394 11 CURVE SMOOTH",
"394 144 OFFCURVE",
"307 239 OFFCURVE",
"184 237 CURVE",
"184 181 LINE",
"271 179 OFFCURVE",
"333 111 OFFCURVE",
"333 11 CURVE SMOOTH",
"333 -88 OFFCURVE",
"271 -159 OFFCURVE",
"184 -159 CURVE SMOOTH",
"122 -159 OFFCURVE",
"89 -135 OFFCURVE",
"62 -100 CURVE",
"14 -134 LINE",
"52 -182 OFFCURVE",
"113 -215 OFFCURVE",
"182 -215 CURVE SMOOTH"
);
}
);
};
layerId = "63224BA1-30A4-42F4-A6D1-9160F56B91B0";
paths = (
{
closed = 1;
nodes = (
"373 406 LINE",
"373 468 LINE",
"37 468 LINE",
"37 406 LINE",
"301 406 LINE",
"122 186 LINE",
"152 146 LINE",
"288 159 OFFCURVE",
"333 98 OFFCURVE",
"333 4 CURVE SMOOTH",
"333 -94 OFFCURVE",
"274 -153 OFFCURVE",
"191 -153 CURVE SMOOTH",
"148 -153 OFFCURVE",
"101 -129 OFFCURVE",
"74 -94 CURVE",
"24 -134 LINE",
"62 -181 OFFCURVE",
"132 -215 OFFCURVE",
"192 -215 CURVE SMOOTH",
"310 -215 OFFCURVE",
"401 -127 OFFCURVE",
"401 4 CURVE SMOOTH",
"401 124 OFFCURVE",
"331 198 OFFCURVE",
"201 203 CURVE"
);
}
);
width = 420;
}
);
unicode = 0292;
},
{
color = 5;
glyphname = f;
layers = (
{
anchors = (
{
name = above;
position = "{162, 769}";
},
{
name = below;
position = "{124, 0}";
}
);
layerId = UUID0;
paths = (
{
closed = 1;
nodes = (
"156 0 LINE",
"156 406 LINE",
"264 406 LINE",
"264 468 LINE",
"156 468 LINE",
"156 594 LINE SMOOTH",
"156 641 OFFCURVE",
"191 680 OFFCURVE",
"236 680 CURVE SMOOTH",
"264 680 LINE",
"264 742 LINE",
"236 742 LINE SMOOTH",
"195 742 OFFCURVE",
"160 727 OFFCURVE",
"131 698 CURVE SMOOTH",
"102 669 OFFCURVE",
"88 635 OFFCURVE",
"88 594 CURVE SMOOTH",
"88 468 LINE",
"28 468 LINE",
"28 406 LINE",
"88 406 LINE",
"88 0 LINE"
);
}
);
width = 275;
},
{
anchors = (
{
name = bottom;
position = "{124, 0}";
},
{
name = top;
position = "{138, 682}";
}
);
background = {
components = (
{
name = jdotless;
transform = "{-1, 0, 0, -1, 219, 543}";
}
);
};
components = (
{
name = jdotless;
transform = "{-1, 0, 0, -1, 219, 543}";
}
);
layerId = "63224BA1-30A4-42F4-A6D1-9160F56B91B0";
paths = (
{
closed = 1;
nodes = (
"156 0 LINE",
"156 406 LINE",
"264 406 LINE",
"264 468 LINE",
"28 468 LINE",
"28 406 LINE",
"88 406 LINE",
"88 0 LINE"
);
}
);
width = 275;
}
);
unicode = 0066;
},
{
color = 5;
glyphname = g;
layers = (
{
anchors = (
{
name = above;
position = "{266, 567}";
},
{
name = below;
position = "{268, 0}";
}
);
layerId = UUID0;
paths = (
{
closed = 1;
nodes = (
"292 -200 LINE SMOOTH",
"425 -200 OFFCURVE",
"498 -121 OFFCURVE",
"498 18 CURVE SMOOTH",
"498 468 LINE",
"430 468 LINE",
"430 395 LINE",
"388 454 OFFCURVE",
"335 484 OFFCURVE",
"270 484 CURVE SMOOTH",
"205 484 OFFCURVE",
"150 459 OFFCURVE",
"104 410 CURVE SMOOTH",
"57 360 OFFCURVE",
"34 301 OFFCURVE",
"34 234 CURVE SMOOTH",
"34 167 OFFCURVE",
"57 108 OFFCURVE",
"104 58 CURVE SMOOTH",
"151 9 OFFCURVE",
"207 -16 OFFCURVE",
"272 -16 CURVE SMOOTH",
"337 -16 OFFCURVE",
"390 13 OFFCURVE",
"430 71 CURVE",
"430 18 LINE SMOOTH",
"430 -81 OFFCURVE",
"383 -138 OFFCURVE",
"292 -138 CURVE SMOOTH",
"138 -138 LINE",
"138 -200 LINE"
);
},
{
closed = 1;
nodes = (
"220 46 OFFCURVE",
"182 65 OFFCURVE",
"150 103 CURVE SMOOTH",
"118 142 OFFCURVE",
"102 186 OFFCURVE",
"102 235 CURVE SMOOTH",
"102 284 OFFCURVE",
"118 327 OFFCURVE",
"150 365 CURVE SMOOTH",
"182 403 OFFCURVE",
"220 422 OFFCURVE",
"265 422 CURVE SMOOTH",
"310 422 OFFCURVE",
"349 403 OFFCURVE",
"381 365 CURVE SMOOTH",
"414 327 OFFCURVE",
"430 283 OFFCURVE",
"430 234 CURVE SMOOTH",
"430 185 OFFCURVE",
"414 142 OFFCURVE",
"381 103 CURVE SMOOTH",
"349 65 OFFCURVE",
"310 46 OFFCURVE",
"265 46 CURVE SMOOTH"
);
}
);
width = 561;
},
{
anchors = (
{
name = bottom;
position = "{281, -200}";
},
{
name = top;
position = "{251, 468}";
}
);
background = {
components = (
{
name = _part.roundLC;
}
);
paths = (
{
closed = 1;
nodes = (
"430 0 LINE",
"498 0 LINE",
"498 468 LINE",
"430 468 LINE"
);
}
);
};
components = (
{
name = _part.roundLC;
}
);
layerId = "63224BA1-30A4-42F4-A6D1-9160F56B91B0";
paths = (
{
closed = 1;
nodes = (
"292 -200 LINE SMOOTH",
"413 -200 OFFCURVE",
"498 -110 OFFCURVE",
"498 18 CURVE SMOOTH",
"498 468 LINE",
"430 468 LINE",
"430 18 LINE SMOOTH",
"430 -73 OFFCURVE",
"373 -138 OFFCURVE",
"292 -138 CURVE SMOOTH",
"98 -138 LINE",
"98 -200 LINE"
);
}
);
width = 561;
}
);
unicode = 0067;
},
{
color = 6;
glyphname = "gamma-latin";
layers = (
{
layerId = UUID0;
paths = (
{
closed = 1;
nodes = (
"256 -200 OFFCURVE",
"285 -160 OFFCURVE",
"285 -96 CURVE SMOOTH",
"285 -79 OFFCURVE",
"281 -55 OFFCURVE",
"272 -23 CURVE SMOOTH",
"264 9 OFFCURVE",
"254 39 OFFCURVE",
"242 67 CURVE SMOOTH",
"237 78 LINE",
"397 468 LINE",
"322 468 LINE",
"199 171 LINE",
"76 468 LINE",
"1 468 LINE",
"161 78 LINE",
"156 67 LINE SMOOTH",
"145 40 OFFCURVE",
"135 10 OFFCURVE",
"126 -22 CURVE SMOOTH",
"117 -55 OFFCURVE",
"113 -79 OFFCURVE",
"113 -96 CURVE SMOOTH",
"113 -160 OFFCURVE",
"142 -200 OFFCURVE",
"199 -200 CURVE SMOOTH"
);
},
{
closed = 1;
nodes = (
"186 -138 OFFCURVE",
"179 -127 OFFCURVE",
"179 -106 CURVE SMOOTH",
"179 -92 OFFCURVE",
"186 -64 OFFCURVE",
"199 -21 CURVE",
"212 -62 OFFCURVE",
"219 -90 OFFCURVE",
"219 -106 CURVE SMOOTH",
"219 -127 OFFCURVE",
"212 -138 OFFCURVE",
"199 -138 CURVE SMOOTH"
);
}
);
width = 397;
},
{
layerId = "63224BA1-30A4-42F4-A6D1-9160F56B91B0";
paths = (
{
closed = 1;
nodes = (
"259 -200 OFFCURVE",
"295 -163 OFFCURVE",
"295 -100 CURVE SMOOTH",
"295 -53 OFFCURVE",
"273 3 OFFCURVE",
"237 78 CURVE",
"397 468 LINE",
"325 468 LINE",
"202 132 LINE",
"73 468 LINE",
"1 468 LINE",
"161 78 LINE",
"125 1 OFFCURVE",
"103 -56 OFFCURVE",
"103 -101 CURVE SMOOTH",
"103 -163 OFFCURVE",
"139 -200 OFFCURVE",
"199 -200 CURVE SMOOTH"
);
},
{
closed = 1;
nodes = (
"174 -146 OFFCURVE",
"159 -129 OFFCURVE",
"159 -101 CURVE SMOOTH",
"159 -72 OFFCURVE",
"174 -38 OFFCURVE",
"199 19 CURVE",
"224 -42 OFFCURVE",
"239 -76 OFFCURVE",
"239 -100 CURVE SMOOTH",
"239 -129 OFFCURVE",
"224 -146 OFFCURVE",
"199 -146 CURVE SMOOTH"
);
}
);
width = 397;
}
);
unicode = 0263;
},
{
color = 6;
glyphname = ghook;
layers = (
{
layerId = UUID0;
paths = (
{
closed = 1;
nodes = (
"292 -200 LINE SMOOTH",
"417 -200 OFFCURVE",
"498 -129 OFFCURVE",
"498 18 CURVE SMOOTH",
"498 420 LINE",
"498 465 OFFCURVE",
"532 500 OFFCURVE",
"577 500 CURVE SMOOTH",
"647 500 LINE",
"647 567 LINE",
"577 567 LINE SMOOTH",
"536 567 OFFCURVE",
"502 553 OFFCURVE",
"473 524 CURVE SMOOTH",
"444 495 OFFCURVE",
"430 461 OFFCURVE",
"430 420 CURVE SMOOTH",
"430 406 LINE",
"382 458 OFFCURVE",
"327 484 OFFCURVE",
"266 484 CURVE SMOOTH",
"207 484 OFFCURVE",
"153 459 OFFCURVE",
"105 409 CURVE SMOOTH",
"58 360 OFFCURVE",
"34 301 OFFCURVE",
"34 234 CURVE SMOOTH",
"34 167 OFFCURVE",
"58 109 OFFCURVE",
"106 59 CURVE SMOOTH",
"155 9 OFFCURVE",
"209 -16 OFFCURVE",
"268 -16 CURVE SMOOTH",
"329 -16 OFFCURVE",
"383 10 OFFCURVE",
"430 61 CURVE",
"430 18 LINE SMOOTH",
"430 -85 OFFCURVE",
"379 -138 OFFCURVE",
"292 -138 CURVE SMOOTH",
"138 -138 LINE",
"138 -200 LINE"
);
},
{
closed = 1;
nodes = (
"222 46 OFFCURVE",
"184 64 OFFCURVE",
"151 101 CURVE SMOOTH",
"118 138 OFFCURVE",
"102 183 OFFCURVE",
"102 235 CURVE SMOOTH",
"102 286 OFFCURVE",
"118 330 OFFCURVE",
"151 367 CURVE SMOOTH",
"184 404 OFFCURVE",
"222 422 OFFCURVE",
"265 422 CURVE SMOOTH",
"309 422 OFFCURVE",
"347 404 OFFCURVE",
"380 367 CURVE SMOOTH",
"413 330 OFFCURVE",
"430 286 OFFCURVE",
"430 234 CURVE SMOOTH",
"430 183 OFFCURVE",
"413 138 OFFCURVE",
"380 101 CURVE SMOOTH",
"347 64 OFFCURVE",
"309 46 OFFCURVE",
"265 46 CURVE SMOOTH"
);
}
);
width = 562;
},
{
background = {
paths = (
{
closed = 1;
nodes = (
"499 326 LINE",
"499 376 OFFCURVE",
"528 406 OFFCURVE",
"578 406 CURVE SMOOTH",
"608 406 LINE",
"608 468 LINE",
"578 468 LINE SMOOTH",
"486 468 OFFCURVE",
"431 413 OFFCURVE",
"431 321 CURVE SMOOTH",
"431 127 LINE",
"499 127 LINE"
);
}
);
};
layerId = "63224BA1-30A4-42F4-A6D1-9160F56B91B0";
paths = (
{
closed = 1;
nodes = (
"390 -16 OFFCURVE",
"478 88 OFFCURVE",
"478 234 CURVE SMOOTH",
"478 380 OFFCURVE",
"389 484 OFFCURVE",
"265 484 CURVE SMOOTH",
"130 484 OFFCURVE",
"34 381 OFFCURVE",
"34 235 CURVE SMOOTH",
"34 88 OFFCURVE",
"131 -16 OFFCURVE",
"267 -16 CURVE SMOOTH"
);
},
{
closed = 1;
nodes = (
"170 46 OFFCURVE",
"102 124 OFFCURVE",
"102 235 CURVE SMOOTH",
"102 345 OFFCURVE",
"170 422 OFFCURVE",
"265 422 CURVE SMOOTH",
"362 422 OFFCURVE",
"430 344 OFFCURVE",
"430 234 CURVE SMOOTH",
"430 124 OFFCURVE",
"362 46 OFFCURVE",
"265 46 CURVE SMOOTH"
);
},
{
closed = 1;
nodes = (
"485 468 OFFCURVE",
"430 413 OFFCURVE",
"430 321 CURVE SMOOTH",
"430 18 LINE SMOOTH",
"430 -73 OFFCURVE",
"373 -138 OFFCURVE",
"292 -138 CURVE SMOOTH",
"98 -138 LINE",
"98 -200 LINE",
"292 -200 LINE SMOOTH",
"413 -200 OFFCURVE",
"498 -110 OFFCURVE",
"498 18 CURVE SMOOTH",
"498 326 LINE SMOOTH",
"498 376 OFFCURVE",
"527 406 OFFCURVE",
"577 406 CURVE SMOOTH",
"607 406 LINE",
"607 468 LINE",
"577 468 LINE SMOOTH"
);
}
);
width = 587;
}
);
leftMetricsKey = o;
unicode = 0260;
},
{
color = 6;
glyphname = glottalstop;
layers = (
{
layerId = UUID0;
paths = (
{
closed = 1;
nodes = (
"235 0 LINE",
"235 166 LINE SMOOTH",
"235 219 OFFCURVE",
"256 263 OFFCURVE",
"281 287 CURVE SMOOTH",
"324 326 LINE SMOOTH",
"356 355 OFFCURVE",
"383 376 OFFCURVE",
"400 423 CURVE SMOOTH",
"409 446 OFFCURVE",
"413 473 OFFCURVE",
"413 504 CURVE SMOOTH",
"413 559 OFFCURVE",
"393 604 OFFCURVE",
"354 641 CURVE SMOOTH",
"315 678 OFFCURVE",
"267 697 OFFCURVE",
"210 697 CURVE SMOOTH",
"169 697 OFFCURVE",
"130 684 OFFCURVE",
"95 659 CURVE SMOOTH",
"60 634 OFFCURVE",
"35 600 OFFCURVE",
"20 559 CURVE",
"83 539 LINE",
"103 600 OFFCURVE",
"150 635 OFFCURVE",
"210 635 CURVE SMOOTH",
"293 635 OFFCURVE",
"345 580 OFFCURVE",
"345 504 CURVE SMOOTH",
"345 451 OFFCURVE",
"325 407 OFFCURVE",
"298 383 CURVE SMOOTH",
"255 343 LINE",
"211 305 OFFCURVE",
"167 264 OFFCURVE",
"167 166 CURVE SMOOTH",
"167 0 LINE"
);
}
);
width = 486;
},
{
layerId = "63224BA1-30A4-42F4-A6D1-9160F56B91B0";
paths = (
{
closed = 1;
nodes = (
"127 697 OFFCURVE",
"58 635 OFFCURVE",
"29 559 CURVE",
"92 539 LINE",
"109 596 OFFCURVE",
"153 635 OFFCURVE",
"225 635 CURVE SMOOTH",
"301 635 OFFCURVE",
"354 583 OFFCURVE",
"354 497 CURVE SMOOTH",
"354 453 OFFCURVE",
"341 414 OFFCURVE",
"296 382 CURVE SMOOTH",
"225 331 OFFCURVE",
"185 299 OFFCURVE",
"185 186 CURVE SMOOTH",
"185 0 LINE",
"244 0 LINE",
"244 186 LINE SMOOTH",
"244 272 OFFCURVE",
"289 302 OFFCURVE",
"333 336 CURVE SMOOTH",
"378 370 OFFCURVE",
"422 408 OFFCURVE",
"422 504 CURVE SMOOTH",
"422 611 OFFCURVE",
"330 697 OFFCURVE",
"227 697 CURVE SMOOTH"
);
}
);
width = 461;
}
);
leftMetricsKey = question;
rightMetricsKey = question;
unicode = 0294;
},
{
color = 6;
glyphname = glottalstopreversed;
layers = (
{
layerId = UUID0;
paths = (
{
closed = 1;
nodes = (
"320 0 LINE",
"320 166 LINE",
"320 166 LINE",
"320 280 OFFCURVE",
"255 324 OFFCURVE",
"205 366 CURVE SMOOTH",
"170 395 OFFCURVE",
"142 441 OFFCURVE",
"142 504 CURVE SMOOTH",
"142 579 OFFCURVE",
"194 635 OFFCURVE",
"277 635 CURVE SMOOTH",
"337 635 OFFCURVE",
"385 600 OFFCURVE",
"404 539 CURVE",
"467 559 LINE",
"436 642 OFFCURVE",
"360 697 OFFCURVE",
"277 697 CURVE SMOOTH",
"220 697 OFFCURVE",
"171 678 OFFCURVE",
"132 641 CURVE SMOOTH",
"93 604 OFFCURVE",
"74 559 OFFCURVE",
"74 504 CURVE SMOOTH",
"74 443 OFFCURVE",
"95 395 OFFCURVE",
"120 368 CURVE",
"163 326 LINE",
"195 298 OFFCURVE",
"222 280 OFFCURVE",
"239 237 CURVE SMOOTH",
"248 216 OFFCURVE",
"252 193 OFFCURVE",
"252 166 CURVE SMOOTH",
"252 0 LINE"
);
}
);
width = 486;
},
{
background = {
components = (
{
name = glottalstop;
transform = "{-1, 0, 0, 1, 499, 0}";
}
);
};
components = (
{
name = glottalstop;
transform = "{-1, 0, 0, 1, 461, 0}";
}
);
layerId = "63224BA1-30A4-42F4-A6D1-9160F56B91B0";
width = 461;
}
);
unicode = 0295;
},
{
color = 6;
glyphname = glottalstopsmall;
layers = (
{
layerId = UUID0;
paths = (
{
closed = 1;
nodes = (
"236 0 LINE",
"236 64 LINE SMOOTH",
"236 156 OFFCURVE",
"281 178 OFFCURVE",
"325 197 CURVE",
"357 213 OFFCURVE",
"384 222 OFFCURVE",
"401 259 CURVE SMOOTH",
"410 278 OFFCURVE",
"414 303 OFFCURVE",
"414 332 CURVE SMOOTH",
"414 435 OFFCURVE",
"334 484 OFFCURVE",
"211 484 CURVE SMOOTH",
"128 484 OFFCURVE",
"52 429 OFFCURVE",
"21 346 CURVE",
"84 326 LINE",
"104 387 OFFCURVE",
"151 422 OFFCURVE",
"211 422 CURVE SMOOTH",
"296 422 OFFCURVE",
"346 388 OFFCURVE",
"346 332 CURVE SMOOTH",
"346 270 OFFCURVE",
"301 258 OFFCURVE",
"256 232 CURVE SMOOTH",
"225 213 OFFCURVE",
"198 197 OFFCURVE",
"181 149 CURVE SMOOTH",
"172 126 OFFCURVE",
"168 97 OFFCURVE",
"168 64 CURVE SMOOTH",
"168 0 LINE"
);
}
);
width = 447;
},
{
background = {
paths = (
{
closed = 1;
nodes = (
"137 487 OFFCURVE",
"63 436 OFFCURVE",
"30 349 CURVE",
"93 329 LINE",
"111 389 OFFCURVE",
"161 425 OFFCURVE",
"226 425 CURVE SMOOTH",
"295 425 OFFCURVE",
"335 389 OFFCURVE",
"335 327 CURVE SMOOTH",
"335 280 OFFCURVE",
"317 252 OFFCURVE",
"257 212 CURVE SMOOTH",
"175 159 OFFCURVE",
"149 102 OFFCURVE",
"149 36 CURVE SMOOTH",
"149 0 LINE",
"217 0 LINE",
"217 36 LINE SMOOTH",
"217 91 OFFCURVE",
"231 132 OFFCURVE",
"294 170 CURVE SMOOTH",
"370 215 OFFCURVE",
"403 272 OFFCURVE",
"403 334 CURVE SMOOTH",
"403 430 OFFCURVE",
"338 487 OFFCURVE",
"228 487 CURVE SMOOTH"
);
}
);
};
layerId = "63224BA1-30A4-42F4-A6D1-9160F56B91B0";
paths = (
{
closed = 1;
nodes = (
"137 487 OFFCURVE",
"63 436 OFFCURVE",
"30 349 CURVE",
"93 329 LINE",
"111 389 OFFCURVE",
"161 425 OFFCURVE",
"226 425 CURVE SMOOTH",
"295 425 OFFCURVE",
"335 389 OFFCURVE",
"335 327 CURVE SMOOTH",
"335 280 OFFCURVE",
"317 252 OFFCURVE",
"272 219 CURVE SMOOTH",
"190 159 OFFCURVE",
"169 102 OFFCURVE",
"169 36 CURVE SMOOTH",
"169 0 LINE",
"237 0 LINE",
"237 36 LINE SMOOTH",
"237 91 OFFCURVE",
"247 132 OFFCURVE",
"311 175 CURVE SMOOTH",
"370 215 OFFCURVE",
"403 272 OFFCURVE",
"403 334 CURVE SMOOTH",
"403 430 OFFCURVE",
"338 487 OFFCURVE",
"228 487 CURVE SMOOTH"
);
}
);
width = 443;
}
);
unicode = 0242;
},
{
color = 6;
glyphname = yogh;
layers = (
{
layerId = UUID0;
paths = (
{
closed = 1;
nodes = (
"43 -203 LINE SMOOTH",
"69 -198 OFFCURVE",
"100 -188 OFFCURVE",
"137 -174 CURVE",
"173 -159 OFFCURVE",
"209 -140 OFFCURVE",
"246 -119 CURVE SMOOTH",
"283 -98 OFFCURVE",
"314 -70 OFFCURVE",
"339 -33 CURVE",
"365 3 OFFCURVE",
"378 43 OFFCURVE",
"378 87 CURVE SMOOTH",
"378 142 OFFCURVE",
"349 187 OFFCURVE",
"298 210 CURVE",
"331 246 OFFCURVE",
"347 284 OFFCURVE",
"347 324 CURVE SMOOTH",
"347 368 OFFCURVE",
"335 406 OFFCURVE",
"310 437 CURVE SMOOTH",
"286 468 OFFCURVE",
"252 484 OFFCURVE",
"209 484 CURVE SMOOTH",
"149 484 OFFCURVE",
"95 466 OFFCURVE",
"68 447 CURVE SMOOTH",
"55 438 OFFCURVE",
"43 428 OFFCURVE",
"32 415 CURVE SMOOTH",
"12 390 OFFCURVE",
"11 383 OFFCURVE",
"8 378 CURVE",
"62 333 LINE",
"64 342 LINE",
"74 366 OFFCURVE",
"108 419 OFFCURVE",
"209 421 CURVE SMOOTH",
"222 421 OFFCURVE",
"236 411 OFFCURVE",
"251 391 CURVE SMOOTH",
"266 371 OFFCURVE",
"273 350 OFFCURVE",
"273 327 CURVE SMOOTH",
"273 288 OFFCURVE",
"242 248 OFFCURVE",
"211 227 CURVE SMOOTH",
"196 216 OFFCURVE",
"178 206 OFFCURVE",
"157 197 CURVE SMOOTH",
"116 178 OFFCURVE",
"104 176 OFFCURVE",
"95 173 CURVE",
"95 90 LINE",
"115 98 LINE SMOOTH",
"130 103 OFFCURVE",
"149 111 OFFCURVE",
"173 122 CURVE SMOOTH",
"197 134 OFFCURVE",
"219 147 OFFCURVE",
"239 160 CURVE",
"272 152 OFFCURVE",
"304 127 OFFCURVE",
"304 90 CURVE SMOOTH",
"304 41 OFFCURVE",
"278 -3 OFFCURVE",
"245 -31 CURVE SMOOTH",
"212 -59 OFFCURVE",
"159 -83 OFFCURVE",
"122 -95 CURVE SMOOTH",
"85 -107 OFFCURVE",
"36 -118 OFFCURVE",
"21 -119 CURVE",
"4 -122 LINE",
"4 -211 LINE"
);
}
);
width = 412;
},
{
background = {
paths = (
{
closed = 1;
nodes = (
"230 183 LINE",
"290 167 OFFCURVE",
"319 129 OFFCURVE",
"319 71 CURVE SMOOTH",
"319 -52 OFFCURVE",
"150 -123 OFFCURVE",
"31 -123 CURVE",
"31 -198 LINE",
"190 -198 OFFCURVE",
"393 -78 OFFCURVE",
"393 68 CURVE SMOOTH",
"393 147 OFFCURVE",
"349 197 OFFCURVE",
"269 221 CURVE"
);
},
{
closed = 1;
nodes = (
"366 228 OFFCURVE",
"366 345 CURVE SMOOTH",
"366 425 OFFCURVE",
"316 486 OFFCURVE",
"221 486 CURVE SMOOTH",
"139 486 OFFCURVE",
"75 445 OFFCURVE",
"25 377 CURVE",
"69 340 LINE",
"99 393 OFFCURVE",
"158 423 OFFCURVE",
"214 423 CURVE SMOOTH",
"272 423 OFFCURVE",
"300 390 OFFCURVE",
"300 341 CURVE SMOOTH",
"300 275 OFFCURVE",
"241 225 OFFCURVE",
"123 167 CURVE",
"123 107 LINE",
"219 142 OFFCURVE"
);
}
);
};
layerId = "63224BA1-30A4-42F4-A6D1-9160F56B91B0";
paths = (
{
closed = 1;
nodes = (
"230 183 LINE",
"290 167 OFFCURVE",
"319 129 OFFCURVE",
"319 71 CURVE SMOOTH",
"319 -52 OFFCURVE",
"150 -123 OFFCURVE",
"31 -123 CURVE",
"31 -198 LINE",
"190 -198 OFFCURVE",
"393 -78 OFFCURVE",
"393 68 CURVE SMOOTH",
"393 147 OFFCURVE",
"349 197 OFFCURVE",
"269 221 CURVE"
);
},
{
closed = 1;
nodes = (
"366 228 OFFCURVE",
"366 345 CURVE SMOOTH",
"366 425 OFFCURVE",
"316 486 OFFCURVE",
"221 486 CURVE SMOOTH",
"139 486 OFFCURVE",
"75 445 OFFCURVE",
"25 377 CURVE",
"69 340 LINE",
"99 393 OFFCURVE",
"158 423 OFFCURVE",
"214 423 CURVE SMOOTH",
"272 423 OFFCURVE",
"300 390 OFFCURVE",
"300 341 CURVE SMOOTH",
"300 275 OFFCURVE",
"241 225 OFFCURVE",
"123 167 CURVE",
"123 107 LINE",
"219 142 OFFCURVE"
);
}
);
width = 428;
}
);
unicode = 021D;
},
{
color = 5;
glyphname = h;
layers = (
{
anchors = (
{
name = above;
position = "{111, 765}";
},
{
name = below;
position = "{271, 0}";
}
);
layerId = UUID0;
paths = (
{
closed = 1;
nodes = (
"131 0 LINE",
"131 234 LINE SMOOTH",
"131 286 OFFCURVE",
"143 330 OFFCURVE",
"168 367 CURVE SMOOTH",
"193 404 OFFCURVE",
"225 422 OFFCURVE",
"266 422 CURVE SMOOTH",
"349 422 OFFCURVE",
"409 371 OFFCURVE",
"409 296 CURVE SMOOTH",
"409 0 LINE",
"477 0 LINE",
"477 296 LINE SMOOTH",
"477 354 OFFCURVE",
"457 400 OFFCURVE",
"418 433 CURVE SMOOTH",
"379 467 OFFCURVE",
"330 484 OFFCURVE",
"270 484 CURVE SMOOTH",
"219 484 OFFCURVE",
"173 460 OFFCURVE",
"131 411 CURVE",
"131 726 LINE",
"63 726 LINE",
"63 0 LINE"
);
}
);
width = 534;
},
{
anchors = (
{
name = bottom;
position = "{267, 0}";
},
{
name = center;
position = "{132, 594}";
},
{
name = top;
position = "{101, 725}";
}
);
components = (
{
name = n;
}
);
layerId = "63224BA1-30A4-42F4-A6D1-9160F56B91B0";
paths = (
{
closed = 1;
nodes = (
"131 0 LINE",
"131 726 LINE",
"63 726 LINE",
"63 0 LINE"
);
}
);
width = 534;
}
);
unicode = 0068;
},
{
color = 5;
glyphname = hbar;
layers = (
{
layerId = UUID0;
paths = (
{
closed = 1;
nodes = (
"131 0 LINE",
"131 234 LINE SMOOTH",
"131 286 OFFCURVE",
"143 330 OFFCURVE",
"168 367 CURVE SMOOTH",
"193 404 OFFCURVE",
"226 422 OFFCURVE",
"267 422 CURVE SMOOTH",
"308 422 OFFCURVE",
"342 410 OFFCURVE",
"369 387 CURVE SMOOTH",
"396 364 OFFCURVE",
"409 333 OFFCURVE",
"409 296 CURVE SMOOTH",
"409 0 LINE",
"477 0 LINE",
"477 296 LINE SMOOTH",
"477 354 OFFCURVE",
"457 400 OFFCURVE",
"418 434 CURVE SMOOTH",
"379 467 OFFCURVE",
"330 484 OFFCURVE",
"270 484 CURVE SMOOTH",
"219 484 OFFCURVE",
"173 460 OFFCURVE",
"131 411 CURVE",
"131 567 LINE",
"280 567 LINE",
"280 630 LINE",
"131 630 LINE",
"131 726 LINE",
"63 726 LINE",
"63 630 LINE",
"19 630 LINE",
"19 567 LINE",
"63 567 LINE",
"63 0 LINE"
);
}
);
width = 534;
},
{
components = (
{
name = h;
},
{
name = strokeshortcomb;
transform = "{1, 0, 0, 1, -49, 325}";
}
);
layerId = "63224BA1-30A4-42F4-A6D1-9160F56B91B0";
width = 534;
}
);
unicode = 0127;
},
{
color = 6;
glyphname = hhook;
layers = (
{
layerId = UUID0;
paths = (
{
closed = 1;
nodes = (
"131 0 LINE",
"131 234 LINE SMOOTH",
"131 287 OFFCURVE",
"144 332 OFFCURVE",
"169 368 CURVE SMOOTH",
"194 404 OFFCURVE",
"228 422 OFFCURVE",
"269 422 CURVE SMOOTH",
"353 422 OFFCURVE",
"409 367 OFFCURVE",
"409 296 CURVE SMOOTH",
"409 0 LINE",
"477 0 LINE",
"477 296 LINE SMOOTH",
"477 355 OFFCURVE",
"457 401 OFFCURVE",
"418 434 CURVE SMOOTH",
"379 467 OFFCURVE",
"329 484 OFFCURVE",
"270 484 CURVE SMOOTH",
"215 484 OFFCURVE",
"169 464 OFFCURVE",
"131 425 CURVE",
"131 579 LINE SMOOTH",
"131 624 OFFCURVE",
"165 659 OFFCURVE",
"210 659 CURVE SMOOTH",
"280 659 LINE",
"280 726 LINE",
"210 726 LINE SMOOTH",
"169 726 OFFCURVE",
"134 712 OFFCURVE",
"105 683 CURVE SMOOTH",
"77 655 OFFCURVE",
"63 620 OFFCURVE",
"63 579 CURVE SMOOTH",
"63 0 LINE"
);
}
);
width = 534;
},
{
background = {
anchors = (
{
name = bottom;
position = "{268, 0}";
},
{
name = top;
position = "{278, 468}";
}
);
paths = (
{
closed = 1;
nodes = (
"131 599 LINE",
"131 649 OFFCURVE",
"160 679 OFFCURVE",
"210 679 CURVE SMOOTH",
"240 679 LINE",
"240 741 LINE",
"210 741 LINE SMOOTH",
"118 741 OFFCURVE",
"63 686 OFFCURVE",
"63 594 CURVE SMOOTH",
"63 0 LINE",
"131 0 LINE"
);
},
{
closed = 1;
nodes = (
"466 0 LINE",
"466 313 LINE SMOOTH",
"466 423 OFFCURVE",
"382 484 OFFCURVE",
"285 484 CURVE SMOOTH",
"165 484 OFFCURVE",
"95 380 OFFCURVE",
"95 234 CURVE",
"130 234 LINE",
"130 344 OFFCURVE",
"175 422 OFFCURVE",
"274 422 CURVE SMOOTH",
"343 422 OFFCURVE",
"398 389 OFFCURVE",
"398 283 CURVE SMOOTH",
"398 0 LINE"
);
}
);
};
layerId = "63224BA1-30A4-42F4-A6D1-9160F56B91B0";
paths = (
{
closed = 1;
nodes = (
"131 599 LINE",
"131 649 OFFCURVE",
"160 679 OFFCURVE",
"210 679 CURVE SMOOTH",
"240 679 LINE",
"240 741 LINE",
"210 741 LINE SMOOTH",
"118 741 OFFCURVE",
"63 686 OFFCURVE",
"63 594 CURVE SMOOTH",
"63 0 LINE",
"131 0 LINE"
);
},
{
closed = 1;
nodes = (
"466 0 LINE",
"466 313 LINE SMOOTH",
"466 423 OFFCURVE",
"382 484 OFFCURVE",
"285 484 CURVE SMOOTH",
"165 484 OFFCURVE",
"95 380 OFFCURVE",
"95 234 CURVE",
"130 234 LINE",
"130 344 OFFCURVE",
"175 422 OFFCURVE",
"274 422 CURVE SMOOTH",
"343 422 OFFCURVE",
"398 389 OFFCURVE",
"398 283 CURVE SMOOTH",
"398 0 LINE"
);
}
);
width = 536;
}
);
leftMetricsKey = h;
rightMetricsKey = n;
unicode = 0266;
},
{
color = 6;
glyphname = hturned;
layers = (
{
anchors = (
{
name = above;
position = "{264, 567}";
}
);
layerId = UUID0;
paths = (
{
closed = 1;
nodes = (
"469 -199 LINE",
"472 468 LINE",
"404 468 LINE",
"404 234 LINE SMOOTH",
"404 181 OFFCURVE",
"391 136 OFFCURVE",
"365 100 CURVE SMOOTH",
"340 64 OFFCURVE",
"306 46 OFFCURVE",
"264 46 CURVE SMOOTH",
"181 46 OFFCURVE",
"126 101 OFFCURVE",
"126 172 CURVE SMOOTH",
"126 468 LINE",
"58 468 LINE",
"58 172 LINE",
"58 172 LINE",
"58 114 OFFCURVE",
"77 68 OFFCURVE",
"116 34 CURVE SMOOTH",
"155 1 OFFCURVE",
"205 -16 OFFCURVE",
"265 -16 CURVE SMOOTH",
"320 -16 OFFCURVE",
"367 4 OFFCURVE",
"404 43 CURVE",
"400 -199 LINE"
);
}
);
width = 534;
},
{
background = {
anchors = (
{
name = bottom;
position = "{436, -257}";
},
{
name = center;
position = "{405, -126}";
},
{
name = top;
position = "{270, 468}";
}
);
paths = (
{
closed = 1;
nodes = (
"406 468 LINE",
"406 -200 LINE",
"474 -200 LINE",
"474 468 LINE"
);
},
{
closed = 1;
nodes = (
"70 468 LINE",
"70 155 LINE SMOOTH",
"70 45 OFFCURVE",
"154 -16 OFFCURVE",
"251 -16 CURVE SMOOTH",
"371 -16 OFFCURVE",
"441 88 OFFCURVE",
"441 234 CURVE",
"406 234 LINE",
"406 124 OFFCURVE",
"361 46 OFFCURVE",
"262 46 CURVE SMOOTH",
"193 46 OFFCURVE",
"138 79 OFFCURVE",
"138 185 CURVE SMOOTH",
"138 468 LINE"
);
},
{
closed = 1;
nodes = (
"406 468 LINE",
"406 0 LINE",
"474 0 LINE",
"474 468 LINE"
);
}
);
};
layerId = "63224BA1-30A4-42F4-A6D1-9160F56B91B0";
paths = (
{
closed = 1;
nodes = (
"406 468 LINE",
"406 -200 LINE",
"474 -200 LINE",
"474 468 LINE"
);
},
{
closed = 1;
nodes = (
"70 468 LINE",
"70 155 LINE SMOOTH",
"70 45 OFFCURVE",
"154 -16 OFFCURVE",
"251 -16 CURVE SMOOTH",
"371 -16 OFFCURVE",
"441 88 OFFCURVE",
"441 234 CURVE",
"406 234 LINE",
"406 124 OFFCURVE",
"361 46 OFFCURVE",
"262 46 CURVE SMOOTH",
"193 46 OFFCURVE",
"138 79 OFFCURVE",
"138 185 CURVE SMOOTH",
"138 468 LINE"
);
},
{
closed = 1;
nodes = (
"406 468 LINE",
"406 0 LINE",
"474 0 LINE",
"474 468 LINE"
);
}
);
width = 537;
}
);
leftMetricsKey = u;
rightMetricsKey = u;
unicode = 0265;
},
{
color = 5;
glyphname = i;
layers = (
{
anchors = (
{
name = below;
position = "{102, 0}";
},
{
name = ogonek;
position = "{116, 0}";
}
);
layerId = UUID0;
paths = (
{
closed = 1;
nodes = (
"131 0 LINE",
"131 468 LINE",
"63 468 LINE",
"63 0 LINE"
);
},
{
closed = 1;
nodes = (
"127 559 OFFCURVE",
"151 584 OFFCURVE",
"151 613 CURVE SMOOTH",
"151 644 OFFCURVE",
"127 667 OFFCURVE",
"96 667 CURVE SMOOTH",
"67 667 OFFCURVE",
"43 643 OFFCURVE",
"43 614 CURVE SMOOTH",
"43 583 OFFCURVE",
"67 559 OFFCURVE",
"96 559 CURVE SMOOTH"
);
}
);
width = 193;
},
{
anchors = (
{
name = bottom;
position = "{97, 0}";
}
);
components = (
{
name = idotless;
},
{
name = dotaccentcomb;
transform = "{1, 0, 0, 1, -7, 0}";
}
);
layerId = "63224BA1-30A4-42F4-A6D1-9160F56B91B0";
width = 193;
}
);
unicode = 0069;
},
{
color = 5;
glyphname = idotless;
layers = (
{
anchors = (
{
name = above;
position = "{97, 567}";
}
);
layerId = UUID0;
paths = (
{
closed = 1;
nodes = (
"131 0 LINE",
"131 468 LINE",
"63 468 LINE",
"63 0 LINE"
);
}
);
width = 193;
},
{
anchors = (
{
name = bottom;
position = "{97, 0}";
},
{
name = ogonek;
position = "{111, 24}";
},
{
name = top;
position = "{97, 468}";
}
);
layerId = "63224BA1-30A4-42F4-A6D1-9160F56B91B0";
paths = (
{
closed = 1;
nodes = (
"131 0 LINE",
"131 468 LINE",
"63 468 LINE",
"63 0 LINE"
);
}
);
width = 193;
}
);
unicode = 0131;
},
{
color = 5;
glyphname = iogonek;
layers = (
{
layerId = UUID0;
paths = (
{
closed = 1;
nodes = (
"155 -186 OFFCURVE",
"190 -181 OFFCURVE",
"229 -170 CURVE",
"222 -144 LINE",
"203 -148 OFFCURVE",
"185 -150 OFFCURVE",
"168 -150 CURVE SMOOTH",
"99 -150 OFFCURVE",
"64 -127 OFFCURVE",
"64 -82 CURVE SMOOTH",
"64 -58 OFFCURVE",
"68 -40 OFFCURVE",
"77 -29 CURVE SMOOTH",
"86 -18 OFFCURVE",
"104 -9 OFFCURVE",
"131 0 CURVE",
"131 24 LINE",
"131 468 LINE",
"63 468 LINE",
"63 6 LINE",
"20 -13 OFFCURVE",
"-1 -46 OFFCURVE",
"-1 -91 CURVE SMOOTH",
"-1 -154 OFFCURVE",
"41 -186 OFFCURVE",
"125 -186 CURVE SMOOTH"
);
},
{
closed = 1;
nodes = (
"112 559 OFFCURVE",
"124 564 OFFCURVE",
"135 575 CURVE SMOOTH",
"146 586 OFFCURVE",
"151 598 OFFCURVE",
"151 613 CURVE SMOOTH",
"151 628 OFFCURVE",
"146 641 OFFCURVE",
"135 651 CURVE SMOOTH",
"124 662 OFFCURVE",
"112 667 OFFCURVE",
"97 667 CURVE SMOOTH",
"82 667 OFFCURVE",
"69 662 OFFCURVE",
"59 651 CURVE",
"48 641 OFFCURVE",
"43 628 OFFCURVE",
"43 613 CURVE SMOOTH",
"43 598 OFFCURVE",
"48 586 OFFCURVE",
"59 575 CURVE SMOOTH",
"69 564 OFFCURVE",
"82 559 OFFCURVE",
"97 559 CURVE SMOOTH"
);
}
);
width = 193;
},
{
components = (
{
name = idotless;
},
{
name = dotaccentcomb;
transform = "{1, 0, 0, 1, -7, 0}";
},
{
name = ogonekcomb;
transform = "{1, 0, 0, 1, -71, 24}";
}
);
layerId = "63224BA1-30A4-42F4-A6D1-9160F56B91B0";
width = 193;
}
);
unicode = 012F;
},
{
color = 6;
glyphname = "iota-latin";
layers = (
{
anchors = (
{
name = above;
position = "{94, 567}";
}
);
layerId = UUID0;
paths = (
{
closed = 1;
nodes = (
"217 68 LINE",
"157 68 OFFCURVE",
"127 95 OFFCURVE",
"127 148 CURVE SMOOTH",
"127 468 LINE",
"59 468 LINE",
"59 148 LINE SMOOTH",
"59 52 OFFCURVE",
"128 0 OFFCURVE",
"217 0 CURVE"
);
}
);
width = 229;
},
{
layerId = "63224BA1-30A4-42F4-A6D1-9160F56B91B0";
paths = (
{
closed = 1;
nodes = (
"217 68 LINE",
"157 68 OFFCURVE",
"127 95 OFFCURVE",
"127 148 CURVE SMOOTH",
"127 468 LINE",
"59 468 LINE",
"59 148 LINE SMOOTH",
"59 52 OFFCURVE",
"128 0 OFFCURVE",
"217 0 CURVE"
);
}
);
width = 229;
}
);
unicode = 0269;
},
{
color = 6;
glyphname = istroke;
layers = (
{
layerId = UUID0;
paths = (
{
closed = 1;
nodes = (
"159 0 LINE",
"159 236 LINE",
"225 236 LINE",
"225 278 LINE",
"159 278 LINE",
"159 468 LINE",
"91 468 LINE",
"91 278 LINE",
"25 278 LINE",
"25 236 LINE",
"91 236 LINE",
"91 0 LINE"
);
},
{
closed = 1;
nodes = (
"154 559 OFFCURVE",
"179 584 OFFCURVE",
"179 613 CURVE SMOOTH",
"179 644 OFFCURVE",
"154 667 OFFCURVE",
"125 667 CURVE SMOOTH",
"96 667 OFFCURVE",
"71 643 OFFCURVE",
"71 614 CURVE SMOOTH",
"71 583 OFFCURVE",
"96 559 OFFCURVE",
"125 559 CURVE SMOOTH"
);
}
);
width = 250;
},
{
background = {
components = (
{
name = i;
transform = "{1, 0, 0, 1, 28, 0}";
}
);
};
components = (
{
name = i;
transform = "{1, 0, 0, 1, 28, 0}";
}
);
layerId = "63224BA1-30A4-42F4-A6D1-9160F56B91B0";
paths = (
{
closed = 1;
nodes = (
"225 236 LINE",
"225 278 LINE",
"25 278 LINE",
"25 236 LINE"
);
}
);
width = 250;
}
);
unicode = 0268;
},
